AnekTelugu-CondensedMedium.ufo
<glyph name="comma" format="2">
  <advance width="313"/>
  <unicode hex="002C"/>
  <outline>
    <contour>
      <point x="241" y="277" type="curve"/>
      <point x="75" y="277" type="line"/>
      <point x="79" y="233"/>
      <point x="81" y="194"/>
      <point x="81" y="150" type="curve" smooth="yes"/>
      <point x="81" y="10"/>
      <point x="49" y="-101"/>
      <point x="-3" y="-198" type="curve"/>
      <point x="117" y="-239" type="line"/>
      <point x="211" y="-120"/>
      <point x="250" y="7"/>
      <point x="250" y="157" type="curve" smooth="yes"/>
      <point x="250" y="205"/>
      <point x="245" y="249"/>
    </contour>
  </outline>
</glyph>
<glyph name="greater" format="2">
  <advance width="700"/>
  <unicode hex="003E"/>
  <outline>
    <contour>
      <point x="521" y="644" type="line"/>
      <point x="521" y="630" type="line"/>
      <point x="87" y="519" type="line"/>
      <point x="87" y="370" type="line"/>
      <point x="643" y="524" type="line"/>
      <point x="643" y="750" type="line"/>
      <point x="87" y="904" type="line"/>
      <point x="87" y="755" type="line"/>
    </contour>
  </outline>
</glyph>
<glyph name="gravecomb" format="2">
  <unicode hex="0300"/>
  <anchor x="323" y="998" name="_top"/>
  <anchor x="250" y="1317" name="top"/>
  <outline>
    <contour>
      <point x="274" y="1349" type="line"/>
      <point x="96" y="1349" type="line"/>
      <point x="96" y="1349" type="line"/>
      <point x="252" y="1092" type="line"/>
      <point x="392" y="1092" type="line"/>
      <point x="392" y="1092" type="line"/>
    </contour>
  </outline>
</glyph>
<glyph name="dotaccentcomb" format="2">
  <unicode hex="0307"/>
  <anchor x="189" y="998" name="_top"/>
  <anchor x="189" y="1320" name="top"/>
  <outline>
    <contour>
      <point x="188" y="1117" type="curve" smooth="yes"/>
      <point x="248" y="1117"/>
      <point x="278" y="1155"/>
      <point x="278" y="1223" type="curve" smooth="yes"/>
      <point x="278" y="1230" type="line" smooth="yes"/>
      <point x="278" y="1298"/>
      <point x="248" y="1335"/>
      <point x="188" y="1335" type="curve" smooth="yes"/>
      <point x="129" y="1335"/>
      <point x="100" y="1298"/>
      <point x="100" y="1230" type="curve" smooth="yes"/>
      <point x="100" y="1223" type="line" smooth="yes"/>
      <point x="100" y="1155"/>
      <point x="129" y="1117"/>
    </contour>
  </outline>
</glyph>
<glyph name="Candrabindu_above.te" format="2">
  <unicode hex="0C00"/>
  <outline>
    <contour>
      <point x="-375" y="1300" type="curve" smooth="yes"/>
      <point x="-175" y="1300"/>
      <point x="-87" y="1412"/>
      <point x="-87" y="1560" type="curve" smooth="yes"/>
      <point x="-87" y="1567" type="line"/>
      <point x="-218" y="1567" type="line"/>
      <point x="-221" y="1468"/>
      <point x="-258" y="1420"/>
      <point x="-375" y="1420" type="curve" smooth="yes"/>
      <point x="-492" y="1420"/>
      <point x="-528" y="1468"/>
      <point x="-531" y="1567" type="curve"/>
      <point x="-662" y="1567" type="line"/>
      <point x="-662" y="1560" type="line" smooth="yes"/>
      <point x="-662" y="1412"/>
      <point x="-575" y="1300"/>
    </contour>
    <contour>
      <point x="-375" y="1499" type="curve" smooth="yes"/>
      <point x="-329" y="1499"/>
      <point x="-308" y="1529"/>
      <point x="-308" y="1599" type="curve" smooth="yes"/>
      <point x="-308" y="1669"/>
      <point x="-329" y="1699"/>
      <point x="-375" y="1699" type="curve" smooth="yes"/>
      <point x="-421" y="1699"/>
      <point x="-441" y="1669"/>
      <point x="-441" y="1599" type="curve" smooth="yes"/>
      <point x="-441" y="1529"/>
      <point x="-421" y="1499"/>
    </contour>
  </outline>
</glyph>
<glyph name="Candrabindu.te" format="2">
  <advance width="512"/>
  <unicode hex="0C01"/>
  <outline>
    <contour>
      <point x="415" y="-11" type="curve" smooth="yes"/>
      <point x="437" y="-11" type="line"/>
      <point x="459" y="147" type="line"/>
      <point x="433" y="147" type="line" smooth="yes"/>
      <point x="308" y="147"/>
      <point x="251" y="225"/>
      <point x="251" y="395" type="curve" smooth="yes"/>
      <point x="251" y="790" type="line" smooth="yes"/>
      <point x="251" y="959"/>
      <point x="308" y="1037"/>
      <point x="433" y="1037" type="curve" smooth="yes"/>
      <point x="459" y="1037" type="line"/>
      <point x="437" y="1195" type="line"/>
      <point x="415" y="1195" type="line" smooth="yes"/>
      <point x="197" y="1195"/>
      <point x="85" y="1063"/>
      <point x="85" y="794" type="curve" smooth="yes"/>
      <point x="85" y="391" type="line" smooth="yes"/>
      <point x="85" y="122"/>
      <point x="197" y="-11"/>
    </contour>
  </outline>
</glyph>
<glyph name="Anuswara.te" format="2">
  <advance width="819"/>
  <unicode hex="0C02"/>
  <outline>
    <contour>
      <point x="410" y="-18" type="curve" smooth="yes"/>
      <point x="624" y="-18"/>
      <point x="734" y="113"/>
      <point x="734" y="375" type="curve" smooth="yes"/>
      <point x="734" y="803" type="line" smooth="yes"/>
      <point x="734" y="1065"/>
      <point x="624" y="1196"/>
      <point x="410" y="1196" type="curve" smooth="yes"/>
      <point x="196" y="1196"/>
      <point x="85" y="1065"/>
      <point x="85" y="803" type="curve" smooth="yes"/>
      <point x="85" y="375" type="line" smooth="yes"/>
      <point x="85" y="113"/>
      <point x="196" y="-18"/>
    </contour>
    <contour>
      <point x="410" y="140" type="curve" smooth="yes"/>
      <point x="301" y="140"/>
      <point x="251" y="215"/>
      <point x="251" y="374" type="curve" smooth="yes"/>
      <point x="251" y="804" type="line" smooth="yes"/>
      <point x="251" y="963"/>
      <point x="301" y="1038"/>
      <point x="410" y="1038" type="curve" smooth="yes"/>
      <point x="518" y="1038"/>
      <point x="569" y="963"/>
      <point x="569" y="804" type="curve" smooth="yes"/>
      <point x="569" y="374" type="line" smooth="yes"/>
      <point x="569" y="215"/>
      <point x="518" y="140"/>
    </contour>
  </outline>
</glyph>
<glyph name="Visarga.te" format="2">
  <advance width="588"/>
  <unicode hex="0C03"/>
  <outline>
    <contour>
      <point x="294" y="630" type="curve" smooth="yes"/>
      <point x="436" y="630"/>
      <point x="513" y="711"/>
      <point x="513" y="867" type="curve" smooth="yes"/>
      <point x="513" y="959" type="line" smooth="yes"/>
      <point x="513" y="1116"/>
      <point x="436" y="1196"/>
      <point x="294" y="1196" type="curve" smooth="yes"/>
      <point x="152" y="1196"/>
      <point x="75" y="1116"/>
      <point x="75" y="959" type="curve" smooth="yes"/>
      <point x="75" y="867" type="line" smooth="yes"/>
      <point x="75" y="711"/>
      <point x="152" y="630"/>
    </contour>
    <contour>
      <point x="294" y="-18" type="curve" smooth="yes"/>
      <point x="436" y="-18"/>
      <point x="513" y="63"/>
      <point x="513" y="219" type="curve" smooth="yes"/>
      <point x="513" y="311" type="line" smooth="yes"/>
      <point x="513" y="468"/>
      <point x="436" y="548"/>
      <point x="294" y="548" type="curve" smooth="yes"/>
      <point x="152" y="548"/>
      <point x="75" y="468"/>
      <point x="75" y="311" type="curve" smooth="yes"/>
      <point x="75" y="219" type="line" smooth="yes"/>
      <point x="75" y="63"/>
      <point x="152" y="-18"/>
    </contour>
    <contour>
      <point x="294" y="112" type="curve" smooth="yes"/>
      <point x="237" y="112"/>
      <point x="210" y="147"/>
      <point x="210" y="223" type="curve" smooth="yes"/>
      <point x="210" y="307" type="line" smooth="yes"/>
      <point x="210" y="383"/>
      <point x="237" y="418"/>
      <point x="294" y="418" type="curve" smooth="yes"/>
      <point x="351" y="418"/>
      <point x="378" y="383"/>
      <point x="378" y="307" type="curve" smooth="yes"/>
      <point x="378" y="223" type="line" smooth="yes"/>
      <point x="378" y="147"/>
      <point x="351" y="112"/>
    </contour>
    <contour>
      <point x="294" y="760" type="curve" smooth="yes"/>
      <point x="237" y="760"/>
      <point x="210" y="795"/>
      <point x="210" y="871" type="curve" smooth="yes"/>
      <point x="210" y="955" type="line" smooth="yes"/>
      <point x="210" y="1031"/>
      <point x="237" y="1066"/>
      <point x="294" y="1066" type="curve" smooth="yes"/>
      <point x="351" y="1066"/>
      <point x="378" y="1031"/>
      <point x="378" y="955" type="curve" smooth="yes"/>
      <point x="378" y="871" type="line" smooth="yes"/>
      <point x="378" y="795"/>
      <point x="351" y="760"/>
    </contour>
  </outline>
</glyph>
<glyph name="vowelA.te" format="2">
  <advance width="1052"/>
  <unicode hex="0C05"/>
  <outline>
    <contour>
      <point x="717" y="1196" type="curve" smooth="yes"/>
      <point x="551" y="1196"/>
      <point x="472" y="1105"/>
      <point x="472" y="939" type="curve" smooth="yes"/>
      <point x="472" y="860" type="line" smooth="yes"/>
      <point x="472" y="754"/>
      <point x="500" y="674"/>
      <point x="571" y="638" type="curve"/>
      <point x="571" y="634" type="line"/>
      <point x="340" y="635" type="line"/>
      <point x="361" y="492" type="line"/>
      <point x="715" y="503" type="line"/>
      <point x="715" y="631" type="line"/>
      <point x="686" y="634" type="line"/>
      <point x="643" y="670"/>
      <point x="632" y="722"/>
      <point x="632" y="799" type="curve" smooth="yes"/>
      <point x="632" y="915" type="line" smooth="yes"/>
      <point x="632" y="1010"/>
      <point x="656" y="1053"/>
      <point x="717" y="1053" type="curve" smooth="yes"/>
      <point x="778" y="1053"/>
      <point x="801" y="1010"/>
      <point x="801" y="915" type="curve" smooth="yes"/>
      <point x="801" y="488" type="line" smooth="yes"/>
      <point x="801" y="248"/>
      <point x="718" y="141"/>
      <point x="526" y="141" type="curve" smooth="yes"/>
      <point x="335" y="141"/>
      <point x="251" y="248"/>
      <point x="251" y="488" type="curve" smooth="yes"/>
      <point x="251" y="823" type="line" smooth="yes"/>
      <point x="251" y="961"/>
      <point x="291" y="1029"/>
      <point x="383" y="1029" type="curve" smooth="yes"/>
      <point x="387" y="1029" type="line"/>
      <point x="366" y="1182" type="line"/>
      <point x="357" y="1182" type="line" smooth="yes"/>
      <point x="167" y="1182"/>
      <point x="85" y="1043"/>
      <point x="85" y="824" type="curve" smooth="yes"/>
      <point x="85" y="479" type="line" smooth="yes"/>
      <point x="85" y="145"/>
      <point x="229" y="-18"/>
      <point x="526" y="-18" type="curve" smooth="yes"/>
      <point x="823" y="-18"/>
      <point x="967" y="145"/>
      <point x="967" y="479" type="curve" smooth="yes"/>
      <point x="967" y="893" type="line" smooth="yes"/>
      <point x="967" y="1096"/>
      <point x="887" y="1196"/>
    </contour>
  </outline>
</glyph>
<glyph name="vowelAa.te" format="2">
  <advance width="1052"/>
  <unicode hex="0C06"/>
  <outline>
    <contour>
      <point x="526" y="-18" type="curve" smooth="yes"/>
      <point x="824" y="-18"/>
      <point x="967" y="145"/>
      <point x="967" y="479" type="curve" smooth="yes"/>
      <point x="967" y="635" type="line"/>
      <point x="857" y="634" type="line"/>
      <point x="857" y="638" type="line"/>
      <point x="933" y="674"/>
      <point x="960" y="754"/>
      <point x="960" y="860" type="curve" smooth="yes"/>
      <point x="960" y="939" type="line" smooth="yes"/>
      <point x="960" y="1105"/>
      <point x="882" y="1196"/>
      <point x="717" y="1196" type="curve" smooth="yes"/>
      <point x="552" y="1196"/>
      <point x="474" y="1105"/>
      <point x="474" y="939" type="curve" smooth="yes"/>
      <point x="474" y="860" type="line" smooth="yes"/>
      <point x="474" y="754"/>
      <point x="500" y="674"/>
      <point x="576" y="638" type="curve"/>
      <point x="576" y="634" type="line"/>
      <point x="340" y="635" type="line"/>
      <point x="361" y="497" type="line"/>
      <point x="807" y="501" type="line"/>
      <point x="807" y="488" type="line"/>
      <point x="807" y="248"/>
      <point x="724" y="141"/>
      <point x="528" y="141" type="curve" smooth="yes"/>
      <point x="335" y="141"/>
      <point x="251" y="248"/>
      <point x="251" y="488" type="curve" smooth="yes"/>
      <point x="251" y="823" type="line" smooth="yes"/>
      <point x="251" y="961"/>
      <point x="291" y="1029"/>
      <point x="383" y="1029" type="curve" smooth="yes"/>
      <point x="387" y="1029" type="line"/>
      <point x="366" y="1182" type="line"/>
      <point x="357" y="1182" type="line" smooth="yes"/>
      <point x="167" y="1182"/>
      <point x="85" y="1043"/>
      <point x="85" y="824" type="curve" smooth="yes"/>
      <point x="85" y="479" type="line" smooth="yes"/>
      <point x="85" y="145"/>
      <point x="229" y="-18"/>
    </contour>
    <contour>
      <point x="682" y="636" type="line"/>
      <point x="642" y="674"/>
      <point x="632" y="727"/>
      <point x="632" y="806" type="curve" smooth="yes"/>
      <point x="632" y="913" type="line" smooth="yes"/>
      <point x="632" y="1010"/>
      <point x="656" y="1053"/>
      <point x="717" y="1053" type="curve" smooth="yes"/>
      <point x="779" y="1053"/>
      <point x="802" y="1010"/>
      <point x="802" y="913" type="curve" smooth="yes"/>
      <point x="802" y="806" type="line" smooth="yes"/>
      <point x="802" y="727"/>
      <point x="793" y="674"/>
      <point x="751" y="636" type="curve"/>
    </contour>
  </outline>
</glyph>
<glyph name="vowelI.te" format="2">
  <advance width="1020"/>
  <unicode hex="0C07"/>
  <outline>
    <contour>
      <point x="460" y="-18" type="curve" smooth="yes"/>
      <point x="719" y="-18"/>
      <point x="936" y="183"/>
      <point x="936" y="508" type="curve" smooth="yes"/>
      <point x="936" y="908" type="line" smooth="yes"/>
      <point x="936" y="1097"/>
      <point x="857" y="1196"/>
      <point x="701" y="1196" type="curve" smooth="yes"/>
      <point x="574" y="1196"/>
      <point x="515" y="1129"/>
      <point x="498" y="1049" type="curve"/>
      <point x="492" y="1049" type="line"/>
      <point x="475" y="1129"/>
      <point x="419" y="1196"/>
      <point x="294" y="1196" type="curve" smooth="yes"/>
      <point x="140" y="1196"/>
      <point x="63" y="1098"/>
      <point x="63" y="912" type="curve" smooth="yes"/>
      <point x="63" y="847" type="line" smooth="yes"/>
      <point x="63" y="786"/>
      <point x="70" y="727"/>
      <point x="87" y="681" type="curve"/>
      <point x="245" y="681" type="line"/>
      <point x="232" y="728"/>
      <point x="225" y="781"/>
      <point x="225" y="838" type="curve" smooth="yes"/>
      <point x="225" y="902" type="line" smooth="yes"/>
      <point x="225" y="1000"/>
      <point x="256" y="1044"/>
      <point x="320" y="1044" type="curve" smooth="yes"/>
      <point x="388" y="1044"/>
      <point x="416" y="993"/>
      <point x="418" y="893" type="curve" smooth="yes"/>
      <point x="423" y="712" type="line"/>
      <point x="567" y="712" type="line"/>
      <point x="572" y="893" type="line" smooth="yes"/>
      <point x="574" y="995"/>
      <point x="604" y="1044"/>
      <point x="672" y="1044" type="curve" smooth="yes"/>
      <point x="739" y="1044"/>
      <point x="770" y="1000"/>
      <point x="770" y="898" type="curve" smooth="yes"/>
      <point x="770" y="510" type="line" smooth="yes"/>
      <point x="770" y="433"/>
      <point x="764" y="372"/>
      <point x="752" y="325" type="curve"/>
      <point x="732" y="279" type="line"/>
      <point x="678" y="192"/>
      <point x="596" y="133"/>
      <point x="466" y="133" type="curve" smooth="yes"/>
      <point x="349" y="133"/>
      <point x="287" y="181"/>
      <point x="287" y="271" type="curve" smooth="yes"/>
      <point x="287" y="278" type="line" smooth="yes"/>
      <point x="287" y="369"/>
      <point x="346" y="419"/>
      <point x="459" y="419" type="curve" smooth="yes"/>
      <point x="586" y="419"/>
      <point x="666" y="353"/>
      <point x="716" y="231" type="curve"/>
      <point x="752" y="159" type="line"/>
      <point x="770" y="86"/>
      <point x="778" y="4"/>
      <point x="781" y="-104" type="curve"/>
      <point x="933" y="-104" type="line"/>
      <point x="921" y="50"/>
      <point x="901" y="145"/>
      <point x="853" y="244" type="curve"/>
      <point x="794" y="333" type="line"/>
      <point x="731" y="490"/>
      <point x="616" y="562"/>
      <point x="442" y="562" type="curve" smooth="yes"/>
      <point x="236" y="562"/>
      <point x="125" y="461"/>
      <point x="125" y="278" type="curve" smooth="yes"/>
      <point x="125" y="267" type="line" smooth="yes"/>
      <point x="125" y="86"/>
      <point x="244" y="-18"/>
    </contour>
  </outline>
</glyph>
<glyph name="vowelIi.te" format="2">
  <advance width="1467"/>
  <unicode hex="0C08"/>
  <outline>
    <contour>
      <point x="1143" y="-18" type="curve" smooth="yes"/>
      <point x="1305" y="-18"/>
      <point x="1382" y="78"/>
      <point x="1382" y="259" type="curve" smooth="yes"/>
      <point x="1382" y="364" type="line" smooth="yes"/>
      <point x="1382" y="519"/>
      <point x="1334" y="609"/>
      <point x="1213" y="655" type="curve"/>
      <point x="1206" y="667"/>
      <point x="1186" y="682"/>
      <point x="1174" y="682" type="curve"/>
      <point x="711" y="682" type="line"/>
      <point x="678" y="679" type="line"/>
      <point x="231" y="679" type="line"/>
      <point x="198" y="682" type="line"/>
      <point x="46" y="682" type="line"/>
      <point x="46" y="548" type="line"/>
      <point x="198" y="548" type="line"/>
      <point x="230" y="551" type="line"/>
      <point x="678" y="551" type="line"/>
      <point x="711" y="548" type="line"/>
      <point x="979" y="548" type="line"/>
      <point x="922" y="493"/>
      <point x="904" y="437"/>
      <point x="904" y="323" type="curve" smooth="yes"/>
      <point x="904" y="234" type="line" smooth="yes"/>
      <point x="904" y="74"/>
      <point x="981" y="-18"/>
    </contour>
    <contour>
      <point x="459" y="-19" type="curve" smooth="yes"/>
      <point x="670" y="-19"/>
      <point x="779" y="111"/>
      <point x="779" y="364" type="curve" smooth="yes"/>
      <point x="779" y="815" type="line" smooth="yes"/>
      <point x="779" y="1058"/>
      <point x="672" y="1179"/>
      <point x="459" y="1179" type="curve" smooth="yes"/>
      <point x="245" y="1179"/>
      <point x="138" y="1058"/>
      <point x="138" y="813" type="curve" smooth="yes"/>
      <point x="138" y="364" type="line" smooth="yes"/>
      <point x="138" y="111"/>
      <point x="247" y="-19"/>
    </contour>
    <contour>
      <point x="459" y="140" type="curve" smooth="yes"/>
      <point x="352" y="140"/>
      <point x="300" y="212"/>
      <point x="300" y="367" type="curve" smooth="yes"/>
      <point x="300" y="806" type="line" smooth="yes"/>
      <point x="300" y="962"/>
      <point x="352" y="1036"/>
      <point x="459" y="1036" type="curve" smooth="yes"/>
      <point x="565" y="1036"/>
      <point x="617" y="962"/>
      <point x="617" y="806" type="curve" smooth="yes"/>
      <point x="617" y="367" type="line" smooth="yes"/>
      <point x="617" y="212"/>
      <point x="565" y="140"/>
    </contour>
    <contour>
      <point x="1141" y="127" type="curve" smooth="yes"/>
      <point x="1084" y="127"/>
      <point x="1059" y="166"/>
      <point x="1059" y="250" type="curve" smooth="yes"/>
      <point x="1059" y="373" type="line" smooth="yes"/>
      <point x="1059" y="457"/>
      <point x="1068" y="500"/>
      <point x="1112" y="548" type="curve"/>
      <point x="1170" y="548" type="line"/>
      <point x="1215" y="500"/>
      <point x="1222" y="457"/>
      <point x="1222" y="373" type="curve" smooth="yes"/>
      <point x="1222" y="250" type="line" smooth="yes"/>
      <point x="1222" y="166"/>
      <point x="1197" y="127"/>
    </contour>
    <contour>
      <point x="438" y="1094" type="curve" smooth="yes"/>
      <point x="443" y="1094" type="line" smooth="yes"/>
      <point x="590" y="1094"/>
      <point x="650" y="1153"/>
      <point x="687" y="1232" type="curve" smooth="yes"/>
      <point x="752" y="1373" type="line" smooth="yes"/>
      <point x="776" y="1425"/>
      <point x="799" y="1438"/>
      <point x="842" y="1438" type="curve" smooth="yes"/>
      <point x="879" y="1438" type="line"/>
      <point x="865" y="1584" type="line"/>
      <point x="812" y="1584" type="line" smooth="yes"/>
      <point x="722" y="1584"/>
      <point x="671" y="1548"/>
      <point x="634" y="1467" type="curve" smooth="yes"/>
      <point x="541" y="1262" type="line" smooth="yes"/>
      <point x="515" y="1204"/>
      <point x="491" y="1184"/>
      <point x="452" y="1184" type="curve" smooth="yes"/>
      <point x="449" y="1184" type="line" smooth="yes"/>
      <point x="412" y="1184"/>
      <point x="390" y="1211"/>
      <point x="374" y="1269" type="curve" smooth="yes"/>
      <point x="342" y="1386" type="line"/>
      <point x="175" y="1386" type="line"/>
      <point x="214" y="1268" type="line" smooth="yes"/>
      <point x="264" y="1118"/>
      <point x="326" y="1094"/>
    </contour>
    <contour>
      <point x="1219" y="624" type="line"/>
      <point x="1329" y="677"/>
      <point x="1370" y="751"/>
      <point x="1370" y="879" type="curve" smooth="yes"/>
      <point x="1370" y="936" type="line" smooth="yes"/>
      <point x="1370" y="1089"/>
      <point x="1293" y="1184"/>
      <point x="1137" y="1184" type="curve" smooth="yes"/>
      <point x="1065" y="1184"/>
      <point x="1008" y="1161"/>
      <point x="963" y="1131" type="curve"/>
      <point x="945" y="972" type="line"/>
      <point x="984" y="1014"/>
      <point x="1034" y="1040"/>
      <point x="1091" y="1040" type="curve" smooth="yes"/>
      <point x="1171" y="1040"/>
      <point x="1210" y="990"/>
      <point x="1210" y="889" type="curve" smooth="yes"/>
      <point x="1210" y="837" type="line" smooth="yes"/>
      <point x="1210" y="764"/>
      <point x="1195" y="719"/>
      <point x="1142" y="679" type="curve"/>
    </contour>
  </outline>
</glyph>
<glyph name="vowelU.te" format="2">
  <advance width="1092"/>
  <unicode hex="0C09"/>
  <outline>
    <contour>
      <point x="364" y="-18" type="curve" smooth="yes"/>
      <point x="491" y="-18"/>
      <point x="548" y="61"/>
      <point x="557" y="170" type="curve"/>
      <point x="561" y="170" type="line"/>
      <point x="570" y="61"/>
      <point x="627" y="-18"/>
      <point x="756" y="-18" type="curve" smooth="yes"/>
      <point x="900" y="-18"/>
      <point x="975" y="76"/>
      <point x="975" y="279" type="curve" smooth="yes"/>
      <point x="975" y="385" type="line" smooth="yes"/>
      <point x="975" y="460"/>
      <point x="964" y="523"/>
      <point x="933" y="580" type="curve"/>
      <point x="778" y="580" type="line"/>
      <point x="804" y="527"/>
      <point x="814" y="463"/>
      <point x="814" y="394" type="curve" smooth="yes"/>
      <point x="814" y="290" type="line" smooth="yes"/>
      <point x="814" y="187"/>
      <point x="789" y="143"/>
      <point x="727" y="143" type="curve" smooth="yes"/>
      <point x="665" y="143"/>
      <point x="641" y="193"/>
      <point x="637" y="286" type="curve" smooth="yes"/>
      <point x="631" y="458" type="line"/>
      <point x="487" y="458" type="line"/>
      <point x="481" y="286" type="line" smooth="yes"/>
      <point x="477" y="193"/>
      <point x="453" y="143"/>
      <point x="391" y="143" type="curve" smooth="yes"/>
      <point x="328" y="143"/>
      <point x="304" y="187"/>
      <point x="304" y="290" type="curve" smooth="yes"/>
      <point x="304" y="707" type="line" smooth="yes"/>
      <point x="304" y="933"/>
      <point x="388" y="1036"/>
      <point x="575" y="1036" type="curve" smooth="yes"/>
      <point x="719" y="1036"/>
      <point x="811" y="988"/>
      <point x="885" y="930" type="curve"/>
      <point x="878" y="1093" type="line"/>
      <point x="821" y="1136"/>
      <point x="712" y="1186"/>
      <point x="577" y="1186" type="curve" smooth="yes"/>
      <point x="278" y="1186"/>
      <point x="138" y="1033"/>
      <point x="138" y="707" type="curve" smooth="yes"/>
      <point x="138" y="287" type="line" smooth="yes"/>
      <point x="138" y="79"/>
      <point x="216" y="-18"/>
    </contour>
    <contour>
      <point x="46" y="565" type="line"/>
      <point x="1044" y="565" type="line"/>
      <point x="1044" y="699" type="line"/>
      <point x="46" y="699" type="line"/>
    </contour>
    <contour>
      <point x="516" y="1136" type="curve"/>
      <point x="593" y="1136" type="line"/>
      <point x="615" y="1227"/>
      <point x="630" y="1297"/>
      <point x="630" y="1350" type="curve" smooth="yes"/>
      <point x="630" y="1401"/>
      <point x="620" y="1439"/>
      <point x="612" y="1451" type="curve"/>
      <point x="497" y="1451" type="line"/>
      <point x="489" y="1439"/>
      <point x="478" y="1401"/>
      <point x="478" y="1350" type="curve" smooth="yes"/>
      <point x="478" y="1297"/>
      <point x="494" y="1227"/>
    </contour>
  </outline>
</glyph>
<glyph name="vowelUu.te" format="2">
  <advance width="1658"/>
  <unicode hex="0C0A"/>
  <outline>
    <contour>
      <point x="1334" y="-18" type="curve" smooth="yes"/>
      <point x="1496" y="-18"/>
      <point x="1573" y="78"/>
      <point x="1573" y="259" type="curve" smooth="yes"/>
      <point x="1573" y="369" type="line" smooth="yes"/>
      <point x="1573" y="528"/>
      <point x="1525" y="624"/>
      <point x="1404" y="671" type="curve"/>
      <point x="1397" y="687"/>
      <point x="1376" y="699"/>
      <point x="1358" y="699" type="curve" smooth="yes"/>
      <point x="46" y="699" type="line"/>
      <point x="46" y="565" type="line"/>
      <point x="1176" y="565" type="line"/>
      <point x="1114" y="508"/>
      <point x="1095" y="448"/>
      <point x="1095" y="329" type="curve" smooth="yes"/>
      <point x="1095" y="234" type="line" smooth="yes"/>
      <point x="1095" y="74"/>
      <point x="1172" y="-18"/>
    </contour>
    <contour>
      <point x="364" y="-18" type="curve" smooth="yes"/>
      <point x="491" y="-18"/>
      <point x="548" y="61"/>
      <point x="557" y="170" type="curve"/>
      <point x="561" y="170" type="line"/>
      <point x="570" y="61"/>
      <point x="627" y="-18"/>
      <point x="756" y="-18" type="curve" smooth="yes"/>
      <point x="900" y="-18"/>
      <point x="975" y="76"/>
      <point x="975" y="279" type="curve" smooth="yes"/>
      <point x="975" y="385" type="line" smooth="yes"/>
      <point x="975" y="460"/>
      <point x="964" y="523"/>
      <point x="933" y="580" type="curve"/>
      <point x="778" y="580" type="line"/>
      <point x="804" y="527"/>
      <point x="814" y="463"/>
      <point x="814" y="394" type="curve" smooth="yes"/>
      <point x="814" y="290" type="line" smooth="yes"/>
      <point x="814" y="187"/>
      <point x="789" y="143"/>
      <point x="727" y="143" type="curve" smooth="yes"/>
      <point x="665" y="143"/>
      <point x="641" y="193"/>
      <point x="637" y="286" type="curve" smooth="yes"/>
      <point x="630" y="458" type="line"/>
      <point x="488" y="458" type="line"/>
      <point x="481" y="286" type="line" smooth="yes"/>
      <point x="477" y="193"/>
      <point x="453" y="143"/>
      <point x="391" y="143" type="curve" smooth="yes"/>
      <point x="328" y="143"/>
      <point x="304" y="187"/>
      <point x="304" y="290" type="curve" smooth="yes"/>
      <point x="304" y="707" type="line" smooth="yes"/>
      <point x="304" y="933"/>
      <point x="388" y="1036"/>
      <point x="575" y="1036" type="curve" smooth="yes"/>
      <point x="719" y="1036"/>
      <point x="811" y="988"/>
      <point x="885" y="930" type="curve"/>
      <point x="878" y="1093" type="line"/>
      <point x="821" y="1136"/>
      <point x="712" y="1186"/>
      <point x="577" y="1186" type="curve" smooth="yes"/>
      <point x="278" y="1186"/>
      <point x="138" y="1033"/>
      <point x="138" y="707" type="curve" smooth="yes"/>
      <point x="138" y="287" type="line" smooth="yes"/>
      <point x="138" y="79"/>
      <point x="216" y="-18"/>
    </contour>
    <contour>
      <point x="392" y="1136" type="curve"/>
      <point x="470" y="1136" type="line"/>
      <point x="492" y="1227"/>
      <point x="506" y="1297"/>
      <point x="506" y="1350" type="curve" smooth="yes"/>
      <point x="506" y="1401"/>
      <point x="496" y="1439"/>
      <point x="489" y="1451" type="curve"/>
      <point x="373" y="1451" type="line"/>
      <point x="366" y="1439"/>
      <point x="354" y="1401"/>
      <point x="354" y="1350" type="curve" smooth="yes"/>
      <point x="354" y="1297"/>
      <point x="370" y="1227"/>
    </contour>
    <contour>
      <point x="640" y="1136" type="curve"/>
      <point x="718" y="1136" type="line"/>
      <point x="740" y="1227"/>
      <point x="754" y="1297"/>
      <point x="754" y="1350" type="curve" smooth="yes"/>
      <point x="754" y="1401"/>
      <point x="744" y="1439"/>
      <point x="737" y="1451" type="curve"/>
      <point x="621" y="1451" type="line"/>
      <point x="614" y="1439"/>
      <point x="602" y="1401"/>
      <point x="602" y="1350" type="curve" smooth="yes"/>
      <point x="602" y="1297"/>
      <point x="618" y="1227"/>
    </contour>
    <contour>
      <point x="1332" y="127" type="curve" smooth="yes"/>
      <point x="1275" y="127"/>
      <point x="1250" y="166"/>
      <point x="1250" y="250" type="curve" smooth="yes"/>
      <point x="1250" y="381" type="line" smooth="yes"/>
      <point x="1250" y="467"/>
      <point x="1258" y="512"/>
      <point x="1303" y="561" type="curve"/>
      <point x="1361" y="561" type="line"/>
      <point x="1406" y="512"/>
      <point x="1413" y="467"/>
      <point x="1413" y="381" type="curve" smooth="yes"/>
      <point x="1413" y="250" type="line" smooth="yes"/>
      <point x="1413" y="166"/>
      <point x="1388" y="127"/>
    </contour>
    <contour>
      <point x="1411" y="637" type="line"/>
      <point x="1520" y="688"/>
      <point x="1561" y="761"/>
      <point x="1561" y="885" type="curve"/>
      <point x="1561" y="936" type="line"/>
      <point x="1561" y="1089"/>
      <point x="1484" y="1184"/>
      <point x="1328" y="1184" type="curve" smooth="yes"/>
      <point x="1256" y="1184"/>
      <point x="1199" y="1161"/>
      <point x="1154" y="1131" type="curve"/>
      <point x="1136" y="972" type="line"/>
      <point x="1175" y="1014"/>
      <point x="1225" y="1040"/>
      <point x="1282" y="1040" type="curve" smooth="yes"/>
      <point x="1362" y="1040"/>
      <point x="1401" y="990"/>
      <point x="1401" y="889" type="curve"/>
      <point x="1401" y="844" type="line"/>
      <point x="1401" y="773"/>
      <point x="1387" y="731"/>
      <point x="1333" y="692" type="curve"/>
    </contour>
  </outline>
</glyph>
<glyph name="vowelVocalicR.te" format="2">
  <advance width="1839"/>
  <unicode hex="0C0B"/>
  <anchor x="502" y="0" name="bottom"/>
  <outline>
    <contour>
      <point x="296" y="-18" type="curve" smooth="yes"/>
      <point x="430" y="-18"/>
      <point x="491" y="60"/>
      <point x="500" y="171" type="curve"/>
      <point x="504" y="171" type="line"/>
      <point x="513" y="60"/>
      <point x="571" y="-18"/>
      <point x="700" y="-18" type="curve" smooth="yes"/>
      <point x="824" y="-18"/>
      <point x="885" y="64"/>
      <point x="897" y="185" type="curve"/>
      <point x="919" y="210"/>
      <point x="933" y="253"/>
      <point x="933" y="291" type="curve" smooth="yes"/>
      <point x="933" y="653" type="line"/>
      <point x="767" y="653" type="line"/>
      <point x="767" y="294" type="line" smooth="yes"/>
      <point x="767" y="195"/>
      <point x="741" y="143"/>
      <point x="675" y="143" type="curve" smooth="yes"/>
      <point x="605" y="143"/>
      <point x="583" y="198"/>
      <point x="580" y="291" type="curve" smooth="yes"/>
      <point x="574" y="458" type="line"/>
      <point x="430" y="458" type="line"/>
      <point x="424" y="291" type="line" smooth="yes"/>
      <point x="421" y="198"/>
      <point x="399" y="143"/>
      <point x="328" y="143" type="curve" smooth="yes"/>
      <point x="261" y="143"/>
      <point x="236" y="195"/>
      <point x="236" y="277" type="curve" smooth="yes"/>
      <point x="236" y="318" type="line" smooth="yes"/>
      <point x="236" y="420"/>
      <point x="263" y="478"/>
      <point x="376" y="580" type="curve" smooth="yes"/>
      <point x="482" y="676"/>
      <point x="536" y="763"/>
      <point x="536" y="909" type="curve" smooth="yes"/>
      <point x="536" y="936" type="line" smooth="yes"/>
      <point x="536" y="1108"/>
      <point x="460" y="1196"/>
      <point x="304" y="1196" type="curve" smooth="yes"/>
      <point x="150" y="1196"/>
      <point x="75" y="1110"/>
      <point x="75" y="941" type="curve" smooth="yes"/>
      <point x="75" y="896" type="line" smooth="yes"/>
      <point x="75" y="825"/>
      <point x="87" y="765"/>
      <point x="107" y="713" type="curve"/>
      <point x="249" y="713" type="line"/>
      <point x="230" y="769"/>
      <point x="222" y="823"/>
      <point x="222" y="895" type="curve" smooth="yes"/>
      <point x="222" y="939" type="line" smooth="yes"/>
      <point x="222" y="1021"/>
      <point x="247" y="1060"/>
      <point x="304" y="1060" type="curve" smooth="yes"/>
      <point x="361" y="1060"/>
      <point x="386" y="1021"/>
      <point x="386" y="939" type="curve" smooth="yes"/>
      <point x="386" y="908" type="line" smooth="yes"/>
      <point x="386" y="801"/>
      <point x="357" y="754"/>
      <point x="256" y="663" type="curve" smooth="yes"/>
      <point x="122" y="542"/>
      <point x="70" y="461"/>
      <point x="70" y="304" type="curve" smooth="yes"/>
      <point x="70" y="259" type="line" smooth="yes"/>
      <point x="70" y="80"/>
      <point x="147" y="-18"/>
    </contour>
    <component base="matraUVar1.te" xOffset="928"/>
    <component base="Terminals.te" xOffset="614"/>
  </outline>
</glyph>
<glyph name="vowelVocalicL.te" format="2">
  <advance width="1344"/>
  <unicode hex="0C0C"/>
  <outline>
    <contour>
      <point x="845" y="-18" type="curve" smooth="yes"/>
      <point x="1125" y="-18"/>
      <point x="1259" y="143"/>
      <point x="1259" y="438" type="curve" smooth="yes"/>
      <point x="1259" y="817" type="line" smooth="yes"/>
      <point x="1259" y="1047"/>
      <point x="1162" y="1182"/>
      <point x="984" y="1182" type="curve" smooth="yes"/>
      <point x="977" y="1182" type="line"/>
      <point x="947" y="1029" type="line"/>
      <point x="950" y="1029" type="line" smooth="yes"/>
      <point x="1041" y="1029"/>
      <point x="1093" y="961"/>
      <point x="1093" y="815" type="curve" smooth="yes"/>
      <point x="1093" y="443" type="line" smooth="yes"/>
      <point x="1093" y="233"/>
      <point x="1015" y="136"/>
      <point x="844" y="136" type="curve" smooth="yes"/>
      <point x="697" y="136"/>
      <point x="619" y="202"/>
      <point x="619" y="324" type="curve" smooth="yes"/>
      <point x="619" y="328" type="line" smooth="yes"/>
      <point x="619" y="424"/>
      <point x="644" y="473"/>
      <point x="782" y="586" type="curve" smooth="yes"/>
      <point x="897" y="676"/>
      <point x="936" y="765"/>
      <point x="936" y="887" type="curve" smooth="yes"/>
      <point x="936" y="908" type="line" smooth="yes"/>
      <point x="936" y="1097"/>
      <point x="857" y="1196"/>
      <point x="701" y="1196" type="curve" smooth="yes"/>
      <point x="574" y="1196"/>
      <point x="515" y="1129"/>
      <point x="498" y="1049" type="curve"/>
      <point x="492" y="1049" type="line"/>
      <point x="475" y="1129"/>
      <point x="419" y="1196"/>
      <point x="294" y="1196" type="curve" smooth="yes"/>
      <point x="140" y="1196"/>
      <point x="63" y="1098"/>
      <point x="63" y="912" type="curve" smooth="yes"/>
      <point x="63" y="846" type="line" smooth="yes"/>
      <point x="63" y="786"/>
      <point x="70" y="727"/>
      <point x="87" y="681" type="curve"/>
      <point x="245" y="681" type="line"/>
      <point x="232" y="727"/>
      <point x="225" y="781"/>
      <point x="225" y="838" type="curve" smooth="yes"/>
      <point x="225" y="902" type="line" smooth="yes"/>
      <point x="225" y="1000"/>
      <point x="256" y="1044"/>
      <point x="320" y="1044" type="curve" smooth="yes"/>
      <point x="388" y="1044"/>
      <point x="415" y="993"/>
      <point x="418" y="893" type="curve" smooth="yes"/>
      <point x="423" y="712" type="line"/>
      <point x="567" y="712" type="line"/>
      <point x="572" y="893" type="line" smooth="yes"/>
      <point x="575" y="995"/>
      <point x="604" y="1044"/>
      <point x="672" y="1044" type="curve" smooth="yes"/>
      <point x="739" y="1044"/>
      <point x="770" y="1000"/>
      <point x="770" y="898" type="curve" smooth="yes"/>
      <point x="770" y="884" type="line" smooth="yes"/>
      <point x="770" y="809"/>
      <point x="750" y="749"/>
      <point x="655" y="672" type="curve" smooth="yes"/>
      <point x="492" y="548"/>
      <point x="453" y="453"/>
      <point x="453" y="322" type="curve" smooth="yes"/>
      <point x="453" y="311" type="line" smooth="yes"/>
      <point x="453" y="108"/>
      <point x="591" y="-18"/>
    </contour>
  </outline>
</glyph>
<glyph name="vowelE.te" format="2">
  <advance width="1019"/>
  <unicode hex="0C0E"/>
  <outline>
    <contour>
      <point x="293" y="-18" type="curve" smooth="yes"/>
      <point x="424" y="-18"/>
      <point x="470" y="56"/>
      <point x="485" y="148" type="curve"/>
      <point x="491" y="148" type="line"/>
      <point x="504" y="54"/>
      <point x="564" y="-18"/>
      <point x="699" y="-18" type="curve" smooth="yes"/>
      <point x="855" y="-18"/>
      <point x="934" y="84"/>
      <point x="934" y="297" type="curve" smooth="yes"/>
      <point x="934" y="814" type="line" smooth="yes"/>
      <point x="934" y="1167"/>
      <point x="792" y="1332"/>
      <point x="492" y="1332" type="curve" smooth="yes"/>
      <point x="446" y="1332" type="line"/>
      <point x="415" y="1183" type="line"/>
      <point x="481" y="1183" type="line" smooth="yes"/>
      <point x="680" y="1183"/>
      <point x="768" y="1066"/>
      <point x="768" y="812" type="curve" smooth="yes"/>
      <point x="768" y="299" type="line" smooth="yes"/>
      <point x="768" y="189"/>
      <point x="733" y="141"/>
      <point x="667" y="141" type="curve" smooth="yes"/>
      <point x="596" y="141"/>
      <point x="562" y="190"/>
      <point x="562" y="296" type="curve" smooth="yes"/>
      <point x="562" y="407" type="line" smooth="yes"/>
      <point x="562" y="599"/>
      <point x="479" y="700"/>
      <point x="315" y="700" type="curve" smooth="yes"/>
      <point x="151" y="700"/>
      <point x="68" y="599"/>
      <point x="68" y="406" type="curve" smooth="yes"/>
      <point x="68" y="276" type="line" smooth="yes"/>
      <point x="68" y="83"/>
      <point x="143" y="-18"/>
    </contour>
    <contour>
      <point x="316" y="137" type="curve" smooth="yes"/>
      <point x="253" y="137"/>
      <point x="224" y="184"/>
      <point x="224" y="280" type="curve" smooth="yes"/>
      <point x="224" y="410" type="line" smooth="yes"/>
      <point x="224" y="506"/>
      <point x="253" y="552"/>
      <point x="316" y="552" type="curve" smooth="yes"/>
      <point x="379" y="552"/>
      <point x="408" y="506"/>
      <point x="408" y="410" type="curve" smooth="yes"/>
      <point x="408" y="280" type="line" smooth="yes"/>
      <point x="408" y="184"/>
      <point x="379" y="137"/>
    </contour>
  </outline>
</glyph>
<glyph name="vowelEe.te" format="2">
  <advance width="1019"/>
  <unicode hex="0C0F"/>
  <outline>
    <contour>
      <point x="565" y="1618" type="line"/>
      <point x="581" y="1476" type="line"/>
      <point x="509" y="1476" type="line" smooth="yes"/>
      <point x="350" y="1476"/>
      <point x="277" y="1398"/>
      <point x="277" y="1228" type="curve" smooth="yes"/>
      <point x="277" y="1155" type="line"/>
      <point x="115" y="1155" type="line"/>
      <point x="115" y="1231" type="line" smooth="yes"/>
      <point x="115" y="1490"/>
      <point x="253" y="1618"/>
      <point x="494" y="1618" type="curve" smooth="yes"/>
    </contour>
    <component base="vowelE.te"/>
  </outline>
</glyph>
<glyph name="vowelAi.te" format="2">
  <advance width="1042"/>
  <unicode hex="0C10"/>
  <outline>
    <contour>
      <point x="309" y="-18" type="curve" smooth="yes"/>
      <point x="442" y="-18"/>
      <point x="489" y="56"/>
      <point x="504" y="148" type="curve"/>
      <point x="509" y="148" type="line"/>
      <point x="521" y="55"/>
      <point x="582" y="-18"/>
      <point x="719" y="-18" type="curve" smooth="yes"/>
      <point x="877" y="-18"/>
      <point x="957" y="83"/>
      <point x="957" y="298" type="curve" smooth="yes"/>
      <point x="957" y="908" type="line" smooth="yes"/>
      <point x="957" y="1097"/>
      <point x="878" y="1196"/>
      <point x="721" y="1196" type="curve" smooth="yes"/>
      <point x="595" y="1196"/>
      <point x="536" y="1129"/>
      <point x="519" y="1049" type="curve"/>
      <point x="513" y="1049" type="line"/>
      <point x="496" y="1129"/>
      <point x="440" y="1196"/>
      <point x="315" y="1196" type="curve" smooth="yes"/>
      <point x="161" y="1196"/>
      <point x="84" y="1098"/>
      <point x="84" y="912" type="curve" smooth="yes"/>
      <point x="84" y="884" type="line" smooth="yes"/>
      <point x="84" y="824"/>
      <point x="91" y="766"/>
      <point x="107" y="721" type="curve"/>
      <point x="265" y="721" type="line"/>
      <point x="253" y="767"/>
      <point x="246" y="820"/>
      <point x="246" y="876" type="curve" smooth="yes"/>
      <point x="246" y="902" type="line" smooth="yes"/>
      <point x="246" y="1000"/>
      <point x="277" y="1044"/>
      <point x="341" y="1044" type="curve" smooth="yes"/>
      <point x="409" y="1044"/>
      <point x="436" y="993"/>
      <point x="439" y="893" type="curve" smooth="yes"/>
      <point x="443" y="760" type="line"/>
      <point x="589" y="760" type="line"/>
      <point x="593" y="893" type="line" smooth="yes"/>
      <point x="596" y="995"/>
      <point x="625" y="1044"/>
      <point x="693" y="1044" type="curve" smooth="yes"/>
      <point x="760" y="1044"/>
      <point x="791" y="1000"/>
      <point x="791" y="898" type="curve" smooth="yes"/>
      <point x="791" y="301" type="line" smooth="yes"/>
      <point x="791" y="190"/>
      <point x="756" y="141"/>
      <point x="688" y="141" type="curve" smooth="yes"/>
      <point x="616" y="141"/>
      <point x="581" y="191"/>
      <point x="581" y="299" type="curve" smooth="yes"/>
      <point x="581" y="412" type="line" smooth="yes"/>
      <point x="581" y="588"/>
      <point x="498" y="684"/>
      <point x="333" y="684" type="curve" smooth="yes"/>
      <point x="168" y="684"/>
      <point x="84" y="583"/>
      <point x="84" y="393" type="curve" smooth="yes"/>
      <point x="84" y="279" type="line" smooth="yes"/>
      <point x="84" y="82"/>
      <point x="159" y="-18"/>
    </contour>
    <contour>
      <point x="333" y="137" type="curve" smooth="yes"/>
      <point x="269" y="137"/>
      <point x="240" y="183"/>
      <point x="240" y="282" type="curve" smooth="yes"/>
      <point x="240" y="397" type="line" smooth="yes"/>
      <point x="240" y="491"/>
      <point x="269" y="537"/>
      <point x="333" y="537" type="curve" smooth="yes"/>
      <point x="398" y="537"/>
      <point x="427" y="491"/>
      <point x="427" y="397" type="curve" smooth="yes"/>
      <point x="427" y="282" type="line" smooth="yes"/>
      <point x="427" y="183"/>
      <point x="398" y="137"/>
    </contour>
  </outline>
</glyph>
<glyph name="vowelOo.te" format="2">
  <advance width="996"/>
  <unicode hex="0C13"/>
  <outline>
    <contour>
      <point x="528" y="1302" type="curve"/>
      <point x="516" y="1448" type="line"/>
      <point x="472" y="1473"/>
      <point x="414" y="1495"/>
      <point x="337" y="1495" type="curve" smooth="yes"/>
      <point x="198" y="1495"/>
      <point x="120" y="1431"/>
      <point x="120" y="1311" type="curve" smooth="yes"/>
      <point x="120" y="1216"/>
      <point x="177" y="1158"/>
      <point x="292" y="1135" type="curve"/>
      <point x="335" y="1190" type="line"/>
      <point x="280" y="1198"/>
      <point x="256" y="1229"/>
      <point x="256" y="1275" type="curve" smooth="yes"/>
      <point x="256" y="1328"/>
      <point x="289" y="1358"/>
      <point x="357" y="1358" type="curve" smooth="yes"/>
      <point x="429" y="1358"/>
      <point x="486" y="1334"/>
    </contour>
    <component base="vowelO.te"/>
  </outline>
</glyph>
<glyph name="vowelAu.te" format="2">
  <advance width="1092"/>
  <unicode hex="0C14"/>
  <outline>
    <contour>
      <point x="296" y="-18" type="curve" smooth="yes"/>
      <point x="429" y="-18"/>
      <point x="487" y="54"/>
      <point x="499" y="156" type="curve"/>
      <point x="505" y="156" type="line"/>
      <point x="517" y="54"/>
      <point x="573" y="-18"/>
      <point x="707" y="-18" type="curve" smooth="yes"/>
      <point x="852" y="-18"/>
      <point x="928" y="81"/>
      <point x="928" y="284" type="curve" smooth="yes"/>
      <point x="928" y="358" type="line" smooth="yes"/>
      <point x="928" y="436"/>
      <point x="917" y="502"/>
      <point x="887" y="563" type="curve"/>
      <point x="732" y="563" type="line"/>
      <point x="757" y="508"/>
      <point x="767" y="439"/>
      <point x="767" y="367" type="curve" smooth="yes"/>
      <point x="767" y="294" type="line" smooth="yes"/>
      <point x="767" y="195"/>
      <point x="741" y="143"/>
      <point x="675" y="143" type="curve" smooth="yes"/>
      <point x="609" y="143"/>
      <point x="586" y="201"/>
      <point x="582" y="300" type="curve" smooth="yes"/>
      <point x="575" y="458" type="line"/>
      <point x="429" y="458" type="line"/>
      <point x="422" y="300" type="line" smooth="yes"/>
      <point x="418" y="201"/>
      <point x="395" y="143"/>
      <point x="328" y="143" type="curve" smooth="yes"/>
      <point x="261" y="143"/>
      <point x="236" y="195"/>
      <point x="236" y="277" type="curve" smooth="yes"/>
      <point x="236" y="318" type="line" smooth="yes"/>
      <point x="236" y="420"/>
      <point x="263" y="478"/>
      <point x="376" y="580" type="curve" smooth="yes"/>
      <point x="483" y="675"/>
      <point x="536" y="763"/>
      <point x="536" y="909" type="curve" smooth="yes"/>
      <point x="536" y="936" type="line" smooth="yes"/>
      <point x="536" y="1108"/>
      <point x="460" y="1196"/>
      <point x="304" y="1196" type="curve" smooth="yes"/>
      <point x="150" y="1196"/>
      <point x="75" y="1110"/>
      <point x="75" y="941" type="curve" smooth="yes"/>
      <point x="75" y="896" type="line" smooth="yes"/>
      <point x="75" y="825"/>
      <point x="87" y="765"/>
      <point x="107" y="713" type="curve"/>
      <point x="249" y="713" type="line"/>
      <point x="230" y="769"/>
      <point x="222" y="823"/>
      <point x="222" y="895" type="curve" smooth="yes"/>
      <point x="222" y="939" type="line" smooth="yes"/>
      <point x="222" y="1021"/>
      <point x="247" y="1060"/>
      <point x="304" y="1060" type="curve" smooth="yes"/>
      <point x="361" y="1060"/>
      <point x="386" y="1021"/>
      <point x="386" y="939" type="curve" smooth="yes"/>
      <point x="386" y="908" type="line" smooth="yes"/>
      <point x="386" y="801"/>
      <point x="358" y="755"/>
      <point x="256" y="663" type="curve" smooth="yes"/>
      <point x="122" y="542"/>
      <point x="70" y="461"/>
      <point x="70" y="304" type="curve" smooth="yes"/>
      <point x="70" y="259" type="line" smooth="yes"/>
      <point x="70" y="83"/>
      <point x="147" y="-18"/>
    </contour>
    <contour>
      <point x="331" y="1125" type="line"/>
      <point x="447" y="1126"/>
      <point x="520" y="1172"/>
      <point x="520" y="1269" type="curve" smooth="yes"/>
      <point x="520" y="1369"/>
      <point x="450" y="1417"/>
      <point x="329" y="1417" type="curve" smooth="yes"/>
      <point x="232" y="1417" type="line"/>
      <point x="232" y="1354" type="line"/>
      <point x="306" y="1354" type="line" smooth="yes"/>
      <point x="351" y="1354"/>
      <point x="379" y="1328"/>
      <point x="379" y="1275" type="curve" smooth="yes"/>
      <point x="379" y="1223"/>
      <point x="352" y="1196"/>
      <point x="304" y="1196" type="curve"/>
    </contour>
    <contour>
      <point x="837" y="679" type="curve" smooth="yes"/>
      <point x="980" y="679"/>
      <point x="1048" y="765"/>
      <point x="1048" y="927" type="curve" smooth="yes"/>
      <point x="1048" y="1113" type="line" smooth="yes"/>
      <point x="1048" y="1358"/>
      <point x="934" y="1487"/>
      <point x="703" y="1487" type="curve" smooth="yes"/>
      <point x="133" y="1487" type="line"/>
      <point x="102" y="1354" type="line"/>
      <point x="435" y="1354" type="line"/>
      <point x="443" y="1359" type="line"/>
      <point x="551" y="1354" type="line"/>
      <point x="697" y="1354" type="line" smooth="yes"/>
      <point x="836" y="1354"/>
      <point x="904" y="1278"/>
      <point x="904" y="1142" type="curve" smooth="yes"/>
      <point x="904" y="1139" type="line"/>
      <point x="890" y="1139" type="line"/>
      <point x="903" y="1063" type="line"/>
      <point x="903" y="910" type="line" smooth="yes"/>
      <point x="903" y="837"/>
      <point x="883" y="806"/>
      <point x="837" y="806" type="curve" smooth="yes"/>
      <point x="791" y="806"/>
      <point x="770" y="837"/>
      <point x="770" y="910" type="curve" smooth="yes"/>
      <point x="770" y="1004" type="line" smooth="yes"/>
      <point x="770" y="1076"/>
      <point x="788" y="1108"/>
      <point x="836" y="1108" type="curve" smooth="yes"/>
      <point x="872" y="1108"/>
      <point x="898" y="1082"/>
      <point x="907" y="1036" type="curve"/>
      <point x="898" y="1138" type="line"/>
      <point x="885" y="1195"/>
      <point x="848" y="1236"/>
      <point x="780" y="1236" type="curve" smooth="yes"/>
      <point x="682" y="1236"/>
      <point x="625" y="1166"/>
      <point x="625" y="1021" type="curve" smooth="yes"/>
      <point x="625" y="913" type="line" smooth="yes"/>
      <point x="625" y="763"/>
      <point x="694" y="679"/>
    </contour>
  </outline>
</glyph>
<glyph name="Ka.te" format="2">
  <advance width="743"/>
  <unicode hex="0C15"/>
  <anchor x="372" y="-53" name="bottom"/>
  <outline>
    <contour>
      <point x="371" y="-19" type="curve" smooth="yes"/>
      <point x="564" y="-19"/>
      <point x="658" y="91"/>
      <point x="658" y="296" type="curve" smooth="yes"/>
      <point x="658" y="311" type="line" smooth="yes"/>
      <point x="658" y="478"/>
      <point x="584" y="557"/>
      <point x="435" y="648" type="curve" smooth="yes"/>
      <point x="389" y="676" type="line" smooth="yes"/>
      <point x="286" y="739"/>
      <point x="249" y="777"/>
      <point x="249" y="872" type="curve" smooth="yes"/>
      <point x="249" y="889" type="line" smooth="yes"/>
      <point x="249" y="996"/>
      <point x="288" y="1048"/>
      <point x="370" y="1048" type="curve" smooth="yes"/>
      <point x="451" y="1048"/>
      <point x="491" y="995"/>
      <point x="491" y="889" type="curve" smooth="yes"/>
      <point x="491" y="865" type="line" smooth="yes"/>
      <point x="491" y="835"/>
      <point x="489" y="803"/>
      <point x="481" y="771" type="curve"/>
      <point x="634" y="771" type="line"/>
      <point x="644" y="805"/>
      <point x="646" y="841"/>
      <point x="646" y="875" type="curve" smooth="yes"/>
      <point x="646" y="901" type="line" smooth="yes"/>
      <point x="646" y="1079"/>
      <point x="550" y="1178"/>
      <point x="371" y="1178" type="curve" smooth="yes"/>
      <point x="192" y="1178"/>
      <point x="89" y="1074"/>
      <point x="89" y="893" type="curve" smooth="yes"/>
      <point x="89" y="868" type="line" smooth="yes"/>
      <point x="89" y="717"/>
      <point x="158" y="637"/>
      <point x="288" y="563" type="curve" smooth="yes"/>
      <point x="364" y="520" type="line" smooth="yes"/>
      <point x="465" y="463"/>
      <point x="496" y="399"/>
      <point x="496" y="312" type="curve" smooth="yes"/>
      <point x="496" y="295" type="line" smooth="yes"/>
      <point x="496" y="186"/>
      <point x="455" y="133"/>
      <point x="370" y="133" type="curve" smooth="yes"/>
      <point x="285" y="133"/>
      <point x="243" y="186"/>
      <point x="243" y="295" type="curve" smooth="yes"/>
      <point x="243" y="321" type="line" smooth="yes"/>
      <point x="243" y="355"/>
      <point x="246" y="388"/>
      <point x="252" y="419" type="curve"/>
      <point x="99" y="419" type="line"/>
      <point x="88" y="380"/>
      <point x="85" y="342"/>
      <point x="85" y="304" type="curve" smooth="yes"/>
      <point x="85" y="288" type="line" smooth="yes"/>
      <point x="85" y="88"/>
      <point x="179" y="-19"/>
    </contour>
    <contour>
      <point x="343" y="1094" type="curve" smooth="yes"/>
      <point x="349" y="1094" type="line" smooth="yes"/>
      <point x="484" y="1094"/>
      <point x="548" y="1143"/>
      <point x="586" y="1223" type="curve" smooth="yes"/>
      <point x="655" y="1373" type="line" smooth="yes"/>
      <point x="679" y="1426"/>
      <point x="702" y="1438"/>
      <point x="744" y="1438" type="curve" smooth="yes"/>
      <point x="781" y="1438" type="line"/>
      <point x="767" y="1584" type="line"/>
      <point x="712" y="1584" type="line" smooth="yes"/>
      <point x="626" y="1584"/>
      <point x="575" y="1550"/>
      <point x="537" y="1467" type="curve" smooth="yes"/>
      <point x="445" y="1264" type="line" smooth="yes"/>
      <point x="418" y="1206"/>
      <point x="396" y="1184"/>
      <point x="358" y="1184" type="curve" smooth="yes"/>
      <point x="355" y="1184" type="line" smooth="yes"/>
      <point x="314" y="1184"/>
      <point x="292" y="1212"/>
      <point x="276" y="1271" type="curve" smooth="yes"/>
      <point x="245" y="1386" type="line"/>
      <point x="77" y="1386" type="line"/>
      <point x="122" y="1250" type="line" smooth="yes"/>
      <point x="167" y="1114"/>
      <point x="236" y="1094"/>
    </contour>
  </outline>
</glyph>
<glyph name="Kha.te" format="2">
  <advance width="1072"/>
  <unicode hex="0C16"/>
  <anchor x="515" y="-200" name="bottom"/>
  <outline>
    <contour>
      <point x="313" y="-18" type="curve" smooth="yes"/>
      <point x="443" y="-18"/>
      <point x="502" y="64"/>
      <point x="513" y="172" type="curve"/>
      <point x="519" y="172" type="line"/>
      <point x="536" y="58"/>
      <point x="606" y="-18"/>
      <point x="737" y="-18" type="curve" smooth="yes"/>
      <point x="900" y="-18"/>
      <point x="987" y="86"/>
      <point x="987" y="300" type="curve" smooth="yes"/>
      <point x="987" y="709" type="line"/>
      <point x="821" y="709" type="line"/>
      <point x="821" y="308" type="line" smooth="yes"/>
      <point x="821" y="199"/>
      <point x="783" y="146"/>
      <point x="703" y="146" type="curve" smooth="yes"/>
      <point x="622" y="146"/>
      <point x="584" y="201"/>
      <point x="584" y="309" type="curve" smooth="yes"/>
      <point x="584" y="336"/>
      <point x="584" y="359"/>
      <point x="584" y="387" type="curve" smooth="yes"/>
      <point x="584" y="903" type="line" smooth="yes"/>
      <point x="584" y="1099"/>
      <point x="503" y="1196"/>
      <point x="336" y="1196" type="curve" smooth="yes"/>
      <point x="170" y="1196"/>
      <point x="92" y="1098"/>
      <point x="92" y="927" type="curve" smooth="yes"/>
      <point x="92" y="879" type="line" smooth="yes"/>
      <point x="92" y="830"/>
      <point x="98" y="782"/>
      <point x="112" y="735" type="curve"/>
      <point x="265" y="735" type="line"/>
      <point x="253" y="781"/>
      <point x="249" y="827"/>
      <point x="249" y="868" type="curve" smooth="yes"/>
      <point x="249" y="917" type="line" smooth="yes"/>
      <point x="249" y="1009"/>
      <point x="277" y="1053"/>
      <point x="337" y="1053" type="curve" smooth="yes"/>
      <point x="397" y="1053"/>
      <point x="425" y="1009"/>
      <point x="425" y="917" type="curve" smooth="yes"/>
      <point x="425" y="577" type="line" smooth="yes"/>
      <point x="425" y="559"/>
      <point x="425" y="543"/>
      <point x="425" y="526" type="curve"/>
      <point x="416" y="526" type="line"/>
      <point x="422" y="448" type="line"/>
      <point x="422" y="271" type="line" smooth="yes"/>
      <point x="422" y="185"/>
      <point x="392" y="143"/>
      <point x="332" y="143" type="curve" smooth="yes"/>
      <point x="271" y="143"/>
      <point x="240" y="185"/>
      <point x="240" y="271" type="curve" smooth="yes"/>
      <point x="240" y="385" type="line" smooth="yes"/>
      <point x="240" y="469"/>
      <point x="268" y="507"/>
      <point x="326" y="507" type="curve" smooth="yes"/>
      <point x="375" y="507"/>
      <point x="409" y="477"/>
      <point x="425" y="423" type="curve"/>
      <point x="420" y="521" type="line"/>
      <point x="408" y="587"/>
      <point x="363" y="647"/>
      <point x="269" y="647" type="curve" smooth="yes"/>
      <point x="155" y="647"/>
      <point x="80" y="566"/>
      <point x="80" y="397" type="curve" smooth="yes"/>
      <point x="80" y="277" type="line" smooth="yes"/>
      <point x="80" y="79"/>
      <point x="162" y="-18"/>
    </contour>
    <component base="Terminals.te" xOffset="668"/>
    <component base="kombu_1" xOffset="518" yOffset="19"/>
  </outline>
</glyph>
<glyph name="Ga.te" format="2">
  <advance width="825"/>
  <unicode hex="0C17"/>
  <anchor x="411" y="-53" name="bottom"/>
  <outline>
    <contour>
      <point x="136" y="0" type="curve"/>
      <point x="304" y="0" type="line"/>
      <point x="263" y="105"/>
      <point x="251" y="211"/>
      <point x="251" y="331" type="curve" smooth="yes"/>
      <point x="251" y="800" type="line" smooth="yes"/>
      <point x="251" y="962"/>
      <point x="301" y="1036"/>
      <point x="413" y="1036" type="curve" smooth="yes"/>
      <point x="524" y="1036"/>
      <point x="574" y="962"/>
      <point x="574" y="800" type="curve" smooth="yes"/>
      <point x="574" y="331" type="line" smooth="yes"/>
      <point x="574" y="214"/>
      <point x="562" y="104"/>
      <point x="521" y="0" type="curve"/>
      <point x="690" y="0" type="line"/>
      <point x="729" y="100"/>
      <point x="740" y="196"/>
      <point x="740" y="330" type="curve" smooth="yes"/>
      <point x="740" y="804" type="line" smooth="yes"/>
      <point x="740" y="1055"/>
      <point x="630" y="1179"/>
      <point x="413" y="1179" type="curve" smooth="yes"/>
      <point x="195" y="1179"/>
      <point x="85" y="1055"/>
      <point x="85" y="804" type="curve" smooth="yes"/>
      <point x="85" y="330" type="line" smooth="yes"/>
      <point x="85" y="197"/>
      <point x="96" y="99"/>
    </contour>
    <contour>
      <point x="393" y="1094" type="curve" smooth="yes"/>
      <point x="399" y="1094" type="line" smooth="yes"/>
      <point x="534" y="1094"/>
      <point x="598" y="1143"/>
      <point x="636" y="1223" type="curve" smooth="yes"/>
      <point x="705" y="1373" type="line" smooth="yes"/>
      <point x="729" y="1426"/>
      <point x="752" y="1438"/>
      <point x="794" y="1438" type="curve" smooth="yes"/>
      <point x="833" y="1438" type="line"/>
      <point x="819" y="1584" type="line"/>
      <point x="762" y="1584" type="line" smooth="yes"/>
      <point x="676" y="1584"/>
      <point x="625" y="1550"/>
      <point x="587" y="1467" type="curve" smooth="yes"/>
      <point x="495" y="1264" type="line" smooth="yes"/>
      <point x="468" y="1206"/>
      <point x="446" y="1184"/>
      <point x="408" y="1184" type="curve" smooth="yes"/>
      <point x="405" y="1184" type="line" smooth="yes"/>
      <point x="364" y="1184"/>
      <point x="342" y="1212"/>
      <point x="326" y="1271" type="curve" smooth="yes"/>
      <point x="295" y="1386" type="line"/>
      <point x="127" y="1386" type="line"/>
      <point x="172" y="1250" type="line" smooth="yes"/>
      <point x="217" y="1114"/>
      <point x="286" y="1094"/>
    </contour>
  </outline>
</glyph>
<glyph name="Gha.te" format="2">
  <advance width="1435"/>
  <unicode hex="0C18"/>
  <anchor x="710" y="-209" name="bottom"/>
  <outline>
    <contour>
      <point x="298" y="-18" type="curve" smooth="yes"/>
      <point x="429" y="-18"/>
      <point x="475" y="56"/>
      <point x="490" y="148" type="curve"/>
      <point x="496" y="148" type="line"/>
      <point x="509" y="54"/>
      <point x="572" y="-18"/>
      <point x="695" y="-18" type="curve" smooth="yes"/>
      <point x="822" y="-18"/>
      <point x="891" y="56"/>
      <point x="900" y="190" type="curve"/>
      <point x="916" y="213"/>
      <point x="939" y="255"/>
      <point x="939" y="306" type="curve" smooth="yes"/>
      <point x="939" y="547" type="line"/>
      <point x="773" y="547" type="line"/>
      <point x="773" y="299" type="line" smooth="yes"/>
      <point x="773" y="188"/>
      <point x="738" y="141"/>
      <point x="672" y="141" type="curve" smooth="yes"/>
      <point x="601" y="141"/>
      <point x="567" y="190"/>
      <point x="567" y="296" type="curve" smooth="yes"/>
      <point x="567" y="407" type="line" smooth="yes"/>
      <point x="567" y="599"/>
      <point x="483" y="700"/>
      <point x="320" y="700" type="curve" smooth="yes"/>
      <point x="157" y="700"/>
      <point x="73" y="599"/>
      <point x="73" y="406" type="curve" smooth="yes"/>
      <point x="73" y="276" type="line" smooth="yes"/>
      <point x="73" y="83"/>
      <point x="148" y="-18"/>
    </contour>
    <contour>
      <point x="321" y="137" type="curve" smooth="yes"/>
      <point x="258" y="137"/>
      <point x="229" y="184"/>
      <point x="229" y="280" type="curve" smooth="yes"/>
      <point x="229" y="410" type="line" smooth="yes"/>
      <point x="229" y="506"/>
      <point x="258" y="552"/>
      <point x="321" y="552" type="curve" smooth="yes"/>
      <point x="384" y="552"/>
      <point x="413" y="506"/>
      <point x="413" y="410" type="curve" smooth="yes"/>
      <point x="413" y="280" type="line" smooth="yes"/>
      <point x="413" y="184"/>
      <point x="384" y="137"/>
    </contour>
    <contour>
      <point x="773" y="515" type="line"/>
      <point x="939" y="515" type="line"/>
      <point x="939" y="833" type="line" smooth="yes"/>
      <point x="939" y="1065"/>
      <point x="848" y="1182"/>
      <point x="667" y="1182" type="curve" smooth="yes"/>
      <point x="658" y="1182" type="line"/>
      <point x="634" y="1033" type="line"/>
      <point x="636" y="1033" type="line"/>
      <point x="727" y="1033"/>
      <point x="773" y="967"/>
      <point x="773" y="826" type="curve" smooth="yes"/>
    </contour>
    <contour>
      <point x="327" y="1039" type="curve" smooth="yes"/>
      <point x="330" y="1039" type="line" smooth="yes"/>
      <point x="461" y="1039"/>
      <point x="506" y="1108"/>
      <point x="581" y="1237" type="curve" smooth="yes"/>
      <point x="660" y="1373" type="line" smooth="yes"/>
      <point x="691" y="1426"/>
      <point x="717" y="1438"/>
      <point x="758" y="1438" type="curve" smooth="yes"/>
      <point x="842" y="1438" type="line"/>
      <point x="832" y="1584" type="line"/>
      <point x="734" y="1584" type="line" smooth="yes"/>
      <point x="635" y="1584"/>
      <point x="589" y="1545"/>
      <point x="545" y="1467" type="curve" smooth="yes"/>
      <point x="427" y="1259" type="line" smooth="yes"/>
      <point x="398" y="1208"/>
      <point x="376" y="1182"/>
      <point x="337" y="1182" type="curve" smooth="yes"/>
      <point x="333" y="1182" type="line" smooth="yes"/>
      <point x="290" y="1182"/>
      <point x="267" y="1210"/>
      <point x="252" y="1269" type="curve" smooth="yes"/>
      <point x="222" y="1386" type="line"/>
      <point x="54" y="1386" type="line"/>
      <point x="91" y="1268" type="line" smooth="yes"/>
      <point x="139" y="1115"/>
      <point x="190" y="1039"/>
    </contour>
    <component base="kombu_1" xOffset="493" yOffset="19"/>
    <component base="matraU.te" xOffset="949"/>
  </outline>
</glyph>
<glyph name="Ca.te" format="2">
  <advance width="1042"/>
  <unicode hex="0C1A"/>
  <anchor x="531" y="-53" name="bottom"/>
  <outline>
    <contour>
      <point x="332" y="-18" type="curve" smooth="yes"/>
      <point x="461" y="-18"/>
      <point x="515" y="54"/>
      <point x="527" y="156" type="curve"/>
      <point x="533" y="156" type="line"/>
      <point x="545" y="54"/>
      <point x="600" y="-18"/>
      <point x="728" y="-18" type="curve" smooth="yes"/>
      <point x="877" y="-18"/>
      <point x="957" y="81"/>
      <point x="957" y="289" type="curve" smooth="yes"/>
      <point x="957" y="702" type="line" smooth="yes"/>
      <point x="957" y="1027"/>
      <point x="822" y="1179"/>
      <point x="531" y="1179" type="curve"/>
      <point x="494" y="1117" type="line"/>
      <point x="503" y="1040" type="line"/>
      <point x="531" y="1040" type="line" smooth="yes"/>
      <point x="711" y="1040"/>
      <point x="791" y="935"/>
      <point x="791" y="702" type="curve" smooth="yes"/>
      <point x="791" y="293" type="line" smooth="yes"/>
      <point x="791" y="189"/>
      <point x="764" y="143"/>
      <point x="701" y="143" type="curve" smooth="yes"/>
      <point x="639" y="143"/>
      <point x="614" y="201"/>
      <point x="610" y="300" type="curve" smooth="yes"/>
      <point x="603" y="466" type="line"/>
      <point x="457" y="466" type="line"/>
      <point x="450" y="300" type="line" smooth="yes"/>
      <point x="446" y="201"/>
      <point x="421" y="143"/>
      <point x="358" y="143" type="curve" smooth="yes"/>
      <point x="295" y="143"/>
      <point x="267" y="189"/>
      <point x="267" y="293" type="curve" smooth="yes"/>
      <point x="267" y="414" type="line" smooth="yes"/>
      <point x="267" y="529"/>
      <point x="287" y="586"/>
      <point x="359" y="631" type="curve"/>
      <point x="420" y="634" type="line"/>
      <point x="420" y="764" type="line"/>
      <point x="38" y="778" type="line"/>
      <point x="38" y="626" type="line"/>
      <point x="221" y="632" type="line"/>
      <point x="221" y="628" type="line"/>
      <point x="139" y="584"/>
      <point x="103" y="512"/>
      <point x="103" y="381" type="curve" smooth="yes"/>
      <point x="103" y="271" type="line" smooth="yes"/>
      <point x="103" y="75"/>
      <point x="183" y="-18"/>
    </contour>
    <contour>
      <point x="504" y="1040" type="curve"/>
      <point x="526" y="1101" type="line"/>
      <point x="642" y="1101"/>
      <point x="699" y="1148"/>
      <point x="751" y="1237" type="curve" smooth="yes"/>
      <point x="830" y="1373" type="line" smooth="yes"/>
      <point x="861" y="1425"/>
      <point x="887" y="1438"/>
      <point x="927" y="1438" type="curve" smooth="yes"/>
      <point x="976" y="1438" type="line"/>
      <point x="965" y="1584" type="line"/>
      <point x="903" y="1584" type="line" smooth="yes"/>
      <point x="811" y="1584"/>
      <point x="763" y="1551"/>
      <point x="715" y="1467" type="curve" smooth="yes"/>
      <point x="596" y="1259" type="line" smooth="yes"/>
      <point x="564" y="1203"/>
      <point x="538" y="1184"/>
      <point x="500" y="1184" type="curve"/>
      <point x="496" y="1184" type="line"/>
      <point x="452" y="1184"/>
      <point x="430" y="1208"/>
      <point x="414" y="1269" type="curve" smooth="yes"/>
      <point x="383" y="1386" type="line"/>
      <point x="216" y="1386" type="line"/>
      <point x="253" y="1268" type="line" smooth="yes"/>
      <point x="302" y="1112"/>
      <point x="351" y="1040"/>
    </contour>
  </outline>
</glyph>
<glyph name="Jha.te" format="2">
  <advance width="1632"/>
  <unicode hex="0C1D"/>
  <anchor x="814" y="-231" name="bottom"/>
  <outline>
    <contour>
      <point x="406" y="-18" type="curve" smooth="yes"/>
      <point x="565" y="-18"/>
      <point x="655" y="56"/>
      <point x="688" y="197" type="curve" smooth="yes"/>
      <point x="701" y="251"/>
      <point x="726" y="314"/>
      <point x="726" y="377" type="curve" smooth="yes"/>
      <point x="726" y="810" type="line" smooth="yes"/>
      <point x="726" y="1059"/>
      <point x="621" y="1179"/>
      <point x="406" y="1179" type="curve" smooth="yes"/>
      <point x="190" y="1179"/>
      <point x="85" y="1059"/>
      <point x="85" y="810" type="curve" smooth="yes"/>
      <point x="85" y="371" type="line" smooth="yes"/>
      <point x="85" y="111"/>
      <point x="192" y="-18"/>
    </contour>
    <contour>
      <point x="406" y="141" type="curve" smooth="yes"/>
      <point x="300" y="141"/>
      <point x="251" y="214"/>
      <point x="251" y="370" type="curve" smooth="yes"/>
      <point x="251" y="806" type="line" smooth="yes"/>
      <point x="251" y="964"/>
      <point x="300" y="1036"/>
      <point x="406" y="1036" type="curve" smooth="yes"/>
      <point x="512" y="1036"/>
      <point x="561" y="964"/>
      <point x="561" y="806" type="curve" smooth="yes"/>
      <point x="561" y="370" type="line" smooth="yes"/>
      <point x="561" y="214"/>
      <point x="512" y="141"/>
    </contour>
    <contour>
      <point x="878" y="-18" type="curve" smooth="yes"/>
      <point x="1014" y="-18"/>
      <point x="1083" y="62"/>
      <point x="1099" y="199" type="curve"/>
      <point x="1120" y="225"/>
      <point x="1136" y="254"/>
      <point x="1136" y="295" type="curve" smooth="yes"/>
      <point x="1136" y="644" type="line"/>
      <point x="970" y="644" type="line"/>
      <point x="970" y="314" type="line" smooth="yes"/>
      <point x="970" y="197"/>
      <point x="932" y="141"/>
      <point x="848" y="141" type="curve" smooth="yes"/>
      <point x="766" y="141"/>
      <point x="726" y="197"/>
      <point x="726" y="314" type="curve" smooth="yes"/>
      <point x="726" y="399" type="line"/>
      <point x="668" y="399" type="line"/>
      <point x="666" y="219" type="line" smooth="yes"/>
      <point x="664" y="66"/>
      <point x="747" y="-18"/>
    </contour>
    <contour>
      <point x="387" y="1094" type="curve" smooth="yes"/>
      <point x="393" y="1094" type="line" smooth="yes"/>
      <point x="528" y="1094"/>
      <point x="593" y="1143"/>
      <point x="630" y="1223" type="curve" smooth="yes"/>
      <point x="699" y="1373" type="line" smooth="yes"/>
      <point x="723" y="1426"/>
      <point x="746" y="1438"/>
      <point x="788" y="1438" type="curve" smooth="yes"/>
      <point x="828" y="1438" type="line"/>
      <point x="814" y="1584" type="line"/>
      <point x="756" y="1584" type="line" smooth="yes"/>
      <point x="670" y="1584"/>
      <point x="619" y="1550"/>
      <point x="581" y="1467" type="curve" smooth="yes"/>
      <point x="489" y="1264" type="line" smooth="yes"/>
      <point x="463" y="1206"/>
      <point x="440" y="1184"/>
      <point x="402" y="1184" type="curve" smooth="yes"/>
      <point x="399" y="1184" type="line" smooth="yes"/>
      <point x="358" y="1184"/>
      <point x="336" y="1212"/>
      <point x="320" y="1271" type="curve" smooth="yes"/>
      <point x="289" y="1386" type="line"/>
      <point x="121" y="1386" type="line"/>
      <point x="166" y="1250" type="line" smooth="yes"/>
      <point x="211" y="1114"/>
      <point x="280" y="1094"/>
    </contour>
    <component base="kombu_1" xOffset="1086" yOffset="19"/>
    <component base="matraU.te" xOffset="1146"/>
    <component base="Terminals.te" xOffset="817"/>
  </outline>
</glyph>
<glyph name="Nya.te" format="2">
  <advance width="1375"/>
  <unicode hex="0C1E"/>
  <anchor x="513" y="-53" name="bottom"/>
  <outline>
    <contour>
      <point x="1096" y="779" type="curve"/>
      <point x="1183" y="779" type="line"/>
      <point x="1206" y="902"/>
      <point x="1220" y="997"/>
      <point x="1220" y="1070" type="curve" smooth="yes"/>
      <point x="1220" y="1126"/>
      <point x="1210" y="1168"/>
      <point x="1203" y="1180" type="curve"/>
      <point x="1077" y="1180" type="line"/>
      <point x="1069" y="1168"/>
      <point x="1058" y="1126"/>
      <point x="1058" y="1070" type="curve" smooth="yes"/>
      <point x="1058" y="997"/>
      <point x="1074" y="902"/>
    </contour>
    <contour>
      <point x="883" y="654" type="line"/>
      <point x="1322" y="654" type="line"/>
      <point x="1322" y="788" type="line"/>
      <point x="883" y="788" type="line"/>
    </contour>
    <component base="vowelI.te"/>
  </outline>
</glyph>
<glyph name="Ttha.te" format="2">
  <advance width="826"/>
  <unicode hex="0C20"/>
  <anchor x="415" y="-53" name="bottom"/>
  <outline>
    <contour>
      <point x="415" y="-19" type="curve" smooth="yes"/>
      <point x="633" y="-19"/>
      <point x="744" y="114"/>
      <point x="744" y="379" type="curve" smooth="yes"/>
      <point x="744" y="801" type="line" smooth="yes"/>
      <point x="744" y="1056"/>
      <point x="636" y="1179"/>
      <point x="415" y="1179" type="curve" smooth="yes"/>
      <point x="194" y="1179"/>
      <point x="85" y="1056"/>
      <point x="85" y="801" type="curve" smooth="yes"/>
      <point x="85" y="379" type="line" smooth="yes"/>
      <point x="85" y="114"/>
      <point x="196" y="-19"/>
    </contour>
    <contour>
      <point x="415" y="140" type="curve" smooth="yes"/>
      <point x="298" y="140"/>
      <point x="245" y="215"/>
      <point x="245" y="386" type="curve" smooth="yes"/>
      <point x="245" y="789" type="line" smooth="yes"/>
      <point x="245" y="960"/>
      <point x="298" y="1036"/>
      <point x="415" y="1036" type="curve" smooth="yes"/>
      <point x="530" y="1036"/>
      <point x="584" y="960"/>
      <point x="584" y="789" type="curve" smooth="yes"/>
      <point x="584" y="386" type="line" smooth="yes"/>
      <point x="584" y="215"/>
      <point x="531" y="140"/>
    </contour>
    <contour>
      <point x="393" y="1094" type="curve" smooth="yes"/>
      <point x="399" y="1094" type="line" smooth="yes"/>
      <point x="534" y="1094"/>
      <point x="598" y="1143"/>
      <point x="636" y="1223" type="curve" smooth="yes"/>
      <point x="705" y="1373" type="line" smooth="yes"/>
      <point x="729" y="1426"/>
      <point x="755" y="1438"/>
      <point x="799" y="1438" type="curve" smooth="yes"/>
      <point x="834" y="1438" type="line"/>
      <point x="820" y="1584" type="line"/>
      <point x="767" y="1584" type="line" smooth="yes"/>
      <point x="680" y="1584"/>
      <point x="627" y="1550"/>
      <point x="589" y="1467" type="curve" smooth="yes"/>
      <point x="495" y="1264" type="line" smooth="yes"/>
      <point x="468" y="1206"/>
      <point x="446" y="1184"/>
      <point x="408" y="1184" type="curve" smooth="yes"/>
      <point x="405" y="1184" type="line" smooth="yes"/>
      <point x="364" y="1184"/>
      <point x="342" y="1212"/>
      <point x="326" y="1271" type="curve" smooth="yes"/>
      <point x="295" y="1386" type="line"/>
      <point x="127" y="1386" type="line"/>
      <point x="172" y="1250" type="line" smooth="yes"/>
      <point x="217" y="1114"/>
      <point x="286" y="1094"/>
    </contour>
    <component base="chukka" xOffset="415" yOffset="-102"/>
  </outline>
</glyph>
<glyph name="Dda.te" format="2">
  <advance width="997"/>
  <unicode hex="0C21"/>
  <anchor x="511" y="-53" name="bottom"/>
  <outline>
    <contour>
      <point x="313" y="-18" type="curve" smooth="yes"/>
      <point x="443" y="-18"/>
      <point x="497" y="54"/>
      <point x="509" y="156" type="curve"/>
      <point x="515" y="156" type="line"/>
      <point x="527" y="54"/>
      <point x="582" y="-18"/>
      <point x="712" y="-18" type="curve" smooth="yes"/>
      <point x="858" y="-18"/>
      <point x="934" y="78"/>
      <point x="934" y="282" type="curve" smooth="yes"/>
      <point x="934" y="392" type="line" smooth="yes"/>
      <point x="934" y="477"/>
      <point x="922" y="548"/>
      <point x="891" y="613" type="curve"/>
      <point x="735" y="613" type="line"/>
      <point x="762" y="553"/>
      <point x="773" y="479"/>
      <point x="773" y="401" type="curve" smooth="yes"/>
      <point x="773" y="293" type="line" smooth="yes"/>
      <point x="773" y="189"/>
      <point x="746" y="143"/>
      <point x="683" y="143" type="curve" smooth="yes"/>
      <point x="621" y="143"/>
      <point x="596" y="201"/>
      <point x="592" y="300" type="curve" smooth="yes"/>
      <point x="585" y="466" type="line"/>
      <point x="439" y="466" type="line"/>
      <point x="432" y="300" type="line" smooth="yes"/>
      <point x="428" y="201"/>
      <point x="402" y="143"/>
      <point x="341" y="143" type="curve" smooth="yes"/>
      <point x="278" y="143"/>
      <point x="251" y="189"/>
      <point x="251" y="293" type="curve" smooth="yes"/>
      <point x="251" y="698" type="line" smooth="yes"/>
      <point x="251" y="931"/>
      <point x="337" y="1036"/>
      <point x="528" y="1036" type="curve" smooth="yes"/>
      <point x="671" y="1036"/>
      <point x="763" y="986"/>
      <point x="838" y="925" type="curve"/>
      <point x="831" y="1091" type="line"/>
      <point x="773" y="1131"/>
      <point x="663" y="1179"/>
      <point x="530" y="1179" type="curve" smooth="yes"/>
      <point x="229" y="1179"/>
      <point x="85" y="1024"/>
      <point x="85" y="698" type="curve" smooth="yes"/>
      <point x="85" y="289" type="line" smooth="yes"/>
      <point x="85" y="81"/>
      <point x="164" y="-18"/>
    </contour>
    <contour>
      <point x="487" y="1094" type="curve" smooth="yes"/>
      <point x="492" y="1094" type="line" smooth="yes"/>
      <point x="628" y="1094"/>
      <point x="696" y="1141"/>
      <point x="746" y="1228" type="curve" smooth="yes"/>
      <point x="830" y="1373" type="line" smooth="yes"/>
      <point x="859" y="1423"/>
      <point x="881" y="1438"/>
      <point x="928" y="1438" type="curve" smooth="yes"/>
      <point x="976" y="1438" type="line"/>
      <point x="965" y="1584" type="line"/>
      <point x="904" y="1584" type="line" smooth="yes"/>
      <point x="806" y="1584"/>
      <point x="759" y="1545"/>
      <point x="715" y="1467" type="curve" smooth="yes"/>
      <point x="597" y="1259" type="line" smooth="yes"/>
      <point x="567" y="1206"/>
      <point x="542" y="1184"/>
      <point x="503" y="1184" type="curve"/>
      <point x="500" y="1184" type="line"/>
      <point x="457" y="1184"/>
      <point x="433" y="1208"/>
      <point x="417" y="1269" type="curve" smooth="yes"/>
      <point x="386" y="1386" type="line"/>
      <point x="215" y="1386" type="line"/>
      <point x="253" y="1268" type="line" smooth="yes"/>
      <point x="301" y="1119"/>
      <point x="372" y="1094"/>
    </contour>
  </outline>
</glyph>
<glyph name="Nna.te" format="2">
  <advance width="1114"/>
  <unicode hex="0C23"/>
  <anchor x="554" y="-53" name="bottom"/>
  <outline>
    <contour>
      <point x="778" y="-19" type="curve" smooth="yes"/>
      <point x="946" y="-19"/>
      <point x="1029" y="81"/>
      <point x="1029" y="268" type="curve" smooth="yes"/>
      <point x="1029" y="894" type="line" smooth="yes"/>
      <point x="1029" y="1095"/>
      <point x="947" y="1196"/>
      <point x="777" y="1196" type="curve" smooth="yes"/>
      <point x="636" y="1196"/>
      <point x="579" y="1117"/>
      <point x="560" y="1023" type="curve"/>
      <point x="554" y="1023" type="line"/>
      <point x="535" y="1117"/>
      <point x="477" y="1196"/>
      <point x="335" y="1196" type="curve" smooth="yes"/>
      <point x="169" y="1196"/>
      <point x="83" y="1099"/>
      <point x="83" y="903" type="curve" smooth="yes"/>
      <point x="83" y="828" type="line" smooth="yes"/>
      <point x="83" y="664"/>
      <point x="151" y="597"/>
      <point x="257" y="583" type="curve"/>
      <point x="257" y="578" type="line"/>
      <point x="151" y="563"/>
      <point x="83" y="499"/>
      <point x="83" y="330" type="curve" smooth="yes"/>
      <point x="83" y="260" type="line" smooth="yes"/>
      <point x="83" y="73"/>
      <point x="161" y="-18"/>
      <point x="334" y="-18" type="curve" smooth="yes"/>
      <point x="371" y="-18"/>
      <point x="409" y="-14"/>
      <point x="443" y="-6" type="curve"/>
      <point x="456" y="152" type="line"/>
      <point x="428" y="145"/>
      <point x="402" y="142"/>
      <point x="373" y="142" type="curve" smooth="yes"/>
      <point x="289" y="142"/>
      <point x="248" y="190"/>
      <point x="248" y="295" type="curve" smooth="yes"/>
      <point x="248" y="358" type="line" smooth="yes"/>
      <point x="248" y="458"/>
      <point x="292" y="505"/>
      <point x="370" y="508" type="curve" smooth="yes"/>
      <point x="422" y="510" type="line"/>
      <point x="422" y="651" type="line"/>
      <point x="370" y="654" type="line" smooth="yes"/>
      <point x="292" y="658"/>
      <point x="248" y="710"/>
      <point x="248" y="809" type="curve" smooth="yes"/>
      <point x="248" y="883" type="line" smooth="yes"/>
      <point x="248" y="991"/>
      <point x="284" y="1044"/>
      <point x="363" y="1044" type="curve" smooth="yes"/>
      <point x="441" y="1044"/>
      <point x="471" y="993"/>
      <point x="477" y="893" type="curve" smooth="yes"/>
      <point x="484" y="784" type="line"/>
      <point x="630" y="784" type="line"/>
      <point x="637" y="893" type="line" smooth="yes"/>
      <point x="643" y="994"/>
      <point x="674" y="1044"/>
      <point x="750" y="1044" type="curve" smooth="yes"/>
      <point x="830" y="1044"/>
      <point x="865" y="991"/>
      <point x="865" y="882" type="curve" smooth="yes"/>
      <point x="865" y="540" type="line"/>
      <point x="850" y="540" type="line"/>
      <point x="865" y="450" type="line"/>
      <point x="865" y="251" type="line" smooth="yes"/>
      <point x="865" y="166"/>
      <point x="838" y="127"/>
      <point x="779" y="127" type="curve" smooth="yes"/>
      <point x="719" y="127"/>
      <point x="692" y="166"/>
      <point x="692" y="251" type="curve" smooth="yes"/>
      <point x="692" y="385" type="line" smooth="yes"/>
      <point x="692" y="469"/>
      <point x="716" y="511"/>
      <point x="778" y="511" type="curve" smooth="yes"/>
      <point x="823" y="511"/>
      <point x="855" y="483"/>
      <point x="868" y="431" type="curve"/>
      <point x="862" y="536" type="line"/>
      <point x="847" y="597"/>
      <point x="799" y="642"/>
      <point x="719" y="642" type="curve" smooth="yes"/>
      <point x="600" y="642"/>
      <point x="535" y="565"/>
      <point x="535" y="393" type="curve" smooth="yes"/>
      <point x="535" y="247" type="line" smooth="yes"/>
      <point x="535" y="72"/>
      <point x="612" y="-19"/>
    </contour>
  </outline>
</glyph>
<glyph name="Ta.te" format="2">
  <advance width="1138"/>
  <unicode hex="0C24"/>
  <anchor x="569" y="-53" name="bottom"/>
  <outline>
    <contour>
      <point x="569" y="-18" type="curve" smooth="yes"/>
      <point x="902" y="-18"/>
      <point x="1063" y="147"/>
      <point x="1063" y="487" type="curve" smooth="yes"/>
      <point x="1063" y="705" type="line" smooth="yes"/>
      <point x="1063" y="805"/>
      <point x="1035" y="875"/>
      <point x="983" y="918" type="curve"/>
      <point x="946" y="937" type="line"/>
      <point x="913" y="961"/>
      <point x="873" y="973"/>
      <point x="823" y="973" type="curve" smooth="yes"/>
      <point x="677" y="973"/>
      <point x="604" y="894"/>
      <point x="604" y="733" type="curve" smooth="yes"/>
      <point x="604" y="630" type="line" smooth="yes"/>
      <point x="604" y="479"/>
      <point x="663" y="409"/>
      <point x="766" y="409" type="curve" smooth="yes"/>
      <point x="844" y="409"/>
      <point x="884" y="447"/>
      <point x="902" y="506" type="curve"/>
      <point x="908" y="614" type="line"/>
      <point x="894" y="561"/>
      <point x="868" y="534"/>
      <point x="826" y="534" type="curve" smooth="yes"/>
      <point x="778" y="534"/>
      <point x="756" y="569"/>
      <point x="756" y="638" type="curve" smooth="yes"/>
      <point x="756" y="742" type="line" smooth="yes"/>
      <point x="756" y="816"/>
      <point x="779" y="854"/>
      <point x="830" y="854" type="curve" smooth="yes"/>
      <point x="882" y="854"/>
      <point x="905" y="816"/>
      <point x="905" y="742" type="curve" smooth="yes"/>
      <point x="905" y="598" type="line"/>
      <point x="897" y="504" type="line"/>
      <point x="907" y="504" type="line"/>
      <point x="907" y="468" type="line"/>
      <point x="907" y="243"/>
      <point x="795" y="136"/>
      <point x="568" y="136" type="curve" smooth="yes"/>
      <point x="341" y="136"/>
      <point x="231" y="242"/>
      <point x="231" y="468" type="curve"/>
      <point x="231" y="504" type="line"/>
      <point x="241" y="504" type="line"/>
      <point x="233" y="598" type="line"/>
      <point x="233" y="742" type="line" smooth="yes"/>
      <point x="233" y="816"/>
      <point x="256" y="854"/>
      <point x="308" y="854" type="curve" smooth="yes"/>
      <point x="359" y="854"/>
      <point x="382" y="816"/>
      <point x="382" y="742" type="curve" smooth="yes"/>
      <point x="382" y="638" type="line" smooth="yes"/>
      <point x="382" y="569"/>
      <point x="360" y="534"/>
      <point x="312" y="534" type="curve" smooth="yes"/>
      <point x="270" y="534"/>
      <point x="244" y="561"/>
      <point x="230" y="614" type="curve"/>
      <point x="236" y="506" type="line"/>
      <point x="254" y="447"/>
      <point x="294" y="409"/>
      <point x="372" y="409" type="curve" smooth="yes"/>
      <point x="475" y="409"/>
      <point x="534" y="479"/>
      <point x="534" y="630" type="curve" smooth="yes"/>
      <point x="534" y="735" type="line" smooth="yes"/>
      <point x="534" y="908"/>
      <point x="459" y="995"/>
      <point x="308" y="995" type="curve" smooth="yes"/>
      <point x="154" y="995"/>
      <point x="75" y="903"/>
      <point x="75" y="717" type="curve" smooth="yes"/>
      <point x="75" y="487" type="line" smooth="yes"/>
      <point x="75" y="147"/>
      <point x="236" y="-18"/>
    </contour>
    <contour>
      <point x="881" y="874" type="line"/>
      <point x="1017" y="862" type="line"/>
      <point x="1017" y="933" type="line" smooth="yes"/>
      <point x="1017" y="1097"/>
      <point x="927" y="1189"/>
      <point x="754" y="1189" type="curve" smooth="yes"/>
      <point x="682" y="1189" type="line"/>
      <point x="590" y="1139" type="line"/>
      <point x="568" y="1071" type="line"/>
      <point x="738" y="1071" type="line" smooth="yes"/>
      <point x="840" y="1071"/>
      <point x="881" y="1027"/>
      <point x="881" y="932" type="curve" smooth="yes"/>
    </contour>
    <contour>
      <point x="291" y="1386" type="line"/>
      <point x="333" y="1251" type="line" smooth="yes"/>
      <point x="367" y="1143"/>
      <point x="419" y="1071"/>
      <point x="568" y="1071" type="curve"/>
      <point x="598" y="1116" type="line"/>
      <point x="698" y="1116"/>
      <point x="765" y="1151"/>
      <point x="814" y="1233" type="curve" smooth="yes"/>
      <point x="895" y="1370" type="line" smooth="yes"/>
      <point x="928" y="1425"/>
      <point x="956" y="1438"/>
      <point x="1006" y="1438" type="curve" smooth="yes"/>
      <point x="1056" y="1438" type="line"/>
      <point x="1045" y="1584" type="line"/>
      <point x="977" y="1584" type="line" smooth="yes"/>
      <point x="875" y="1584"/>
      <point x="830" y="1540"/>
      <point x="786" y="1467" type="curve" smooth="yes"/>
      <point x="661" y="1260" type="line" smooth="yes"/>
      <point x="629" y="1207"/>
      <point x="604" y="1188"/>
      <point x="568" y="1188" type="curve"/>
      <point x="563" y="1188" type="line"/>
      <point x="521" y="1188"/>
      <point x="501" y="1213"/>
      <point x="486" y="1269" type="curve" smooth="yes"/>
      <point x="455" y="1386" type="line"/>
    </contour>
  </outline>
</glyph>
<glyph name="Da.te" format="2">
  <advance width="1028"/>
  <unicode hex="0C26"/>
  <anchor x="513" y="-53" name="bottom"/>
  <outline>
    <contour>
      <point x="314" y="-18" type="curve" smooth="yes"/>
      <point x="443" y="-18"/>
      <point x="499" y="54"/>
      <point x="511" y="156" type="curve"/>
      <point x="517" y="156" type="line"/>
      <point x="529" y="54"/>
      <point x="585" y="-18"/>
      <point x="714" y="-18" type="curve" smooth="yes"/>
      <point x="864" y="-18"/>
      <point x="943" y="81"/>
      <point x="943" y="290" type="curve" smooth="yes"/>
      <point x="943" y="701" type="line" smooth="yes"/>
      <point x="943" y="1026"/>
      <point x="806" y="1179"/>
      <point x="513" y="1179" type="curve" smooth="yes"/>
      <point x="222" y="1179"/>
      <point x="85" y="1026"/>
      <point x="85" y="701" type="curve" smooth="yes"/>
      <point x="85" y="290" type="line" smooth="yes"/>
      <point x="85" y="81"/>
      <point x="164" y="-18"/>
    </contour>
    <contour>
      <point x="342" y="143" type="curve" smooth="yes"/>
      <point x="278" y="143"/>
      <point x="251" y="189"/>
      <point x="251" y="294" type="curve" smooth="yes"/>
      <point x="251" y="698" type="line" smooth="yes"/>
      <point x="251" y="932"/>
      <point x="332" y="1036"/>
      <point x="514" y="1036" type="curve" smooth="yes"/>
      <point x="696" y="1036"/>
      <point x="777" y="931"/>
      <point x="777" y="698" type="curve" smooth="yes"/>
      <point x="777" y="294" type="line" smooth="yes"/>
      <point x="777" y="189"/>
      <point x="750" y="143"/>
      <point x="686" y="143" type="curve" smooth="yes"/>
      <point x="624" y="143"/>
      <point x="599" y="201"/>
      <point x="594" y="300" type="curve" smooth="yes"/>
      <point x="586" y="467" type="line"/>
      <point x="442" y="467" type="line"/>
      <point x="434" y="300" type="line" smooth="yes"/>
      <point x="429" y="201"/>
      <point x="404" y="143"/>
    </contour>
    <contour>
      <point x="492" y="1094" type="curve" smooth="yes"/>
      <point x="497" y="1094" type="line" smooth="yes"/>
      <point x="633" y="1094"/>
      <point x="701" y="1141"/>
      <point x="751" y="1228" type="curve" smooth="yes"/>
      <point x="835" y="1373" type="line" smooth="yes"/>
      <point x="864" y="1423"/>
      <point x="886" y="1438"/>
      <point x="933" y="1438" type="curve" smooth="yes"/>
      <point x="983" y="1438" type="line"/>
      <point x="972" y="1584" type="line"/>
      <point x="909" y="1584" type="line" smooth="yes"/>
      <point x="811" y="1584"/>
      <point x="764" y="1545"/>
      <point x="720" y="1467" type="curve" smooth="yes"/>
      <point x="602" y="1259" type="line" smooth="yes"/>
      <point x="572" y="1206"/>
      <point x="547" y="1184"/>
      <point x="508" y="1184" type="curve"/>
      <point x="505" y="1184" type="line"/>
      <point x="462" y="1184"/>
      <point x="438" y="1208"/>
      <point x="422" y="1269" type="curve" smooth="yes"/>
      <point x="391" y="1386" type="line"/>
      <point x="220" y="1386" type="line"/>
      <point x="258" y="1268" type="line" smooth="yes"/>
      <point x="306" y="1119"/>
      <point x="377" y="1094"/>
    </contour>
  </outline>
</glyph>
<glyph name="Na.te" format="2">
  <advance width="1019"/>
  <unicode hex="0C28"/>
  <anchor x="475" y="-53" name="bottom"/>
  <outline>
    <contour>
      <point x="684" y="-18" type="curve" smooth="yes"/>
      <point x="852" y="-18"/>
      <point x="934" y="84"/>
      <point x="934" y="295" type="curve" smooth="yes"/>
      <point x="934" y="683" type="line" smooth="yes"/>
      <point x="934" y="1023"/>
      <point x="798" y="1179"/>
      <point x="501" y="1179" type="curve" smooth="yes"/>
      <point x="411" y="1179" type="line"/>
      <point x="373" y="1136" type="line"/>
      <point x="390" y="1040" type="line"/>
      <point x="487" y="1040" type="line" smooth="yes"/>
      <point x="681" y="1040"/>
      <point x="768" y="929"/>
      <point x="768" y="683" type="curve" smooth="yes"/>
      <point x="768" y="290" type="line" smooth="yes"/>
      <point x="768" y="190"/>
      <point x="741" y="141"/>
      <point x="679" y="141" type="curve" smooth="yes"/>
      <point x="617" y="141"/>
      <point x="590" y="185"/>
      <point x="579" y="282" type="curve" smooth="yes"/>
      <point x="560" y="460" type="line" smooth="yes"/>
      <point x="539" y="617"/>
      <point x="461" y="700"/>
      <point x="313" y="700" type="curve" smooth="yes"/>
      <point x="148" y="700"/>
      <point x="68" y="605"/>
      <point x="68" y="411" type="curve" smooth="yes"/>
      <point x="68" y="258" type="line" smooth="yes"/>
      <point x="68" y="156"/>
      <point x="76" y="73"/>
      <point x="107" y="0" type="curve"/>
      <point x="266" y="0" type="line"/>
      <point x="236" y="83"/>
      <point x="228" y="161"/>
      <point x="228" y="258" type="curve" smooth="yes"/>
      <point x="228" y="409" type="line" smooth="yes"/>
      <point x="228" y="505"/>
      <point x="254" y="551"/>
      <point x="315" y="551" type="curve" smooth="yes"/>
      <point x="376" y="551"/>
      <point x="402" y="506"/>
      <point x="412" y="410" type="curve" smooth="yes"/>
      <point x="432" y="232" type="line" smooth="yes"/>
      <point x="453" y="78"/>
      <point x="522" y="-18"/>
    </contour>
    <contour>
      <point x="864" y="1438" type="line"/>
      <point x="852" y="1584" type="line"/>
      <point x="790" y="1584" type="line" smooth="yes"/>
      <point x="698" y="1584"/>
      <point x="649" y="1551"/>
      <point x="601" y="1467" type="curve" smooth="yes"/>
      <point x="483" y="1259" type="line" smooth="yes"/>
      <point x="453" y="1208"/>
      <point x="428" y="1184"/>
      <point x="387" y="1184" type="curve"/>
      <point x="383" y="1184" type="line"/>
      <point x="339" y="1184"/>
      <point x="317" y="1208"/>
      <point x="300" y="1269" type="curve" smooth="yes"/>
      <point x="269" y="1386" type="line"/>
      <point x="102" y="1386" type="line"/>
      <point x="139" y="1268" type="line" smooth="yes"/>
      <point x="184" y="1117"/>
      <point x="233" y="1040"/>
      <point x="390" y="1040" type="curve"/>
      <point x="413" y="1106" type="line"/>
      <point x="529" y="1106"/>
      <point x="588" y="1150"/>
      <point x="636" y="1237" type="curve" smooth="yes"/>
      <point x="714" y="1373" type="line" smooth="yes"/>
      <point x="741" y="1422"/>
      <point x="766" y="1438"/>
      <point x="813" y="1438" type="curve" smooth="yes"/>
    </contour>
  </outline>
</glyph>
<glyph name="Ra.te" format="2">
  <advance width="829"/>
  <unicode hex="0C30"/>
  <anchor x="414" y="-53" name="bottom"/>
  <outline>
    <contour>
      <point x="415" y="-19" type="curve" smooth="yes"/>
      <point x="633" y="-19"/>
      <point x="744" y="114"/>
      <point x="744" y="379" type="curve" smooth="yes"/>
      <point x="744" y="801" type="line" smooth="yes"/>
      <point x="744" y="1056"/>
      <point x="635" y="1179"/>
      <point x="415" y="1179" type="curve" smooth="yes"/>
      <point x="194" y="1179"/>
      <point x="85" y="1056"/>
      <point x="85" y="801" type="curve" smooth="yes"/>
      <point x="85" y="379" type="line" smooth="yes"/>
      <point x="85" y="114"/>
      <point x="196" y="-19"/>
    </contour>
    <contour>
      <point x="415" y="140" type="curve" smooth="yes"/>
      <point x="302" y="140"/>
      <point x="251" y="216"/>
      <point x="251" y="379" type="curve" smooth="yes"/>
      <point x="251" y="797" type="line" smooth="yes"/>
      <point x="251" y="961"/>
      <point x="302" y="1036"/>
      <point x="415" y="1036" type="curve" smooth="yes"/>
      <point x="527" y="1036"/>
      <point x="578" y="961"/>
      <point x="578" y="797" type="curve" smooth="yes"/>
      <point x="578" y="379" type="line" smooth="yes"/>
      <point x="578" y="216"/>
      <point x="527" y="140"/>
    </contour>
    <contour>
      <point x="395" y="1094" type="curve" smooth="yes"/>
      <point x="401" y="1094" type="line" smooth="yes"/>
      <point x="536" y="1094"/>
      <point x="601" y="1143"/>
      <point x="638" y="1223" type="curve" smooth="yes"/>
      <point x="707" y="1373" type="line" smooth="yes"/>
      <point x="731" y="1426"/>
      <point x="754" y="1438"/>
      <point x="796" y="1438" type="curve" smooth="yes"/>
      <point x="837" y="1438" type="line"/>
      <point x="823" y="1584" type="line"/>
      <point x="764" y="1584" type="line" smooth="yes"/>
      <point x="678" y="1584"/>
      <point x="627" y="1550"/>
      <point x="589" y="1467" type="curve" smooth="yes"/>
      <point x="497" y="1264" type="line" smooth="yes"/>
      <point x="471" y="1206"/>
      <point x="448" y="1184"/>
      <point x="410" y="1184" type="curve" smooth="yes"/>
      <point x="407" y="1184" type="line" smooth="yes"/>
      <point x="366" y="1184"/>
      <point x="344" y="1212"/>
      <point x="328" y="1271" type="curve" smooth="yes"/>
      <point x="297" y="1386" type="line"/>
      <point x="129" y="1386" type="line"/>
      <point x="174" y="1250" type="line" smooth="yes"/>
      <point x="219" y="1114"/>
      <point x="288" y="1094"/>
    </contour>
  </outline>
</glyph>
<glyph name="La.te" format="2">
  <advance width="1022"/>
  <unicode hex="0C32"/>
  <anchor x="506" y="-53" name="bottom"/>
  <outline>
    <contour>
      <point x="510" y="-18" type="curve" smooth="yes"/>
      <point x="798" y="-18"/>
      <point x="937" y="143"/>
      <point x="937" y="466" type="curve" smooth="yes"/>
      <point x="937" y="833" type="line" smooth="yes"/>
      <point x="937" y="1063"/>
      <point x="846" y="1182"/>
      <point x="663" y="1182" type="curve" smooth="yes"/>
      <point x="655" y="1182" type="line"/>
      <point x="639" y="1033" type="line"/>
      <point x="642" y="1033" type="line"/>
      <point x="728" y="1033"/>
      <point x="771" y="967"/>
      <point x="771" y="826" type="curve" smooth="yes"/>
      <point x="771" y="475" type="line" smooth="yes"/>
      <point x="771" y="244"/>
      <point x="692" y="141"/>
      <point x="510" y="141" type="curve" smooth="yes"/>
      <point x="329" y="141"/>
      <point x="249" y="244"/>
      <point x="249" y="475" type="curve" smooth="yes"/>
      <point x="249" y="614" type="line" smooth="yes"/>
      <point x="249" y="621"/>
      <point x="249" y="631"/>
      <point x="249" y="644" type="curve"/>
      <point x="264" y="644" type="line"/>
      <point x="245" y="744" type="line"/>
      <point x="245" y="933" type="line" smooth="yes"/>
      <point x="245" y="1016"/>
      <point x="272" y="1055"/>
      <point x="329" y="1055" type="curve" smooth="yes"/>
      <point x="386" y="1055"/>
      <point x="413" y="1016"/>
      <point x="413" y="933" type="curve" smooth="yes"/>
      <point x="413" y="789" type="line" smooth="yes"/>
      <point x="413" y="712"/>
      <point x="391" y="672"/>
      <point x="335" y="672" type="curve" smooth="yes"/>
      <point x="287" y="672"/>
      <point x="256" y="700"/>
      <point x="243" y="760" type="curve"/>
      <point x="252" y="656" type="line"/>
      <point x="265" y="590"/>
      <point x="312" y="545"/>
      <point x="394" y="545" type="curve" smooth="yes"/>
      <point x="508" y="545"/>
      <point x="563" y="626"/>
      <point x="563" y="777" type="curve" smooth="yes"/>
      <point x="563" y="928" type="line" smooth="yes"/>
      <point x="563" y="1108"/>
      <point x="489" y="1194"/>
      <point x="327" y="1194" type="curve" smooth="yes"/>
      <point x="166" y="1194"/>
      <point x="85" y="1095"/>
      <point x="85" y="925" type="curve" smooth="yes"/>
      <point x="85" y="465" type="line" smooth="yes"/>
      <point x="85" y="141"/>
      <point x="224" y="-18"/>
    </contour>
  </outline>
</glyph>
<glyph name="Llla.te" format="2">
  <advance width="1202"/>
  <unicode hex="0C34"/>
  <anchor x="600" y="-53" name="bottom"/>
  <outline>
    <contour>
      <point x="357" y="-18" type="curve" smooth="yes"/>
      <point x="514" y="-18"/>
      <point x="588" y="60"/>
      <point x="598" y="178" type="curve"/>
      <point x="604" y="178" type="line"/>
      <point x="614" y="60"/>
      <point x="688" y="-18"/>
      <point x="845" y="-18" type="curve" smooth="yes"/>
      <point x="1022" y="-18"/>
      <point x="1117" y="93"/>
      <point x="1117" y="324" type="curve" smooth="yes"/>
      <point x="1117" y="925" type="line" smooth="yes"/>
      <point x="1117" y="1089"/>
      <point x="1036" y="1194"/>
      <point x="875" y="1194" type="curve" smooth="yes"/>
      <point x="716" y="1194"/>
      <point x="644" y="1103"/>
      <point x="644" y="928" type="curve" smooth="yes"/>
      <point x="644" y="782" type="line" smooth="yes"/>
      <point x="644" y="629"/>
      <point x="699" y="550"/>
      <point x="811" y="550" type="curve" smooth="yes"/>
      <point x="891" y="550"/>
      <point x="937" y="595"/>
      <point x="950" y="661" type="curve"/>
      <point x="959" y="765" type="line"/>
      <point x="946" y="705"/>
      <point x="916" y="677"/>
      <point x="870" y="677" type="curve" smooth="yes"/>
      <point x="815" y="677"/>
      <point x="794" y="717"/>
      <point x="794" y="794" type="curve" smooth="yes"/>
      <point x="794" y="933" type="line" smooth="yes"/>
      <point x="794" y="1016"/>
      <point x="820" y="1055"/>
      <point x="876" y="1055" type="curve" smooth="yes"/>
      <point x="931" y="1055"/>
      <point x="957" y="1016"/>
      <point x="957" y="933" type="curve" smooth="yes"/>
      <point x="957" y="749" type="line"/>
      <point x="938" y="649" type="line"/>
      <point x="953" y="649" type="line"/>
      <point x="953" y="639"/>
      <point x="953" y="630"/>
      <point x="953" y="621" type="curve" smooth="yes"/>
      <point x="953" y="328" type="line" smooth="yes"/>
      <point x="953" y="200"/>
      <point x="909" y="142"/>
      <point x="815" y="142" type="curve" smooth="yes"/>
      <point x="724" y="142"/>
      <point x="688" y="202"/>
      <point x="681" y="318" type="curve" smooth="yes"/>
      <point x="674" y="435" type="line"/>
      <point x="528" y="435" type="line"/>
      <point x="521" y="318" type="line" smooth="yes"/>
      <point x="514" y="202"/>
      <point x="479" y="142"/>
      <point x="388" y="142" type="curve" smooth="yes"/>
      <point x="293" y="142"/>
      <point x="249" y="200"/>
      <point x="249" y="328" type="curve" smooth="yes"/>
      <point x="249" y="621" type="line" smooth="yes"/>
      <point x="249" y="629"/>
      <point x="249" y="636"/>
      <point x="249" y="649" type="curve"/>
      <point x="264" y="649" type="line"/>
      <point x="245" y="749" type="line"/>
      <point x="245" y="933" type="line" smooth="yes"/>
      <point x="245" y="1016"/>
      <point x="271" y="1055"/>
      <point x="326" y="1055" type="curve" smooth="yes"/>
      <point x="382" y="1055"/>
      <point x="408" y="1016"/>
      <point x="408" y="933" type="curve" smooth="yes"/>
      <point x="408" y="794" type="line" smooth="yes"/>
      <point x="408" y="717"/>
      <point x="387" y="677"/>
      <point x="332" y="677" type="curve" smooth="yes"/>
      <point x="286" y="677"/>
      <point x="256" y="705"/>
      <point x="243" y="765" type="curve"/>
      <point x="252" y="661" type="line"/>
      <point x="265" y="595"/>
      <point x="311" y="550"/>
      <point x="391" y="550" type="curve" smooth="yes"/>
      <point x="503" y="550"/>
      <point x="558" y="629"/>
      <point x="558" y="782" type="curve" smooth="yes"/>
      <point x="558" y="928" type="line" smooth="yes"/>
      <point x="558" y="1103"/>
      <point x="486" y="1194"/>
      <point x="327" y="1194" type="curve" smooth="yes"/>
      <point x="166" y="1194"/>
      <point x="85" y="1089"/>
      <point x="85" y="925" type="curve" smooth="yes"/>
      <point x="85" y="324" type="line" smooth="yes"/>
      <point x="85" y="93"/>
      <point x="181" y="-18"/>
    </contour>
  </outline>
</glyph>
<glyph name="Va.te" format="2">
  <advance width="1019"/>
  <unicode hex="0C35"/>
  <anchor x="488" y="-53" name="bottom"/>
  <outline>
    <contour>
      <point x="293" y="-18" type="curve" smooth="yes"/>
      <point x="424" y="-18"/>
      <point x="470" y="56"/>
      <point x="485" y="148" type="curve"/>
      <point x="491" y="148" type="line"/>
      <point x="504" y="54"/>
      <point x="564" y="-18"/>
      <point x="699" y="-18" type="curve" smooth="yes"/>
      <point x="855" y="-18"/>
      <point x="934" y="84"/>
      <point x="934" y="297" type="curve" smooth="yes"/>
      <point x="934" y="683" type="line" smooth="yes"/>
      <point x="934" y="1023"/>
      <point x="798" y="1179"/>
      <point x="501" y="1179" type="curve" smooth="yes"/>
      <point x="411" y="1179" type="line"/>
      <point x="385" y="1150" type="line"/>
      <point x="390" y="1040" type="line"/>
      <point x="487" y="1040" type="line" smooth="yes"/>
      <point x="681" y="1040"/>
      <point x="768" y="929"/>
      <point x="768" y="683" type="curve" smooth="yes"/>
      <point x="768" y="299" type="line" smooth="yes"/>
      <point x="768" y="189"/>
      <point x="733" y="141"/>
      <point x="667" y="141" type="curve" smooth="yes"/>
      <point x="596" y="141"/>
      <point x="562" y="190"/>
      <point x="562" y="296" type="curve" smooth="yes"/>
      <point x="562" y="407" type="line" smooth="yes"/>
      <point x="562" y="599"/>
      <point x="478" y="700"/>
      <point x="315" y="700" type="curve" smooth="yes"/>
      <point x="152" y="700"/>
      <point x="68" y="599"/>
      <point x="68" y="406" type="curve" smooth="yes"/>
      <point x="68" y="276" type="line" smooth="yes"/>
      <point x="68" y="83"/>
      <point x="143" y="-18"/>
    </contour>
    <contour>
      <point x="316" y="137" type="curve" smooth="yes"/>
      <point x="253" y="137"/>
      <point x="224" y="184"/>
      <point x="224" y="280" type="curve" smooth="yes"/>
      <point x="224" y="410" type="line" smooth="yes"/>
      <point x="224" y="506"/>
      <point x="253" y="552"/>
      <point x="316" y="552" type="curve" smooth="yes"/>
      <point x="379" y="552"/>
      <point x="408" y="506"/>
      <point x="408" y="410" type="curve" smooth="yes"/>
      <point x="408" y="280" type="line" smooth="yes"/>
      <point x="408" y="184"/>
      <point x="379" y="137"/>
    </contour>
    <contour>
      <point x="390" y="1040" type="curve"/>
      <point x="413" y="1106" type="line"/>
      <point x="529" y="1106"/>
      <point x="588" y="1150"/>
      <point x="636" y="1237" type="curve" smooth="yes"/>
      <point x="714" y="1373" type="line" smooth="yes"/>
      <point x="741" y="1422"/>
      <point x="766" y="1438"/>
      <point x="813" y="1438" type="curve" smooth="yes"/>
      <point x="864" y="1438" type="line"/>
      <point x="852" y="1584" type="line"/>
      <point x="790" y="1584" type="line" smooth="yes"/>
      <point x="698" y="1584"/>
      <point x="649" y="1551"/>
      <point x="601" y="1467" type="curve" smooth="yes"/>
      <point x="483" y="1259" type="line" smooth="yes"/>
      <point x="453" y="1208"/>
      <point x="428" y="1184"/>
      <point x="387" y="1184" type="curve"/>
      <point x="383" y="1184" type="line"/>
      <point x="339" y="1184"/>
      <point x="317" y="1208"/>
      <point x="300" y="1269" type="curve" smooth="yes"/>
      <point x="270" y="1386" type="line"/>
      <point x="102" y="1386" type="line"/>
      <point x="139" y="1268" type="line" smooth="yes"/>
      <point x="184" y="1117"/>
      <point x="233" y="1040"/>
    </contour>
  </outline>
</glyph>
<glyph name="Sha.te" format="2">
  <advance width="964"/>
  <unicode hex="0C36"/>
  <anchor x="485" y="-53" name="bottom"/>
  <outline>
    <contour>
      <point x="632" y="-19" type="curve" smooth="yes"/>
      <point x="804" y="-19"/>
      <point x="887" y="86"/>
      <point x="887" y="266" type="curve" smooth="yes"/>
      <point x="887" y="461" type="line" smooth="yes"/>
      <point x="887" y="636"/>
      <point x="824" y="741"/>
      <point x="708" y="802" type="curve"/>
      <point x="668" y="818" type="line"/>
      <point x="618" y="840"/>
      <point x="559" y="850"/>
      <point x="492" y="850" type="curve" smooth="yes"/>
      <point x="479" y="850" type="line" smooth="yes"/>
      <point x="213" y="850"/>
      <point x="75" y="716"/>
      <point x="75" y="452" type="curve" smooth="yes"/>
      <point x="75" y="370" type="line" smooth="yes"/>
      <point x="75" y="309"/>
      <point x="82" y="250"/>
      <point x="100" y="195" type="curve"/>
      <point x="256" y="195" type="line"/>
      <point x="241" y="256"/>
      <point x="235" y="314"/>
      <point x="235" y="372" type="curve" smooth="yes"/>
      <point x="235" y="452" type="line" smooth="yes"/>
      <point x="235" y="620"/>
      <point x="310" y="709"/>
      <point x="487" y="709" type="curve" smooth="yes"/>
      <point x="503" y="709" type="line" smooth="yes"/>
      <point x="542" y="709"/>
      <point x="569" y="704"/>
      <point x="589" y="697" type="curve"/>
      <point x="626" y="683" type="line"/>
      <point x="695" y="641"/>
      <point x="726" y="572"/>
      <point x="726" y="456" type="curve" smooth="yes"/>
      <point x="726" y="269" type="line" smooth="yes"/>
      <point x="726" y="178"/>
      <point x="696" y="136"/>
      <point x="632" y="136" type="curve" smooth="yes"/>
      <point x="567" y="136"/>
      <point x="537" y="178"/>
      <point x="537" y="269" type="curve" smooth="yes"/>
      <point x="537" y="384" type="line" smooth="yes"/>
      <point x="537" y="511"/>
      <point x="563" y="576"/>
      <point x="669" y="682" type="curve"/>
      <point x="745" y="755" type="line"/>
      <point x="834" y="837"/>
      <point x="870" y="907"/>
      <point x="870" y="990" type="curve" smooth="yes"/>
      <point x="870" y="1106"/>
      <point x="802" y="1173"/>
      <point x="676" y="1173" type="curve" smooth="yes"/>
      <point x="545" y="1173" type="line"/>
      <point x="502" y="1058" type="line"/>
      <point x="618" y="1058" type="line" smooth="yes"/>
      <point x="679" y="1058"/>
      <point x="711" y="1026"/>
      <point x="711" y="975" type="curve" smooth="yes"/>
      <point x="711" y="921"/>
      <point x="688" y="890"/>
      <point x="619" y="822" type="curve"/>
      <point x="529" y="722" type="line"/>
      <point x="410" y="609"/>
      <point x="378" y="526"/>
      <point x="378" y="379" type="curve" smooth="yes"/>
      <point x="378" y="266" type="line" smooth="yes"/>
      <point x="378" y="86"/>
      <point x="461" y="-19"/>
    </contour>
    <contour>
      <point x="502" y="1058" type="curve"/>
      <point x="539" y="1109" type="line"/>
      <point x="642" y="1109"/>
      <point x="704" y="1147"/>
      <point x="753" y="1237" type="curve" smooth="yes"/>
      <point x="825" y="1370" type="line" smooth="yes"/>
      <point x="854" y="1423"/>
      <point x="881" y="1438"/>
      <point x="930" y="1438" type="curve" smooth="yes"/>
      <point x="965" y="1438" type="line"/>
      <point x="954" y="1584" type="line"/>
      <point x="902" y="1584" type="line" smooth="yes"/>
      <point x="807" y="1584"/>
      <point x="759" y="1549"/>
      <point x="714" y="1467" type="curve" smooth="yes"/>
      <point x="600" y="1259" type="line" smooth="yes"/>
      <point x="571" y="1206"/>
      <point x="545" y="1184"/>
      <point x="504" y="1184" type="curve" smooth="yes"/>
      <point x="500" y="1184" type="line" smooth="yes"/>
      <point x="456" y="1184"/>
      <point x="433" y="1208"/>
      <point x="417" y="1269" type="curve" smooth="yes"/>
      <point x="387" y="1386" type="line"/>
      <point x="219" y="1386" type="line"/>
      <point x="256" y="1268" type="line" smooth="yes"/>
      <point x="298" y="1134"/>
      <point x="355" y="1058"/>
    </contour>
  </outline>
</glyph>
<glyph name="Sa.te" format="2">
  <advance width="1024"/>
  <unicode hex="0C38"/>
  <anchor x="490" y="-53" name="bottom"/>
  <outline>
    <contour>
      <point x="689" y="-18" type="curve" smooth="yes"/>
      <point x="857" y="-18"/>
      <point x="939" y="84"/>
      <point x="939" y="295" type="curve" smooth="yes"/>
      <point x="939" y="676" type="line"/>
      <point x="773" y="676" type="line"/>
      <point x="773" y="290" type="line" smooth="yes"/>
      <point x="773" y="190"/>
      <point x="746" y="141"/>
      <point x="684" y="141" type="curve" smooth="yes"/>
      <point x="622" y="141"/>
      <point x="595" y="185"/>
      <point x="584" y="282" type="curve" smooth="yes"/>
      <point x="565" y="460" type="line" smooth="yes"/>
      <point x="544" y="617"/>
      <point x="466" y="700"/>
      <point x="318" y="700" type="curve" smooth="yes"/>
      <point x="153" y="700"/>
      <point x="73" y="606"/>
      <point x="73" y="411" type="curve" smooth="yes"/>
      <point x="73" y="258" type="line" smooth="yes"/>
      <point x="73" y="156"/>
      <point x="81" y="73"/>
      <point x="112" y="0" type="curve"/>
      <point x="271" y="0" type="line"/>
      <point x="241" y="83"/>
      <point x="233" y="161"/>
      <point x="233" y="258" type="curve" smooth="yes"/>
      <point x="233" y="409" type="line" smooth="yes"/>
      <point x="233" y="506"/>
      <point x="259" y="551"/>
      <point x="320" y="551" type="curve" smooth="yes"/>
      <point x="381" y="551"/>
      <point x="406" y="507"/>
      <point x="417" y="410" type="curve" smooth="yes"/>
      <point x="437" y="232" type="line" smooth="yes"/>
      <point x="458" y="78"/>
      <point x="527" y="-18"/>
    </contour>
    <contour>
      <point x="327" y="1039" type="curve" smooth="yes"/>
      <point x="330" y="1039" type="line" smooth="yes"/>
      <point x="461" y="1039"/>
      <point x="506" y="1108"/>
      <point x="581" y="1237" type="curve" smooth="yes"/>
      <point x="660" y="1373" type="line" smooth="yes"/>
      <point x="691" y="1426"/>
      <point x="717" y="1438"/>
      <point x="758" y="1438" type="curve" smooth="yes"/>
      <point x="842" y="1438" type="line"/>
      <point x="832" y="1584" type="line"/>
      <point x="734" y="1584" type="line" smooth="yes"/>
      <point x="635" y="1584"/>
      <point x="589" y="1545"/>
      <point x="545" y="1467" type="curve" smooth="yes"/>
      <point x="427" y="1259" type="line" smooth="yes"/>
      <point x="398" y="1208"/>
      <point x="376" y="1182"/>
      <point x="337" y="1182" type="curve" smooth="yes"/>
      <point x="333" y="1182" type="line" smooth="yes"/>
      <point x="290" y="1182"/>
      <point x="267" y="1210"/>
      <point x="252" y="1269" type="curve" smooth="yes"/>
      <point x="222" y="1386" type="line"/>
      <point x="54" y="1386" type="line"/>
      <point x="91" y="1268" type="line" smooth="yes"/>
      <point x="139" y="1115"/>
      <point x="190" y="1039"/>
    </contour>
    <contour>
      <point x="773" y="531" type="line"/>
      <point x="939" y="531" type="line"/>
      <point x="939" y="833" type="line" smooth="yes"/>
      <point x="939" y="1065"/>
      <point x="848" y="1182"/>
      <point x="667" y="1182" type="curve" smooth="yes"/>
      <point x="659" y="1182" type="line"/>
      <point x="634" y="1033" type="line"/>
      <point x="636" y="1033" type="line"/>
      <point x="727" y="1033"/>
      <point x="773" y="967"/>
      <point x="773" y="826" type="curve" smooth="yes"/>
    </contour>
  </outline>
</glyph>
<glyph name="Ha.te" format="2">
  <advance width="1641"/>
  <unicode hex="0C39"/>
  <anchor x="493" y="-53" name="bottom"/>
  <outline>
    <contour>
      <point x="298" y="-18" type="curve" smooth="yes"/>
      <point x="429" y="-18"/>
      <point x="475" y="56"/>
      <point x="490" y="148" type="curve"/>
      <point x="496" y="148" type="line"/>
      <point x="509" y="54"/>
      <point x="569" y="-18"/>
      <point x="704" y="-18" type="curve" smooth="yes"/>
      <point x="860" y="-18"/>
      <point x="939" y="84"/>
      <point x="939" y="297" type="curve" smooth="yes"/>
      <point x="939" y="814" type="line" smooth="yes"/>
      <point x="939" y="1025"/>
      <point x="856" y="1124"/>
      <point x="680" y="1129" type="curve"/>
      <point x="662" y="1182" type="line"/>
      <point x="633" y="1033" type="line"/>
      <point x="636" y="1033" type="line" smooth="yes"/>
      <point x="728" y="1033"/>
      <point x="773" y="966"/>
      <point x="773" y="826" type="curve" smooth="yes"/>
      <point x="773" y="299" type="line" smooth="yes"/>
      <point x="773" y="189"/>
      <point x="738" y="141"/>
      <point x="672" y="141" type="curve" smooth="yes"/>
      <point x="601" y="141"/>
      <point x="567" y="190"/>
      <point x="567" y="296" type="curve" smooth="yes"/>
      <point x="567" y="407" type="line" smooth="yes"/>
      <point x="567" y="599"/>
      <point x="485" y="700"/>
      <point x="320" y="700" type="curve" smooth="yes"/>
      <point x="155" y="700"/>
      <point x="73" y="599"/>
      <point x="73" y="406" type="curve" smooth="yes"/>
      <point x="73" y="275" type="line" smooth="yes"/>
      <point x="73" y="89"/>
      <point x="144" y="-18"/>
    </contour>
    <contour>
      <point x="321" y="137" type="curve" smooth="yes"/>
      <point x="258" y="137"/>
      <point x="229" y="184"/>
      <point x="229" y="280" type="curve" smooth="yes"/>
      <point x="229" y="410" type="line" smooth="yes"/>
      <point x="229" y="506"/>
      <point x="258" y="552"/>
      <point x="321" y="552" type="curve" smooth="yes"/>
      <point x="384" y="552"/>
      <point x="413" y="506"/>
      <point x="413" y="410" type="curve" smooth="yes"/>
      <point x="413" y="280" type="line" smooth="yes"/>
      <point x="413" y="184"/>
      <point x="384" y="137"/>
    </contour>
    <contour>
      <point x="327" y="1039" type="curve" smooth="yes"/>
      <point x="330" y="1039" type="line" smooth="yes"/>
      <point x="461" y="1039"/>
      <point x="506" y="1108"/>
      <point x="581" y="1237" type="curve" smooth="yes"/>
      <point x="660" y="1373" type="line" smooth="yes"/>
      <point x="691" y="1426"/>
      <point x="717" y="1438"/>
      <point x="758" y="1438" type="curve" smooth="yes"/>
      <point x="842" y="1438" type="line"/>
      <point x="832" y="1584" type="line"/>
      <point x="734" y="1584" type="line" smooth="yes"/>
      <point x="635" y="1584"/>
      <point x="589" y="1545"/>
      <point x="545" y="1467" type="curve" smooth="yes"/>
      <point x="427" y="1259" type="line" smooth="yes"/>
      <point x="398" y="1208"/>
      <point x="376" y="1182"/>
      <point x="337" y="1182" type="curve" smooth="yes"/>
      <point x="333" y="1182" type="line" smooth="yes"/>
      <point x="290" y="1182"/>
      <point x="267" y="1210"/>
      <point x="252" y="1269" type="curve" smooth="yes"/>
      <point x="222" y="1386" type="line"/>
      <point x="54" y="1386" type="line"/>
      <point x="91" y="1268" type="line" smooth="yes"/>
      <point x="139" y="1115"/>
      <point x="190" y="1039"/>
    </contour>
    <contour>
      <point x="1318" y="208" type="curve" smooth="yes"/>
      <point x="1477" y="208"/>
      <point x="1556" y="306"/>
      <point x="1556" y="490" type="curve" smooth="yes"/>
      <point x="1556" y="749" type="line" smooth="yes"/>
      <point x="1556" y="1031"/>
      <point x="1421" y="1182"/>
      <point x="1150" y="1182" type="curve" smooth="yes"/>
      <point x="662" y="1182" type="line"/>
      <point x="675" y="1057" type="line"/>
      <point x="936" y="1043" type="line"/>
      <point x="1142" y="1043" type="line" smooth="yes"/>
      <point x="1317" y="1043"/>
      <point x="1400" y="953"/>
      <point x="1400" y="782" type="curve" smooth="yes"/>
      <point x="1400" y="766" type="line"/>
      <point x="1384" y="766" type="line"/>
      <point x="1400" y="676" type="line"/>
      <point x="1400" y="471" type="line" smooth="yes"/>
      <point x="1400" y="387"/>
      <point x="1374" y="353"/>
      <point x="1318" y="353" type="curve" smooth="yes"/>
      <point x="1262" y="353"/>
      <point x="1236" y="387"/>
      <point x="1236" y="471" type="curve" smooth="yes"/>
      <point x="1236" y="618" type="line" smooth="yes"/>
      <point x="1236" y="698"/>
      <point x="1259" y="737"/>
      <point x="1317" y="737" type="curve" smooth="yes"/>
      <point x="1360" y="737"/>
      <point x="1390" y="711"/>
      <point x="1403" y="661" type="curve"/>
      <point x="1394" y="763" type="line"/>
      <point x="1383" y="828"/>
      <point x="1339" y="871"/>
      <point x="1259" y="871" type="curve" smooth="yes"/>
      <point x="1147" y="871"/>
      <point x="1081" y="792"/>
      <point x="1081" y="631" type="curve" smooth="yes"/>
      <point x="1081" y="473" type="line" smooth="yes"/>
      <point x="1081" y="300"/>
      <point x="1159" y="208"/>
    </contour>
  </outline>
</glyph>
<glyph name="Avagraha.te" format="2">
  <advance width="757"/>
  <unicode hex="0C3D"/>
  <outline>
    <contour>
      <point x="375" y="0" type="curve"/>
      <point x="727" y="0" type="line"/>
      <point x="727" y="155" type="line"/>
      <point x="376" y="155" type="line" smooth="yes"/>
      <point x="278" y="155"/>
      <point x="234" y="199"/>
      <point x="234" y="281" type="curve" smooth="yes"/>
      <point x="234" y="288" type="line" smooth="yes"/>
      <point x="234" y="380"/>
      <point x="279" y="416"/>
      <point x="405" y="499" type="curve" smooth="yes"/>
      <point x="591" y="622"/>
      <point x="627" y="714"/>
      <point x="627" y="857" type="curve" smooth="yes"/>
      <point x="627" y="890" type="line" smooth="yes"/>
      <point x="627" y="1075"/>
      <point x="527" y="1171"/>
      <point x="352" y="1171" type="curve" smooth="yes"/>
      <point x="175" y="1171"/>
      <point x="82" y="1075"/>
      <point x="82" y="894" type="curve" smooth="yes"/>
      <point x="82" y="866" type="line" smooth="yes"/>
      <point x="82" y="831"/>
      <point x="84" y="799"/>
      <point x="91" y="759" type="curve"/>
      <point x="245" y="759" type="line"/>
      <point x="238" y="793"/>
      <point x="237" y="828"/>
      <point x="237" y="857" type="curve" smooth="yes"/>
      <point x="237" y="882" type="line" smooth="yes"/>
      <point x="237" y="976"/>
      <point x="274" y="1028"/>
      <point x="351" y="1028" type="curve" smooth="yes"/>
      <point x="429" y="1028"/>
      <point x="467" y="976"/>
      <point x="467" y="882" type="curve" smooth="yes"/>
      <point x="467" y="850" type="line" smooth="yes"/>
      <point x="467" y="755"/>
      <point x="443" y="700"/>
      <point x="310" y="608" type="curve" smooth="yes"/>
      <point x="134" y="492"/>
      <point x="70" y="416"/>
      <point x="70" y="275" type="curve" smooth="yes"/>
      <point x="70" y="267" type="line" smooth="yes"/>
      <point x="70" y="96"/>
      <point x="175" y="0"/>
    </contour>
  </outline>
</glyph>
<glyph name="matraAa.te" format="2">
  <advance width="711"/>
  <unicode hex="0C3E"/>
  <outline>
    <contour>
      <point x="388" y="208" type="curve" smooth="yes"/>
      <point x="547" y="208"/>
      <point x="626" y="306"/>
      <point x="626" y="490" type="curve" smooth="yes"/>
      <point x="626" y="749" type="line" smooth="yes"/>
      <point x="626" y="1031"/>
      <point x="491" y="1182"/>
      <point x="220" y="1182" type="curve" smooth="yes"/>
      <point x="-268" y="1182" type="line"/>
      <point x="-268" y="1043" type="line"/>
      <point x="212" y="1043" type="line" smooth="yes"/>
      <point x="387" y="1043"/>
      <point x="470" y="953"/>
      <point x="470" y="782" type="curve" smooth="yes"/>
      <point x="470" y="766" type="line"/>
      <point x="454" y="766" type="line"/>
      <point x="470" y="676" type="line"/>
      <point x="470" y="471" type="line" smooth="yes"/>
      <point x="470" y="387"/>
      <point x="444" y="353"/>
      <point x="388" y="353" type="curve" smooth="yes"/>
      <point x="332" y="353"/>
      <point x="306" y="387"/>
      <point x="306" y="471" type="curve" smooth="yes"/>
      <point x="306" y="618" type="line" smooth="yes"/>
      <point x="306" y="698"/>
      <point x="329" y="737"/>
      <point x="387" y="737" type="curve" smooth="yes"/>
      <point x="430" y="737"/>
      <point x="460" y="711"/>
      <point x="473" y="661" type="curve"/>
      <point x="464" y="763" type="line"/>
      <point x="453" y="828"/>
      <point x="409" y="871"/>
      <point x="329" y="871" type="curve" smooth="yes"/>
      <point x="217" y="871"/>
      <point x="151" y="792"/>
      <point x="151" y="631" type="curve" smooth="yes"/>
      <point x="151" y="473" type="line" smooth="yes"/>
      <point x="151" y="300"/>
      <point x="229" y="208"/>
    </contour>
  </outline>
</glyph>
<glyph name="matraI.te" format="2">
  <unicode hex="0C3F"/>
  <outline>
    <contour>
      <point x="-341" y="1041" type="curve" smooth="yes"/>
      <point x="-177" y="1041"/>
      <point x="-92" y="1138"/>
      <point x="-92" y="1323" type="curve" smooth="yes"/>
      <point x="-92" y="1449" type="line" smooth="yes"/>
      <point x="-92" y="1595"/>
      <point x="-172" y="1683"/>
      <point x="-323" y="1683" type="curve" smooth="yes"/>
      <point x="-467" y="1683"/>
      <point x="-545" y="1604"/>
      <point x="-545" y="1477" type="curve" smooth="yes"/>
      <point x="-545" y="1464" type="line" smooth="yes"/>
      <point x="-545" y="1343"/>
      <point x="-479" y="1273"/>
      <point x="-363" y="1273" type="curve" smooth="yes"/>
      <point x="-293" y="1273"/>
      <point x="-252" y="1304"/>
      <point x="-235" y="1344" type="curve"/>
      <point x="-227" y="1450" type="line"/>
      <point x="-243" y="1409"/>
      <point x="-277" y="1388"/>
      <point x="-321" y="1388" type="curve" smooth="yes"/>
      <point x="-374" y="1388"/>
      <point x="-402" y="1421"/>
      <point x="-402" y="1468" type="curve" smooth="yes"/>
      <point x="-402" y="1478" type="line" smooth="yes"/>
      <point x="-402" y="1529"/>
      <point x="-372" y="1564"/>
      <point x="-319" y="1564" type="curve" smooth="yes"/>
      <point x="-266" y="1564"/>
      <point x="-236" y="1528"/>
      <point x="-236" y="1464" type="curve" smooth="yes"/>
      <point x="-236" y="1417" type="line"/>
      <point x="-238" y="1342" type="line"/>
      <point x="-230" y="1342" type="line"/>
      <point x="-230" y="1325" type="line" smooth="yes"/>
      <point x="-230" y="1218"/>
      <point x="-273" y="1168"/>
      <point x="-365" y="1168" type="curve" smooth="yes"/>
      <point x="-421" y="1168"/>
      <point x="-477" y="1180"/>
      <point x="-535" y="1213" type="curve"/>
      <point x="-519" y="1084" type="line"/>
      <point x="-465" y="1055"/>
      <point x="-403" y="1041"/>
    </contour>
  </outline>
</glyph>
<glyph name="matraU.te" format="2">
  <advance width="486"/>
  <unicode hex="0C41"/>
  <outline>
    <contour>
      <point x="146" y="-18" type="curve" smooth="yes"/>
      <point x="317" y="-18"/>
      <point x="401" y="95"/>
      <point x="401" y="297" type="curve" smooth="yes"/>
      <point x="401" y="586" type="line"/>
      <point x="235" y="583" type="line"/>
      <point x="235" y="314" type="line" smooth="yes"/>
      <point x="235" y="197"/>
      <point x="197" y="141"/>
      <point x="112" y="141" type="curve" smooth="yes"/>
      <point x="29" y="141"/>
      <point x="-10" y="197"/>
      <point x="-10" y="312" type="curve" smooth="yes"/>
      <point x="-10" y="351" type="line"/>
      <point x="-67" y="351" type="line"/>
      <point x="-67" y="209" type="line" smooth="yes"/>
      <point x="-67" y="77"/>
      <point x="5" y="-18"/>
    </contour>
    <component base="Terminals.te" xOffset="82"/>
  </outline>
</glyph>
<glyph name="matraUu.te" format="2">
  <advance width="1102"/>
  <unicode hex="0C42"/>
  <outline>
    <contour>
      <point x="157" y="-18" type="curve" smooth="yes"/>
      <point x="319" y="-18"/>
      <point x="400" y="90"/>
      <point x="400" y="297" type="curve" smooth="yes"/>
      <point x="400" y="583" type="line"/>
      <point x="234" y="583" type="line"/>
      <point x="234" y="314" type="line" smooth="yes"/>
      <point x="234" y="197"/>
      <point x="196" y="141"/>
      <point x="111" y="141" type="curve" smooth="yes"/>
      <point x="28" y="141"/>
      <point x="-10" y="197"/>
      <point x="-10" y="312" type="curve" smooth="yes"/>
      <point x="-10" y="351" type="line"/>
      <point x="-68" y="351" type="line"/>
      <point x="-68" y="209" type="line" smooth="yes"/>
      <point x="-68" y="77"/>
      <point x="8" y="-18"/>
    </contour>
    <contour>
      <point x="234" y="531" type="line"/>
      <point x="400" y="531" type="line"/>
      <point x="400" y="789" type="line" smooth="yes"/>
      <point x="400" y="997"/>
      <point x="321" y="1093"/>
      <point x="124" y="1121" type="curve"/>
      <point x="110" y="1182" type="line"/>
      <point x="94" y="1033" type="line"/>
      <point x="97" y="1033" type="line" smooth="yes"/>
      <point x="189" y="1033"/>
      <point x="234" y="967"/>
      <point x="234" y="826" type="curve" smooth="yes"/>
    </contour>
    <contour>
      <point x="779" y="208" type="curve" smooth="yes"/>
      <point x="938" y="208"/>
      <point x="1017" y="306"/>
      <point x="1017" y="490" type="curve" smooth="yes"/>
      <point x="1017" y="749" type="line" smooth="yes"/>
      <point x="1017" y="1031"/>
      <point x="882" y="1182"/>
      <point x="611" y="1182" type="curve" smooth="yes"/>
      <point x="110" y="1182" type="line"/>
      <point x="123" y="1057" type="line"/>
      <point x="397" y="1043" type="line"/>
      <point x="603" y="1043" type="line" smooth="yes"/>
      <point x="778" y="1043"/>
      <point x="861" y="953"/>
      <point x="861" y="782" type="curve" smooth="yes"/>
      <point x="861" y="766" type="line"/>
      <point x="845" y="766" type="line"/>
      <point x="861" y="679" type="line"/>
      <point x="861" y="471" type="line" smooth="yes"/>
      <point x="861" y="387"/>
      <point x="835" y="353"/>
      <point x="779" y="353" type="curve" smooth="yes"/>
      <point x="723" y="353"/>
      <point x="697" y="387"/>
      <point x="697" y="471" type="curve" smooth="yes"/>
      <point x="697" y="618" type="line" smooth="yes"/>
      <point x="697" y="698"/>
      <point x="720" y="737"/>
      <point x="778" y="737" type="curve" smooth="yes"/>
      <point x="821" y="737"/>
      <point x="851" y="711"/>
      <point x="864" y="661" type="curve"/>
      <point x="855" y="763" type="line"/>
      <point x="844" y="828"/>
      <point x="800" y="871"/>
      <point x="720" y="871" type="curve" smooth="yes"/>
      <point x="608" y="871"/>
      <point x="542" y="792"/>
      <point x="542" y="631" type="curve" smooth="yes"/>
      <point x="542" y="473" type="line" smooth="yes"/>
      <point x="542" y="300"/>
      <point x="620" y="208"/>
    </contour>
  </outline>
</glyph>
<glyph name="matraVocalicR.te" format="2">
  <advance width="289"/>
  <unicode hex="0C43"/>
  <outline>
    <contour>
      <point x="-37" y="-641" type="curve" smooth="yes"/>
      <point x="153" y="-641"/>
      <point x="244" y="-536"/>
      <point x="244" y="-334" type="curve" smooth="yes"/>
      <point x="244" y="304" type="line" smooth="yes"/>
      <point x="244" y="495"/>
      <point x="167" y="590"/>
      <point x="22" y="590" type="curve"/>
      <point x="6" y="475" type="line"/>
      <point x="84" y="475"/>
      <point x="122" y="419"/>
      <point x="122" y="304" type="curve" smooth="yes"/>
      <point x="122" y="-328" type="line" smooth="yes"/>
      <point x="122" y="-461"/>
      <point x="73" y="-531"/>
      <point x="-38" y="-531" type="curve" smooth="yes"/>
      <point x="-137" y="-531"/>
      <point x="-190" y="-479"/>
      <point x="-190" y="-392" type="curve"/>
      <point x="-190" y="-390" type="line"/>
      <point x="-181" y="-390" type="line"/>
      <point x="-190" y="-327" type="line"/>
      <point x="-190" y="-274" type="line" smooth="yes"/>
      <point x="-190" y="-231"/>
      <point x="-175" y="-207"/>
      <point x="-143" y="-207" type="curve" smooth="yes"/>
      <point x="-112" y="-207"/>
      <point x="-96" y="-230"/>
      <point x="-96" y="-273" type="curve" smooth="yes"/>
      <point x="-96" y="-297" type="line" smooth="yes"/>
      <point x="-96" y="-335"/>
      <point x="-111" y="-356"/>
      <point x="-140" y="-356" type="curve" smooth="yes"/>
      <point x="-167" y="-356"/>
      <point x="-186" y="-341"/>
      <point x="-195" y="-310" type="curve"/>
      <point x="-187" y="-388" type="line"/>
      <point x="-175" y="-416"/>
      <point x="-147" y="-436"/>
      <point x="-92" y="-436" type="curve" smooth="yes"/>
      <point x="-19" y="-436"/>
      <point x="20" y="-388"/>
      <point x="20" y="-298" type="curve" smooth="yes"/>
      <point x="20" y="-278" type="line" smooth="yes"/>
      <point x="20" y="-167"/>
      <point x="-35" y="-108"/>
      <point x="-143" y="-108" type="curve" smooth="yes"/>
      <point x="-252" y="-108"/>
      <point x="-310" y="-173"/>
      <point x="-310" y="-293" type="curve" smooth="yes"/>
      <point x="-310" y="-372" type="line" smooth="yes"/>
      <point x="-310" y="-547"/>
      <point x="-215" y="-641"/>
    </contour>
  </outline>
</glyph>
<glyph name="matraVocalicRr.te" format="2">
  <advance width="701"/>
  <unicode hex="0C44"/>
  <outline>
    <contour>
      <point x="-37" y="-641" type="curve" smooth="yes"/>
      <point x="153" y="-641"/>
      <point x="244" y="-536"/>
      <point x="244" y="-334" type="curve" smooth="yes"/>
      <point x="244" y="304" type="line" smooth="yes"/>
      <point x="244" y="466"/>
      <point x="176" y="555"/>
      <point x="32" y="560" type="curve"/>
      <point x="22" y="590" type="line"/>
      <point x="6" y="475" type="line"/>
      <point x="84" y="475"/>
      <point x="122" y="419"/>
      <point x="122" y="304" type="curve" smooth="yes"/>
      <point x="122" y="-328" type="line" smooth="yes"/>
      <point x="122" y="-461"/>
      <point x="73" y="-531"/>
      <point x="-38" y="-531" type="curve" smooth="yes"/>
      <point x="-137" y="-531"/>
      <point x="-190" y="-480"/>
      <point x="-190" y="-392" type="curve"/>
      <point x="-190" y="-382" type="line"/>
      <point x="-181" y="-382" type="line"/>
      <point x="-190" y="-332" type="line"/>
      <point x="-190" y="-272" type="line" smooth="yes"/>
      <point x="-190" y="-230"/>
      <point x="-175" y="-207"/>
      <point x="-143" y="-207" type="curve" smooth="yes"/>
      <point x="-112" y="-207"/>
      <point x="-96" y="-229"/>
      <point x="-96" y="-271" type="curve" smooth="yes"/>
      <point x="-96" y="-299" type="line" smooth="yes"/>
      <point x="-96" y="-336"/>
      <point x="-111" y="-356"/>
      <point x="-140" y="-356" type="curve" smooth="yes"/>
      <point x="-166" y="-356"/>
      <point x="-184" y="-343"/>
      <point x="-193" y="-315" type="curve"/>
      <point x="-194" y="-368" type="line"/>
      <point x="-182" y="-407"/>
      <point x="-151" y="-434"/>
      <point x="-92" y="-434" type="curve" smooth="yes"/>
      <point x="-19" y="-434"/>
      <point x="20" y="-387"/>
      <point x="20" y="-300" type="curve" smooth="yes"/>
      <point x="20" y="-276" type="line" smooth="yes"/>
      <point x="20" y="-166"/>
      <point x="-35" y="-108"/>
      <point x="-142" y="-108" type="curve" smooth="yes"/>
      <point x="-252" y="-108"/>
      <point x="-310" y="-173"/>
      <point x="-310" y="-294" type="curve" smooth="yes"/>
      <point x="-310" y="-372" type="line" smooth="yes"/>
      <point x="-310" y="-548"/>
      <point x="-215" y="-641"/>
    </contour>
    <contour>
      <point x="494" y="23" type="curve" smooth="yes"/>
      <point x="600" y="23"/>
      <point x="656" y="84"/>
      <point x="656" y="199" type="curve" smooth="yes"/>
      <point x="656" y="333" type="line" smooth="yes"/>
      <point x="656" y="502"/>
      <point x="574" y="590"/>
      <point x="415" y="590" type="curve" smooth="yes"/>
      <point x="22" y="590" type="line"/>
      <point x="24" y="495" type="line"/>
      <point x="275" y="484" type="line"/>
      <point x="412" y="484" type="line" smooth="yes"/>
      <point x="500" y="484"/>
      <point x="541" y="437"/>
      <point x="541" y="338" type="curve" smooth="yes"/>
      <point x="541" y="335" type="line"/>
      <point x="531" y="335" type="line"/>
      <point x="541" y="273" type="line"/>
      <point x="541" y="192" type="line" smooth="yes"/>
      <point x="541" y="149"/>
      <point x="525" y="127"/>
      <point x="493" y="127" type="curve" smooth="yes"/>
      <point x="461" y="127"/>
      <point x="447" y="151"/>
      <point x="447" y="192" type="curve" smooth="yes"/>
      <point x="447" y="231" type="line" smooth="yes"/>
      <point x="447" y="277"/>
      <point x="462" y="297"/>
      <point x="493" y="297" type="curve" smooth="yes"/>
      <point x="522" y="297"/>
      <point x="537" y="279"/>
      <point x="545" y="246" type="curve"/>
      <point x="537" y="331" type="line"/>
      <point x="527" y="368"/>
      <point x="497" y="388"/>
      <point x="451" y="388" type="curve" smooth="yes"/>
      <point x="373" y="388"/>
      <point x="332" y="335"/>
      <point x="332" y="240" type="curve" smooth="yes"/>
      <point x="332" y="190" type="line" smooth="yes"/>
      <point x="332" y="80"/>
      <point x="388" y="23"/>
    </contour>
  </outline>
</glyph>
<glyph name="matraE.te" format="2">
  <unicode hex="0C46"/>
  <outline>
    <contour>
      <point x="-248" y="1502" type="curve" smooth="yes"/>
      <point x="-588" y="1502" type="line"/>
      <point x="-607" y="1364" type="line"/>
      <point x="-258" y="1364" type="line" smooth="yes"/>
      <point x="-186" y="1364"/>
      <point x="-152" y="1334"/>
      <point x="-152" y="1273" type="curve" smooth="yes"/>
      <point x="-152" y="1211"/>
      <point x="-187" y="1182"/>
      <point x="-258" y="1182" type="curve" smooth="yes"/>
      <point x="-408" y="1182" type="line"/>
      <point x="-408" y="1046" type="line"/>
      <point x="-246" y="1046" type="line" smooth="yes"/>
      <point x="-83" y="1046"/>
      <point x="1" y="1125"/>
      <point x="1" y="1274" type="curve" smooth="yes"/>
      <point x="1" y="1426"/>
      <point x="-83" y="1502"/>
    </contour>
  </outline>
</glyph>
<glyph name="matraO.te" format="2">
  <advance width="638"/>
  <unicode hex="0C4A"/>
  <outline>
    <contour>
      <point x="327" y="414" type="curve" smooth="yes"/>
      <point x="489" y="414"/>
      <point x="566" y="509"/>
      <point x="566" y="695" type="curve" smooth="yes"/>
      <point x="566" y="1098" type="line" smooth="yes"/>
      <point x="566" y="1317"/>
      <point x="471" y="1430"/>
      <point x="290" y="1430" type="curve" smooth="yes"/>
      <point x="175" y="1430"/>
      <point x="97" y="1380"/>
      <point x="78" y="1291" type="curve"/>
      <point x="72" y="1291" type="line"/>
      <point x="57" y="1435"/>
      <point x="-44" y="1513"/>
      <point x="-244" y="1513" type="curve" smooth="yes"/>
      <point x="-295" y="1513" type="line" smooth="yes"/>
      <point x="-489" y="1513"/>
      <point x="-589" y="1440"/>
      <point x="-589" y="1299" type="curve" smooth="yes"/>
      <point x="-589" y="1178"/>
      <point x="-499" y="1117"/>
      <point x="-358" y="1117" type="curve" smooth="yes"/>
      <point x="-321" y="1117" type="line"/>
      <point x="-309" y="1182" type="line"/>
      <point x="-327" y="1182" type="line" smooth="yes"/>
      <point x="-393" y="1182"/>
      <point x="-432" y="1211"/>
      <point x="-432" y="1269" type="curve" smooth="yes"/>
      <point x="-432" y="1339"/>
      <point x="-384" y="1374"/>
      <point x="-280" y="1374" type="curve" smooth="yes"/>
      <point x="-230" y="1374" type="line" smooth="yes"/>
      <point x="-85" y="1374"/>
      <point x="-17" y="1314"/>
      <point x="-8" y="1187" type="curve" smooth="yes"/>
      <point x="-4" y="1130" type="line"/>
      <point x="137" y="1130" type="line"/>
      <point x="140" y="1165" type="line" smooth="yes"/>
      <point x="147" y="1248"/>
      <point x="191" y="1289"/>
      <point x="270" y="1289" type="curve" smooth="yes"/>
      <point x="365" y="1289"/>
      <point x="409" y="1226"/>
      <point x="409" y="1094" type="curve" smooth="yes"/>
      <point x="409" y="962" type="line"/>
      <point x="395" y="962" type="line"/>
      <point x="409" y="872" type="line"/>
      <point x="409" y="677" type="line" smooth="yes"/>
      <point x="409" y="592"/>
      <point x="383" y="558"/>
      <point x="327" y="558" type="curve" smooth="yes"/>
      <point x="271" y="558"/>
      <point x="245" y="592"/>
      <point x="245" y="677" type="curve" smooth="yes"/>
      <point x="245" y="814" type="line" smooth="yes"/>
      <point x="245" y="894"/>
      <point x="268" y="933"/>
      <point x="326" y="933" type="curve" smooth="yes"/>
      <point x="369" y="933"/>
      <point x="399" y="907"/>
      <point x="412" y="857" type="curve"/>
      <point x="403" y="959" type="line"/>
      <point x="392" y="1024"/>
      <point x="348" y="1067"/>
      <point x="268" y="1067" type="curve" smooth="yes"/>
      <point x="156" y="1067"/>
      <point x="90" y="988"/>
      <point x="90" y="827" type="curve" smooth="yes"/>
      <point x="90" y="679" type="line" smooth="yes"/>
      <point x="90" y="503"/>
      <point x="165" y="414"/>
    </contour>
  </outline>
</glyph>
<glyph name="matraAu.te" format="2">
  <advance width="720"/>
  <unicode hex="0C4C"/>
  <outline>
    <contour>
      <point x="411" y="539" type="curve" smooth="yes"/>
      <point x="573" y="539"/>
      <point x="650" y="634"/>
      <point x="650" y="821" type="curve" smooth="yes"/>
      <point x="650" y="1070" type="line" smooth="yes"/>
      <point x="650" y="1351"/>
      <point x="515" y="1500"/>
      <point x="241" y="1500" type="curve" smooth="yes"/>
      <point x="-487" y="1500" type="line"/>
      <point x="-506" y="1364" type="line"/>
      <point x="-83" y="1364" type="line"/>
      <point x="-54" y="1370" type="line"/>
      <point x="79" y="1364" type="line"/>
      <point x="235" y="1364" type="line" smooth="yes"/>
      <point x="410" y="1364"/>
      <point x="493" y="1274"/>
      <point x="493" y="1103" type="curve" smooth="yes"/>
      <point x="493" y="1087" type="line"/>
      <point x="479" y="1087" type="line"/>
      <point x="493" y="997" type="line"/>
      <point x="493" y="802" type="line" smooth="yes"/>
      <point x="493" y="717"/>
      <point x="467" y="683"/>
      <point x="411" y="683" type="curve" smooth="yes"/>
      <point x="355" y="683"/>
      <point x="329" y="717"/>
      <point x="329" y="802" type="curve" smooth="yes"/>
      <point x="329" y="939" type="line" smooth="yes"/>
      <point x="329" y="1019"/>
      <point x="352" y="1058"/>
      <point x="410" y="1058" type="curve" smooth="yes"/>
      <point x="453" y="1058"/>
      <point x="483" y="1032"/>
      <point x="496" y="982" type="curve"/>
      <point x="487" y="1084" type="line"/>
      <point x="476" y="1149"/>
      <point x="432" y="1192"/>
      <point x="352" y="1192" type="curve" smooth="yes"/>
      <point x="240" y="1192"/>
      <point x="174" y="1113"/>
      <point x="174" y="952" type="curve" smooth="yes"/>
      <point x="174" y="804" type="line" smooth="yes"/>
      <point x="174" y="628"/>
      <point x="249" y="539"/>
    </contour>
    <contour>
      <point x="-353" y="1099" type="line"/>
      <point x="-202" y="1099" type="line" smooth="yes"/>
      <point x="-47" y="1099"/>
      <point x="33" y="1155"/>
      <point x="33" y="1264" type="curve" smooth="yes"/>
      <point x="33" y="1371"/>
      <point x="-50" y="1426"/>
      <point x="-217" y="1426" type="curve" smooth="yes"/>
      <point x="-299" y="1426" type="line"/>
      <point x="-329" y="1364" type="line"/>
      <point x="-223" y="1364" type="line" smooth="yes"/>
      <point x="-151" y="1364"/>
      <point x="-117" y="1334"/>
      <point x="-117" y="1273" type="curve" smooth="yes"/>
      <point x="-117" y="1211"/>
      <point x="-152" y="1182"/>
      <point x="-223" y="1182" type="curve" smooth="yes"/>
      <point x="-353" y="1182" type="line"/>
    </contour>
  </outline>
</glyph>
<glyph name="Halant.te" format="2">
  <unicode hex="0C4D"/>
  <outline>
    <contour>
      <point x="-306" y="1047" type="curve" smooth="yes"/>
      <point x="-189" y="1047" type="line"/>
      <point x="-189" y="1182" type="line"/>
      <point x="-298" y="1182" type="line" smooth="yes"/>
      <point x="-362" y="1182"/>
      <point x="-392" y="1204"/>
      <point x="-392" y="1247" type="curve" smooth="yes"/>
      <point x="-392" y="1292"/>
      <point x="-362" y="1314"/>
      <point x="-298" y="1314" type="curve" smooth="yes"/>
      <point x="-45" y="1314" type="line"/>
      <point x="-45" y="1448" type="line"/>
      <point x="-312" y="1448" type="line" smooth="yes"/>
      <point x="-380" y="1448"/>
      <point x="-411" y="1471"/>
      <point x="-411" y="1517" type="curve" smooth="yes"/>
      <point x="-411" y="1563"/>
      <point x="-380" y="1586"/>
      <point x="-312" y="1586" type="curve" smooth="yes"/>
      <point x="95" y="1586" type="line"/>
      <point x="74" y="1723" type="line"/>
      <point x="-319" y="1723" type="line" smooth="yes"/>
      <point x="-486" y="1723"/>
      <point x="-574" y="1658"/>
      <point x="-574" y="1535" type="curve" smooth="yes"/>
      <point x="-574" y="1448"/>
      <point x="-522" y="1394"/>
      <point x="-426" y="1381" type="curve"/>
      <point x="-426" y="1375" type="line"/>
      <point x="-511" y="1356"/>
      <point x="-555" y="1306"/>
      <point x="-555" y="1227" type="curve" smooth="yes"/>
      <point x="-555" y="1106"/>
      <point x="-472" y="1047"/>
    </contour>
  </outline>
</glyph>
<glyph name="Lengthmark.te" format="2">
  <unicode hex="0C55"/>
  <outline>
    <contour>
      <point x="536" y="1796" type="curve"/>
      <point x="518" y="1937" type="line"/>
      <point x="477" y="1962"/>
      <point x="428" y="1978"/>
      <point x="368" y="1978" type="curve" smooth="yes"/>
      <point x="251" y="1978"/>
      <point x="177" y="1914"/>
      <point x="177" y="1813" type="curve" smooth="yes"/>
      <point x="177" y="1728"/>
      <point x="237" y="1667"/>
      <point x="346" y="1653" type="curve"/>
      <point x="394" y="1693" type="line"/>
      <point x="341" y="1706"/>
      <point x="318" y="1732"/>
      <point x="318" y="1772" type="curve" smooth="yes"/>
      <point x="318" y="1816"/>
      <point x="348" y="1841"/>
      <point x="407" y="1841" type="curve" smooth="yes"/>
      <point x="458" y="1841"/>
      <point x="502" y="1821"/>
    </contour>
  </outline>
</glyph>
<glyph name="matraAiLengthmark.te" format="2">
  <unicode hex="0C56"/>
  <anchor x="-63" y="-34" name="_bottom"/>
  <outline>
    <contour>
      <point x="-297" y="-545" type="curve" smooth="yes"/>
      <point x="298" y="-545" type="line"/>
      <point x="323" y="-421" type="line"/>
      <point x="-174" y="-421" type="line"/>
      <point x="-174" y="-418" type="line"/>
      <point x="-131" y="-399"/>
      <point x="-114" y="-352"/>
      <point x="-114" y="-297" type="curve" smooth="yes"/>
      <point x="-114" y="-280" type="line" smooth="yes"/>
      <point x="-114" y="-168"/>
      <point x="-181" y="-109"/>
      <point x="-305" y="-109" type="curve" smooth="yes"/>
      <point x="-432" y="-109"/>
      <point x="-497" y="-178"/>
      <point x="-497" y="-313" type="curve" smooth="yes"/>
      <point x="-497" y="-339" type="line" smooth="yes"/>
      <point x="-497" y="-475"/>
      <point x="-427" y="-545"/>
    </contour>
    <contour>
      <point x="-305" y="-421" type="curve" smooth="yes"/>
      <point x="-351" y="-421"/>
      <point x="-366" y="-389"/>
      <point x="-366" y="-338" type="curve" smooth="yes"/>
      <point x="-366" y="-305" type="line" smooth="yes"/>
      <point x="-366" y="-253"/>
      <point x="-351" y="-222"/>
      <point x="-305" y="-222" type="curve" smooth="yes"/>
      <point x="-258" y="-222"/>
      <point x="-244" y="-254"/>
      <point x="-244" y="-305" type="curve" smooth="yes"/>
      <point x="-244" y="-338" type="line" smooth="yes"/>
      <point x="-244" y="-388"/>
      <point x="-258" y="-421"/>
    </contour>
  </outline>
</glyph>
<glyph name="Tsa.te" format="2">
  <advance width="1042"/>
  <unicode hex="0C58"/>
  <anchor x="531" y="-53" name="bottom"/>
  <outline>
    <contour>
      <point x="69" y="1475" type="line"/>
      <point x="471" y="1475" type="line" smooth="yes"/>
      <point x="597" y="1475"/>
      <point x="669" y="1556"/>
      <point x="669" y="1676" type="curve" smooth="yes"/>
      <point x="669" y="1731" type="line" smooth="yes"/>
      <point x="669" y="1845"/>
      <point x="602" y="1914"/>
      <point x="473" y="1914" type="curve" smooth="yes"/>
      <point x="344" y="1914"/>
      <point x="277" y="1851"/>
      <point x="277" y="1745" type="curve" smooth="yes"/>
      <point x="277" y="1731" type="line" smooth="yes"/>
      <point x="277" y="1670"/>
      <point x="305" y="1624"/>
      <point x="357" y="1610" type="curve"/>
      <point x="357" y="1606" type="line"/>
      <point x="39" y="1606" type="line"/>
    </contour>
    <contour>
      <point x="474" y="1605" type="curve" smooth="yes"/>
      <point x="428" y="1605"/>
      <point x="409" y="1635"/>
      <point x="409" y="1696" type="curve" smooth="yes"/>
      <point x="409" y="1712" type="line" smooth="yes"/>
      <point x="409" y="1774"/>
      <point x="427" y="1803"/>
      <point x="473" y="1803" type="curve" smooth="yes"/>
      <point x="519" y="1803"/>
      <point x="536" y="1774"/>
      <point x="536" y="1712" type="curve" smooth="yes"/>
      <point x="536" y="1696" type="line" smooth="yes"/>
      <point x="536" y="1635"/>
      <point x="518" y="1605"/>
    </contour>
    <component base="Ca.te"/>
  </outline>
</glyph>
<glyph name="Dza.te" format="2">
  <advance width="996"/>
  <unicode hex="0C59"/>
  <anchor x="501" y="-53" name="bottom"/>
  <outline>
    <contour>
      <point x="140" y="1303" type="line"/>
      <point x="699" y="1303" type="line" smooth="yes"/>
      <point x="826" y="1303"/>
      <point x="897" y="1383"/>
      <point x="897" y="1504" type="curve" smooth="yes"/>
      <point x="897" y="1558" type="line" smooth="yes"/>
      <point x="897" y="1673"/>
      <point x="830" y="1741"/>
      <point x="701" y="1741" type="curve" smooth="yes"/>
      <point x="572" y="1741"/>
      <point x="506" y="1678"/>
      <point x="506" y="1573" type="curve" smooth="yes"/>
      <point x="506" y="1558" type="line" smooth="yes"/>
      <point x="506" y="1498"/>
      <point x="534" y="1451"/>
      <point x="586" y="1437" type="curve"/>
      <point x="586" y="1433" type="line"/>
      <point x="109" y="1433" type="line"/>
    </contour>
    <contour>
      <point x="703" y="1433" type="curve" smooth="yes"/>
      <point x="656" y="1433"/>
      <point x="637" y="1463"/>
      <point x="637" y="1523" type="curve" smooth="yes"/>
      <point x="637" y="1540" type="line" smooth="yes"/>
      <point x="637" y="1602"/>
      <point x="655" y="1630"/>
      <point x="701" y="1630" type="curve" smooth="yes"/>
      <point x="747" y="1630"/>
      <point x="765" y="1602"/>
      <point x="765" y="1540" type="curve" smooth="yes"/>
      <point x="765" y="1523" type="line" smooth="yes"/>
      <point x="765" y="1463"/>
      <point x="747" y="1433"/>
    </contour>
    <component base="Ja.te"/>
  </outline>
</glyph>
<glyph name="Rrr.te" format="2">
  <advance width="1027"/>
  <unicode hex="0C5A"/>
  <outline>
    <contour>
      <point x="194" y="608" type="line"/>
      <point x="848" y="608" type="line"/>
      <point x="848" y="733" type="line"/>
      <point x="195" y="733" type="line"/>
    </contour>
    <contour>
      <point x="314" y="-18" type="curve" smooth="yes"/>
      <point x="445" y="-18"/>
      <point x="503" y="62"/>
      <point x="511" y="170" type="curve"/>
      <point x="516" y="170" type="line"/>
      <point x="524" y="62"/>
      <point x="582" y="-18"/>
      <point x="713" y="-18" type="curve" smooth="yes"/>
      <point x="863" y="-18"/>
      <point x="942" y="81"/>
      <point x="942" y="290" type="curve" smooth="yes"/>
      <point x="942" y="701" type="line" smooth="yes"/>
      <point x="942" y="1033"/>
      <point x="801" y="1192"/>
      <point x="513" y="1192" type="curve" smooth="yes"/>
      <point x="226" y="1192"/>
      <point x="85" y="1033"/>
      <point x="85" y="701" type="curve" smooth="yes"/>
      <point x="85" y="290" type="line" smooth="yes"/>
      <point x="85" y="81"/>
      <point x="164" y="-18"/>
    </contour>
    <contour>
      <point x="342" y="143" type="curve" smooth="yes"/>
      <point x="278" y="143"/>
      <point x="251" y="189"/>
      <point x="251" y="294" type="curve" smooth="yes"/>
      <point x="251" y="698" type="line" smooth="yes"/>
      <point x="251" y="929"/>
      <point x="331" y="1034"/>
      <point x="513" y="1034" type="curve" smooth="yes"/>
      <point x="696" y="1034"/>
      <point x="776" y="929"/>
      <point x="776" y="698" type="curve" smooth="yes"/>
      <point x="776" y="294" type="line" smooth="yes"/>
      <point x="776" y="189"/>
      <point x="749" y="143"/>
      <point x="685" y="143" type="curve" smooth="yes"/>
      <point x="622" y="143"/>
      <point x="595" y="189"/>
      <point x="591" y="290" type="curve" smooth="yes"/>
      <point x="585" y="458" type="line"/>
      <point x="442" y="458" type="line"/>
      <point x="436" y="290" type="line" smooth="yes"/>
      <point x="432" y="189"/>
      <point x="405" y="143"/>
    </contour>
  </outline>
</glyph>
<glyph name="vowelVocalicRr.te" format="2">
  <advance width="2455"/>
  <unicode hex="0C60"/>
  <anchor x="506" y="0" name="_bottom"/>
  <outline>
    <contour>
      <point x="296" y="-18" type="curve" smooth="yes"/>
      <point x="429" y="-18"/>
      <point x="487" y="54"/>
      <point x="499" y="156" type="curve"/>
      <point x="505" y="156" type="line"/>
      <point x="517" y="54"/>
      <point x="573" y="-18"/>
      <point x="703" y="-18" type="curve" smooth="yes"/>
      <point x="825" y="-18"/>
      <point x="885" y="68"/>
      <point x="897" y="195" type="curve"/>
      <point x="919" y="218"/>
      <point x="933" y="257"/>
      <point x="933" y="291" type="curve" smooth="yes"/>
      <point x="933" y="653" type="line"/>
      <point x="767" y="653" type="line"/>
      <point x="767" y="294" type="line" smooth="yes"/>
      <point x="767" y="195"/>
      <point x="741" y="143"/>
      <point x="675" y="143" type="curve" smooth="yes"/>
      <point x="609" y="143"/>
      <point x="586" y="201"/>
      <point x="582" y="300" type="curve" smooth="yes"/>
      <point x="575" y="458" type="line"/>
      <point x="429" y="458" type="line"/>
      <point x="422" y="300" type="line" smooth="yes"/>
      <point x="418" y="201"/>
      <point x="395" y="143"/>
      <point x="328" y="143" type="curve" smooth="yes"/>
      <point x="261" y="143"/>
      <point x="236" y="195"/>
      <point x="236" y="277" type="curve" smooth="yes"/>
      <point x="236" y="318" type="line" smooth="yes"/>
      <point x="236" y="420"/>
      <point x="263" y="478"/>
      <point x="376" y="580" type="curve" smooth="yes"/>
      <point x="483" y="676"/>
      <point x="536" y="763"/>
      <point x="536" y="909" type="curve" smooth="yes"/>
      <point x="536" y="936" type="line" smooth="yes"/>
      <point x="536" y="1108"/>
      <point x="460" y="1196"/>
      <point x="304" y="1196" type="curve" smooth="yes"/>
      <point x="150" y="1196"/>
      <point x="75" y="1110"/>
      <point x="75" y="941" type="curve" smooth="yes"/>
      <point x="75" y="896" type="line" smooth="yes"/>
      <point x="75" y="825"/>
      <point x="87" y="765"/>
      <point x="107" y="713" type="curve"/>
      <point x="249" y="713" type="line"/>
      <point x="230" y="769"/>
      <point x="222" y="823"/>
      <point x="222" y="895" type="curve" smooth="yes"/>
      <point x="222" y="939" type="line" smooth="yes"/>
      <point x="222" y="1021"/>
      <point x="247" y="1060"/>
      <point x="304" y="1060" type="curve" smooth="yes"/>
      <point x="360" y="1060"/>
      <point x="386" y="1021"/>
      <point x="386" y="939" type="curve" smooth="yes"/>
      <point x="386" y="908" type="line" smooth="yes"/>
      <point x="386" y="801"/>
      <point x="357" y="754"/>
      <point x="256" y="663" type="curve" smooth="yes"/>
      <point x="122" y="542"/>
      <point x="70" y="461"/>
      <point x="70" y="304" type="curve" smooth="yes"/>
      <point x="70" y="259" type="line" smooth="yes"/>
      <point x="70" y="83"/>
      <point x="147" y="-18"/>
    </contour>
    <contour>
      <point x="933" y="310" type="curve"/>
      <point x="933" y="369" type="line"/>
      <point x="872" y="369" type="line"/>
      <point x="872" y="219" type="line"/>
      <point x="872" y="63"/>
      <point x="953" y="-18"/>
      <point x="1085" y="-18" type="curve" smooth="yes"/>
      <point x="1211" y="-18"/>
      <point x="1282" y="53"/>
      <point x="1306" y="184" type="curve"/>
      <point x="1322" y="214"/>
      <point x="1343" y="252"/>
      <point x="1343" y="297" type="curve" smooth="yes"/>
      <point x="1343" y="638" type="line"/>
      <point x="1177" y="638" type="line"/>
      <point x="1177" y="312" type="line" smooth="yes"/>
      <point x="1177" y="197"/>
      <point x="1139" y="141"/>
      <point x="1054" y="141" type="curve" smooth="yes"/>
      <point x="971" y="141"/>
      <point x="933" y="197"/>
    </contour>
    <contour>
      <point x="1504" y="-18" type="curve" smooth="yes"/>
      <point x="1689" y="-18"/>
      <point x="1753" y="122"/>
      <point x="1753" y="297" type="curve" smooth="yes"/>
      <point x="1753" y="586" type="line"/>
      <point x="1587" y="586" type="line"/>
      <point x="1587" y="314" type="line" smooth="yes"/>
      <point x="1587" y="198"/>
      <point x="1549" y="141"/>
      <point x="1464" y="141" type="curve" smooth="yes"/>
      <point x="1382" y="141"/>
      <point x="1343" y="198"/>
      <point x="1343" y="312" type="curve"/>
      <point x="1343" y="351" type="line"/>
      <point x="1286" y="351" type="line"/>
      <point x="1286" y="189" type="line"/>
      <point x="1286" y="69"/>
      <point x="1364" y="-18"/>
    </contour>
    <contour>
      <point x="1587" y="531" type="line"/>
      <point x="1753" y="531" type="line"/>
      <point x="1753" y="789" type="line" smooth="yes"/>
      <point x="1753" y="997"/>
      <point x="1674" y="1093"/>
      <point x="1477" y="1121" type="curve"/>
      <point x="1463" y="1182" type="line"/>
      <point x="1447" y="1033" type="line"/>
      <point x="1450" y="1033" type="line" smooth="yes"/>
      <point x="1542" y="1033"/>
      <point x="1587" y="967"/>
      <point x="1587" y="826" type="curve" smooth="yes"/>
    </contour>
    <contour>
      <point x="2132" y="208" type="curve" smooth="yes"/>
      <point x="2291" y="208"/>
      <point x="2370" y="306"/>
      <point x="2370" y="490" type="curve" smooth="yes"/>
      <point x="2370" y="749" type="line" smooth="yes"/>
      <point x="2370" y="1031"/>
      <point x="2235" y="1182"/>
      <point x="1964" y="1182" type="curve" smooth="yes"/>
      <point x="1463" y="1182" type="line"/>
      <point x="1476" y="1057" type="line"/>
      <point x="1750" y="1043" type="line"/>
      <point x="1956" y="1043" type="line" smooth="yes"/>
      <point x="2131" y="1043"/>
      <point x="2214" y="953"/>
      <point x="2214" y="782" type="curve" smooth="yes"/>
      <point x="2214" y="766" type="line"/>
      <point x="2198" y="766" type="line"/>
      <point x="2214" y="679" type="line"/>
      <point x="2214" y="471" type="line" smooth="yes"/>
      <point x="2214" y="387"/>
      <point x="2188" y="353"/>
      <point x="2132" y="353" type="curve" smooth="yes"/>
      <point x="2076" y="353"/>
      <point x="2050" y="387"/>
      <point x="2050" y="471" type="curve" smooth="yes"/>
      <point x="2050" y="618" type="line" smooth="yes"/>
      <point x="2050" y="698"/>
      <point x="2073" y="737"/>
      <point x="2131" y="737" type="curve" smooth="yes"/>
      <point x="2174" y="737"/>
      <point x="2204" y="711"/>
      <point x="2217" y="661" type="curve"/>
      <point x="2208" y="763" type="line"/>
      <point x="2197" y="828"/>
      <point x="2153" y="871"/>
      <point x="2073" y="871" type="curve" smooth="yes"/>
      <point x="1961" y="871"/>
      <point x="1895" y="792"/>
      <point x="1895" y="631" type="curve" smooth="yes"/>
      <point x="1895" y="473" type="line" smooth="yes"/>
      <point x="1895" y="300"/>
      <point x="1973" y="208"/>
    </contour>
    <component base="Terminals.te" xOffset="1024"/>
    <component base="Terminals.te" xOffset="614"/>
  </outline>
</glyph>
<glyph name="VocalicLsmall1.te" format="2">
  <unicode hex="0C62"/>
  <anchor x="-27" y="-14" name="_bottom"/>
  <outline>
    <contour>
      <point x="108" y="-709" type="curve" smooth="yes"/>
      <point x="281" y="-709"/>
      <point x="373" y="-620"/>
      <point x="373" y="-454" type="curve" smooth="yes"/>
      <point x="373" y="-298" type="line" smooth="yes"/>
      <point x="373" y="-156"/>
      <point x="312" y="-84"/>
      <point x="198" y="-84" type="curve" smooth="yes"/>
      <point x="191" y="-84" type="line"/>
      <point x="176" y="-190" type="line"/>
      <point x="179" y="-190" type="line"/>
      <point x="236" y="-190"/>
      <point x="256" y="-233"/>
      <point x="256" y="-299" type="curve" smooth="yes"/>
      <point x="256" y="-450" type="line" smooth="yes"/>
      <point x="256" y="-546"/>
      <point x="216" y="-606"/>
      <point x="108" y="-606" type="curve" smooth="yes"/>
      <point x="29" y="-606"/>
      <point x="-14" y="-579"/>
      <point x="-14" y="-528" type="curve" smooth="yes"/>
      <point x="-14" y="-524" type="line" smooth="yes"/>
      <point x="-14" y="-487"/>
      <point x="6" y="-461"/>
      <point x="69" y="-417" type="curve" smooth="yes"/>
      <point x="149" y="-361"/>
      <point x="170" y="-310"/>
      <point x="170" y="-252" type="curve" smooth="yes"/>
      <point x="170" y="-247" type="line" smooth="yes"/>
      <point x="170" y="-140"/>
      <point x="116" y="-83"/>
      <point x="12" y="-83" type="curve" smooth="yes"/>
      <point x="-75" y="-83"/>
      <point x="-118" y="-127"/>
      <point x="-125" y="-193" type="curve"/>
      <point x="-129" y="-193" type="line"/>
      <point x="-136" y="-120"/>
      <point x="-184" y="-83"/>
      <point x="-262" y="-83" type="curve" smooth="yes"/>
      <point x="-362" y="-83"/>
      <point x="-417" y="-143"/>
      <point x="-417" y="-255" type="curve" smooth="yes"/>
      <point x="-417" y="-268" type="line" smooth="yes"/>
      <point x="-417" y="-297"/>
      <point x="-415" y="-326"/>
      <point x="-405" y="-354" type="curve"/>
      <point x="-290" y="-354" type="line"/>
      <point x="-298" y="-327"/>
      <point x="-301" y="-299"/>
      <point x="-301" y="-279" type="curve" smooth="yes"/>
      <point x="-301" y="-268" type="line" smooth="yes"/>
      <point x="-301" y="-222"/>
      <point x="-289" y="-189"/>
      <point x="-244" y="-189" type="curve" smooth="yes"/>
      <point x="-209" y="-189"/>
      <point x="-186" y="-214"/>
      <point x="-184" y="-264" type="curve" smooth="yes"/>
      <point x="-181" y="-329" type="line"/>
      <point x="-73" y="-329" type="line"/>
      <point x="-70" y="-264" type="line" smooth="yes"/>
      <point x="-68" y="-217"/>
      <point x="-52" y="-189"/>
      <point x="-5" y="-189" type="curve" smooth="yes"/>
      <point x="37" y="-189"/>
      <point x="55" y="-212"/>
      <point x="55" y="-252" type="curve" smooth="yes"/>
      <point x="55" y="-255" type="line" smooth="yes"/>
      <point x="55" y="-291"/>
      <point x="38" y="-319"/>
      <point x="-19" y="-358" type="curve" smooth="yes"/>
      <point x="-100" y="-413"/>
      <point x="-131" y="-459"/>
      <point x="-131" y="-528" type="curve"/>
      <point x="-131" y="-532" type="line"/>
      <point x="-131" y="-646"/>
      <point x="-45" y="-709"/>
    </contour>
  </outline>
</glyph>
<glyph name="VocalicLlsmall1.te" format="2">
  <unicode hex="0C63"/>
  <anchor x="135" y="-14" name="_bottom"/>
  <outline>
    <contour>
      <point x="107" y="-709" type="curve" smooth="yes"/>
      <point x="279" y="-709"/>
      <point x="372" y="-620"/>
      <point x="372" y="-454" type="curve" smooth="yes"/>
      <point x="372" y="-314" type="line" smooth="yes"/>
      <point x="372" y="-195"/>
      <point x="313" y="-135"/>
      <point x="208" y="-135" type="curve"/>
      <point x="191" y="-84" type="line"/>
      <point x="176" y="-190" type="line"/>
      <point x="179" y="-190" type="line"/>
      <point x="235" y="-190"/>
      <point x="255" y="-233"/>
      <point x="255" y="-299" type="curve" smooth="yes"/>
      <point x="255" y="-450" type="line" smooth="yes"/>
      <point x="255" y="-546"/>
      <point x="215" y="-606"/>
      <point x="107" y="-606" type="curve" smooth="yes"/>
      <point x="28" y="-606"/>
      <point x="-15" y="-579"/>
      <point x="-15" y="-528" type="curve" smooth="yes"/>
      <point x="-15" y="-524" type="line" smooth="yes"/>
      <point x="-15" y="-487"/>
      <point x="5" y="-461"/>
      <point x="68" y="-417" type="curve" smooth="yes"/>
      <point x="155" y="-356"/>
      <point x="169" y="-306"/>
      <point x="169" y="-252" type="curve" smooth="yes"/>
      <point x="169" y="-247" type="line" smooth="yes"/>
      <point x="169" y="-140"/>
      <point x="115" y="-83"/>
      <point x="12" y="-83" type="curve" smooth="yes"/>
      <point x="-76" y="-83"/>
      <point x="-119" y="-127"/>
      <point x="-126" y="-193" type="curve"/>
      <point x="-130" y="-193" type="line"/>
      <point x="-137" y="-120"/>
      <point x="-185" y="-83"/>
      <point x="-263" y="-83" type="curve" smooth="yes"/>
      <point x="-363" y="-83"/>
      <point x="-418" y="-143"/>
      <point x="-418" y="-255" type="curve" smooth="yes"/>
      <point x="-418" y="-268" type="line" smooth="yes"/>
      <point x="-418" y="-297"/>
      <point x="-416" y="-326"/>
      <point x="-406" y="-354" type="curve"/>
      <point x="-291" y="-354" type="line"/>
      <point x="-299" y="-327"/>
      <point x="-302" y="-299"/>
      <point x="-302" y="-279" type="curve" smooth="yes"/>
      <point x="-302" y="-268" type="line" smooth="yes"/>
      <point x="-302" y="-222"/>
      <point x="-290" y="-189"/>
      <point x="-245" y="-189" type="curve" smooth="yes"/>
      <point x="-210" y="-189"/>
      <point x="-187" y="-214"/>
      <point x="-185" y="-264" type="curve" smooth="yes"/>
      <point x="-182" y="-329" type="line"/>
      <point x="-74" y="-329" type="line"/>
      <point x="-71" y="-264" type="line" smooth="yes"/>
      <point x="-69" y="-220"/>
      <point x="-55" y="-189"/>
      <point x="-6" y="-189" type="curve" smooth="yes"/>
      <point x="36" y="-189"/>
      <point x="54" y="-212"/>
      <point x="54" y="-252" type="curve" smooth="yes"/>
      <point x="54" y="-255" type="line" smooth="yes"/>
      <point x="54" y="-291"/>
      <point x="37" y="-319"/>
      <point x="-20" y="-358" type="curve" smooth="yes"/>
      <point x="-101" y="-413"/>
      <point x="-132" y="-459"/>
      <point x="-132" y="-527" type="curve" smooth="yes"/>
      <point x="-132" y="-531" type="line" smooth="yes"/>
      <point x="-132" y="-646"/>
      <point x="-46" y="-709"/>
    </contour>
    <contour>
      <point x="590" y="-611" type="curve" smooth="yes"/>
      <point x="687" y="-611"/>
      <point x="738" y="-556"/>
      <point x="738" y="-449" type="curve" smooth="yes"/>
      <point x="738" y="-304" type="line" smooth="yes"/>
      <point x="738" y="-160"/>
      <point x="662" y="-84"/>
      <point x="514" y="-84" type="curve" smooth="yes"/>
      <point x="191" y="-84" type="line"/>
      <point x="190" y="-171" type="line"/>
      <point x="396" y="-183" type="line"/>
      <point x="511" y="-183" type="line" smooth="yes"/>
      <point x="602" y="-183"/>
      <point x="635" y="-231"/>
      <point x="635" y="-306" type="curve" smooth="yes"/>
      <point x="635" y="-322" type="line"/>
      <point x="626" y="-322" type="line"/>
      <point x="635" y="-376" type="line"/>
      <point x="635" y="-455" type="line" smooth="yes"/>
      <point x="635" y="-492"/>
      <point x="620" y="-515"/>
      <point x="589" y="-515" type="curve" smooth="yes"/>
      <point x="559" y="-515"/>
      <point x="545" y="-493"/>
      <point x="545" y="-455" type="curve" smooth="yes"/>
      <point x="545" y="-417" type="line" smooth="yes"/>
      <point x="545" y="-379"/>
      <point x="557" y="-355"/>
      <point x="589" y="-355" type="curve" smooth="yes"/>
      <point x="617" y="-355"/>
      <point x="631" y="-373"/>
      <point x="639" y="-402" type="curve"/>
      <point x="638" y="-338" type="line"/>
      <point x="627" y="-295"/>
      <point x="597" y="-267"/>
      <point x="548" y="-267" type="curve" smooth="yes"/>
      <point x="478" y="-267"/>
      <point x="441" y="-317"/>
      <point x="441" y="-405" type="curve" smooth="yes"/>
      <point x="441" y="-458" type="line" smooth="yes"/>
      <point x="441" y="-558"/>
      <point x="493" y="-611"/>
    </contour>
  </outline>
</glyph>
<glyph name="one.te" format="2">
  <advance width="820"/>
  <unicode hex="0C67"/>
  <outline>
    <contour>
      <point x="497" y="0" type="curve"/>
      <point x="665" y="0" type="line"/>
      <point x="722" y="106"/>
      <point x="735" y="219"/>
      <point x="735" y="340" type="curve" smooth="yes"/>
      <point x="735" y="803" type="line" smooth="yes"/>
      <point x="735" y="1065"/>
      <point x="627" y="1196"/>
      <point x="410" y="1196" type="curve" smooth="yes"/>
      <point x="193" y="1196"/>
      <point x="85" y="1065"/>
      <point x="85" y="803" type="curve" smooth="yes"/>
      <point x="85" y="340" type="line" smooth="yes"/>
      <point x="85" y="219"/>
      <point x="98" y="106"/>
      <point x="154" y="0" type="curve"/>
      <point x="322" y="0" type="line"/>
      <point x="265" y="110"/>
      <point x="251" y="221"/>
      <point x="251" y="340" type="curve" smooth="yes"/>
      <point x="251" y="804" type="line" smooth="yes"/>
      <point x="251" y="963"/>
      <point x="301" y="1038"/>
      <point x="410" y="1038" type="curve" smooth="yes"/>
      <point x="518" y="1038"/>
      <point x="569" y="963"/>
      <point x="569" y="804" type="curve" smooth="yes"/>
      <point x="569" y="340" type="line" smooth="yes"/>
      <point x="569" y="221"/>
      <point x="555" y="110"/>
    </contour>
  </outline>
</glyph>
<glyph name="two.te" format="2">
  <advance width="939"/>
  <unicode hex="0C68"/>
  <outline>
    <contour>
      <point x="41" y="0" type="line"/>
      <point x="374" y="0" type="line" smooth="yes"/>
      <point x="706" y="0"/>
      <point x="854" y="155"/>
      <point x="854" y="466" type="curve" smooth="yes"/>
      <point x="854" y="788" type="line" smooth="yes"/>
      <point x="854" y="1061"/>
      <point x="717" y="1194"/>
      <point x="461" y="1194" type="curve" smooth="yes"/>
      <point x="226" y="1194"/>
      <point x="93" y="1067"/>
      <point x="93" y="837" type="curve" smooth="yes"/>
      <point x="93" y="744" type="line" smooth="yes"/>
      <point x="93" y="583"/>
      <point x="163" y="477"/>
      <point x="334" y="477" type="curve" smooth="yes"/>
      <point x="502" y="477"/>
      <point x="566" y="579"/>
      <point x="566" y="728" type="curve" smooth="yes"/>
      <point x="566" y="835" type="line" smooth="yes"/>
      <point x="566" y="938"/>
      <point x="534" y="1014"/>
      <point x="454" y="1055" type="curve"/>
      <point x="454" y="1094" type="line"/>
      <point x="320" y="1053" type="line"/>
      <point x="388" y="1005"/>
      <point x="418" y="954"/>
      <point x="418" y="865" type="curve" smooth="yes"/>
      <point x="418" y="742" type="line" smooth="yes"/>
      <point x="418" y="656"/>
      <point x="390" y="617"/>
      <point x="334" y="617" type="curve" smooth="yes"/>
      <point x="278" y="617"/>
      <point x="251" y="656"/>
      <point x="251" y="742" type="curve" smooth="yes"/>
      <point x="251" y="844" type="line" smooth="yes"/>
      <point x="251" y="990"/>
      <point x="322" y="1060"/>
      <point x="463" y="1060" type="curve" smooth="yes"/>
      <point x="622" y="1060"/>
      <point x="691" y="963"/>
      <point x="691" y="791" type="curve" smooth="yes"/>
      <point x="691" y="474" type="line" smooth="yes"/>
      <point x="691" y="262"/>
      <point x="597" y="151"/>
      <point x="355" y="151" type="curve" smooth="yes"/>
      <point x="13" y="151" type="line"/>
    </contour>
  </outline>
</glyph>
<glyph name="three.te" format="2">
  <advance width="645"/>
  <unicode hex="0C69"/>
  <outline>
    <contour>
      <point x="278" y="-18" type="curve" smooth="yes"/>
      <point x="459" y="-18"/>
      <point x="560" y="79"/>
      <point x="560" y="282" type="curve" smooth="yes"/>
      <point x="560" y="352" type="line" smooth="yes"/>
      <point x="560" y="507"/>
      <point x="494" y="580"/>
      <point x="377" y="598" type="curve"/>
      <point x="377" y="603" type="line"/>
      <point x="490" y="622"/>
      <point x="554" y="696"/>
      <point x="554" y="843" type="curve" smooth="yes"/>
      <point x="554" y="900" type="line" smooth="yes"/>
      <point x="554" y="1100"/>
      <point x="455" y="1194"/>
      <point x="278" y="1194" type="curve" smooth="yes"/>
      <point x="195" y="1194"/>
      <point x="125" y="1175"/>
      <point x="71" y="1148" type="curve"/>
      <point x="54" y="994" type="line"/>
      <point x="102" y="1025"/>
      <point x="171" y="1045"/>
      <point x="239" y="1045" type="curve" smooth="yes"/>
      <point x="346" y="1045"/>
      <point x="390" y="996"/>
      <point x="390" y="878" type="curve" smooth="yes"/>
      <point x="390" y="828" type="line" smooth="yes"/>
      <point x="390" y="731"/>
      <point x="343" y="679"/>
      <point x="248" y="675" type="curve" smooth="yes"/>
      <point x="155" y="671" type="line"/>
      <point x="155" y="529" type="line"/>
      <point x="248" y="525" type="line" smooth="yes"/>
      <point x="346" y="521"/>
      <point x="396" y="466"/>
      <point x="396" y="366" type="curve" smooth="yes"/>
      <point x="396" y="303" type="line" smooth="yes"/>
      <point x="396" y="185"/>
      <point x="352" y="132"/>
      <point x="238" y="132" type="curve" smooth="yes"/>
      <point x="163" y="132"/>
      <point x="96" y="156"/>
      <point x="45" y="194" type="curve"/>
      <point x="62" y="38" type="line"/>
      <point x="117" y="6"/>
      <point x="187" y="-18"/>
    </contour>
  </outline>
</glyph>
<glyph name="four.te" format="2">
  <advance width="881"/>
  <unicode hex="0C6A"/>
  <outline>
    <contour>
      <point x="381" y="391" type="curve"/>
      <point x="439" y="401" type="line"/>
      <point x="496" y="391" type="line"/>
      <point x="704" y="403"/>
      <point x="811" y="526"/>
      <point x="811" y="736" type="curve" smooth="yes"/>
      <point x="811" y="884" type="line" smooth="yes"/>
      <point x="811" y="1068"/>
      <point x="724" y="1182"/>
      <point x="556" y="1182" type="curve" smooth="yes"/>
      <point x="549" y="1182" type="line"/>
      <point x="519" y="1029" type="line"/>
      <point x="522" y="1029" type="line" smooth="yes"/>
      <point x="601" y="1029"/>
      <point x="646" y="979"/>
      <point x="646" y="876" type="curve" smooth="yes"/>
      <point x="646" y="735" type="line" smooth="yes"/>
      <point x="646" y="600"/>
      <point x="588" y="513"/>
      <point x="439" y="513" type="curve" smooth="yes"/>
      <point x="291" y="513"/>
      <point x="236" y="600"/>
      <point x="236" y="735" type="curve" smooth="yes"/>
      <point x="236" y="876" type="line" smooth="yes"/>
      <point x="236" y="979"/>
      <point x="281" y="1029"/>
      <point x="359" y="1029" type="curve" smooth="yes"/>
      <point x="362" y="1029" type="line"/>
      <point x="332" y="1182" type="line"/>
      <point x="326" y="1182" type="line" smooth="yes"/>
      <point x="157" y="1182"/>
      <point x="70" y="1068"/>
      <point x="70" y="884" type="curve" smooth="yes"/>
      <point x="70" y="736" type="line" smooth="yes"/>
      <point x="70" y="526"/>
      <point x="176" y="404"/>
    </contour>
    <contour>
      <point x="441" y="-18" type="curve" smooth="yes"/>
      <point x="609" y="-18"/>
      <point x="691" y="73"/>
      <point x="691" y="219" type="curve" smooth="yes"/>
      <point x="691" y="239" type="line" smooth="yes"/>
      <point x="691" y="391"/>
      <point x="609" y="464"/>
      <point x="441" y="464" type="curve" smooth="yes"/>
      <point x="273" y="464"/>
      <point x="191" y="391"/>
      <point x="191" y="239" type="curve" smooth="yes"/>
      <point x="191" y="219" type="line" smooth="yes"/>
      <point x="191" y="73"/>
      <point x="273" y="-18"/>
    </contour>
    <contour>
      <point x="441" y="122" type="curve" smooth="yes"/>
      <point x="380" y="122"/>
      <point x="346" y="160"/>
      <point x="346" y="239" type="curve" smooth="yes"/>
      <point x="346" y="274" type="line" smooth="yes"/>
      <point x="346" y="352"/>
      <point x="380" y="389"/>
      <point x="441" y="389" type="curve" smooth="yes"/>
      <point x="503" y="389"/>
      <point x="536" y="352"/>
      <point x="536" y="274" type="curve" smooth="yes"/>
      <point x="536" y="239" type="line" smooth="yes"/>
      <point x="536" y="160"/>
      <point x="502" y="122"/>
    </contour>
  </outline>
</glyph>
<glyph name="five.te" format="2">
  <advance width="1127"/>
  <unicode hex="0C6B"/>
  <outline>
    <contour>
      <point x="71" y="-18" type="line"/>
      <point x="231" y="-18" type="line"/>
      <point x="232" y="44" type="line" smooth="yes"/>
      <point x="234" y="162"/>
      <point x="275" y="215"/>
      <point x="372" y="263" type="curve" smooth="yes"/>
      <point x="639" y="395" type="line" smooth="yes"/>
      <point x="697" y="424"/>
      <point x="736" y="442"/>
      <point x="778" y="442" type="curve" smooth="yes"/>
      <point x="782" y="442" type="line" smooth="yes"/>
      <point x="837" y="442"/>
      <point x="862" y="404"/>
      <point x="862" y="332" type="curve" smooth="yes"/>
      <point x="862" y="173" type="line" smooth="yes"/>
      <point x="862" y="100"/>
      <point x="873" y="46"/>
      <point x="898" y="-18" type="curve"/>
      <point x="1065" y="-18" type="line"/>
      <point x="1031" y="58"/>
      <point x="1021" y="113"/>
      <point x="1021" y="174" type="curve" smooth="yes"/>
      <point x="1021" y="343" type="line" smooth="yes"/>
      <point x="1021" y="498"/>
      <point x="939" y="585"/>
      <point x="802" y="585" type="curve" smooth="yes"/>
      <point x="788" y="585" type="line" smooth="yes"/>
      <point x="717" y="585"/>
      <point x="637" y="553"/>
      <point x="548" y="511" type="curve" smooth="yes"/>
      <point x="287" y="388" type="line" smooth="yes"/>
      <point x="142" y="320"/>
      <point x="71" y="217"/>
      <point x="71" y="55" type="curve" smooth="yes"/>
    </contour>
    <contour>
      <point x="228" y="326" type="curve"/>
      <point x="378" y="371" type="line"/>
      <point x="412" y="440"/>
      <point x="430" y="515"/>
      <point x="430" y="594" type="curve" smooth="yes"/>
      <point x="430" y="912" type="line" smooth="yes"/>
      <point x="430" y="1102"/>
      <point x="356" y="1196"/>
      <point x="208" y="1196" type="curve" smooth="yes"/>
      <point x="149" y="1196"/>
      <point x="94" y="1178"/>
      <point x="56" y="1155" type="curve"/>
      <point x="40" y="1006" type="line"/>
      <point x="72" y="1035"/>
      <point x="118" y="1055"/>
      <point x="167" y="1055" type="curve" smooth="yes"/>
      <point x="240" y="1055"/>
      <point x="271" y="1011"/>
      <point x="271" y="911" type="curve" smooth="yes"/>
      <point x="271" y="553" type="line" smooth="yes"/>
      <point x="271" y="463"/>
      <point x="263" y="409"/>
    </contour>
    <contour>
      <point x="644" y="528" type="curve"/>
      <point x="758" y="575" type="line"/>
      <point x="723" y="614"/>
      <point x="709" y="660"/>
      <point x="709" y="743" type="curve" smooth="yes"/>
      <point x="709" y="926" type="line" smooth="yes"/>
      <point x="709" y="1015"/>
      <point x="732" y="1055"/>
      <point x="791" y="1055" type="curve" smooth="yes"/>
      <point x="849" y="1055"/>
      <point x="873" y="1015"/>
      <point x="873" y="926" type="curve" smooth="yes"/>
      <point x="873" y="743" type="line" smooth="yes"/>
      <point x="873" y="660"/>
      <point x="859" y="614"/>
      <point x="824" y="575" type="curve"/>
      <point x="937" y="528" type="line"/>
      <point x="1001" y="576"/>
      <point x="1029" y="643"/>
      <point x="1029" y="754" type="curve" smooth="yes"/>
      <point x="1029" y="927" type="line" smooth="yes"/>
      <point x="1029" y="1101"/>
      <point x="953" y="1196"/>
      <point x="792" y="1196" type="curve" smooth="yes"/>
      <point x="630" y="1196"/>
      <point x="553" y="1101"/>
      <point x="553" y="927" type="curve" smooth="yes"/>
      <point x="553" y="754" type="line" smooth="yes"/>
      <point x="553" y="643"/>
      <point x="581" y="576"/>
    </contour>
  </outline>
</glyph>
<glyph name="six.te" format="2">
  <advance width="872"/>
  <unicode hex="0C6C"/>
  <outline>
    <contour>
      <point x="397" y="0" type="curve"/>
      <point x="834" y="0" type="line"/>
      <point x="834" y="149" type="line"/>
      <point x="407" y="149" type="line" smooth="yes"/>
      <point x="300" y="149"/>
      <point x="246" y="190"/>
      <point x="246" y="312" type="curve" smooth="yes"/>
      <point x="246" y="368" type="line" smooth="yes"/>
      <point x="246" y="468"/>
      <point x="305" y="519"/>
      <point x="401" y="519" type="curve" smooth="yes"/>
      <point x="646" y="519" type="line"/>
      <point x="646" y="663" type="line"/>
      <point x="401" y="663" type="line" smooth="yes"/>
      <point x="305" y="663"/>
      <point x="251" y="717"/>
      <point x="251" y="813" type="curve" smooth="yes"/>
      <point x="251" y="870" type="line" smooth="yes"/>
      <point x="251" y="989"/>
      <point x="304" y="1033"/>
      <point x="405" y="1033" type="curve" smooth="yes"/>
      <point x="537" y="1033" type="line"/>
      <point x="504" y="1182" type="line"/>
      <point x="397" y="1182" type="line" smooth="yes"/>
      <point x="184" y="1182"/>
      <point x="86" y="1083"/>
      <point x="86" y="894" type="curve" smooth="yes"/>
      <point x="86" y="830" type="line" smooth="yes"/>
      <point x="86" y="679"/>
      <point x="152" y="613"/>
      <point x="255" y="594" type="curve"/>
      <point x="255" y="589" type="line"/>
      <point x="151" y="569"/>
      <point x="80" y="505"/>
      <point x="80" y="347" type="curve" smooth="yes"/>
      <point x="80" y="284" type="line" smooth="yes"/>
      <point x="80" y="99"/>
      <point x="178" y="0"/>
    </contour>
  </outline>
</glyph>
<glyph name="seven.te" format="2">
  <advance width="714"/>
  <unicode hex="0C6D"/>
  <outline>
    <contour>
      <point x="625" y="59" type="curve"/>
      <point x="646" y="241" type="line"/>
      <point x="588" y="181"/>
      <point x="510" y="138"/>
      <point x="415" y="138" type="curve" smooth="yes"/>
      <point x="301" y="138"/>
      <point x="244" y="191"/>
      <point x="244" y="298" type="curve" smooth="yes"/>
      <point x="244" y="313" type="line" smooth="yes"/>
      <point x="244" y="410"/>
      <point x="280" y="463"/>
      <point x="424" y="574" type="curve" smooth="yes"/>
      <point x="579" y="693"/>
      <point x="623" y="778"/>
      <point x="623" y="904" type="curve" smooth="yes"/>
      <point x="623" y="919" type="line" smooth="yes"/>
      <point x="623" y="1097"/>
      <point x="527" y="1193"/>
      <point x="364" y="1193" type="curve" smooth="yes"/>
      <point x="267" y="1193"/>
      <point x="195" y="1161"/>
      <point x="143" y="1127" type="curve"/>
      <point x="123" y="969" type="line"/>
      <point x="177" y="1012"/>
      <point x="250" y="1050"/>
      <point x="329" y="1050" type="curve" smooth="yes"/>
      <point x="419" y="1050"/>
      <point x="459" y="999"/>
      <point x="459" y="908" type="curve" smooth="yes"/>
      <point x="459" y="894" type="line" smooth="yes"/>
      <point x="459" y="813"/>
      <point x="429" y="768"/>
      <point x="291" y="659" type="curve" smooth="yes"/>
      <point x="136" y="536"/>
      <point x="80" y="453"/>
      <point x="80" y="301" type="curve" smooth="yes"/>
      <point x="80" y="282" type="line" smooth="yes"/>
      <point x="80" y="93"/>
      <point x="187" y="-18"/>
      <point x="395" y="-18" type="curve" smooth="yes"/>
      <point x="496" y="-18"/>
      <point x="576" y="20"/>
    </contour>
  </outline>
</glyph>
<glyph name="eight.te" format="2">
  <advance width="829"/>
  <unicode hex="0C6E"/>
  <outline>
    <contour>
      <point x="410" y="-18" type="curve" smooth="yes"/>
      <point x="626" y="-18"/>
      <point x="734" y="113"/>
      <point x="734" y="375" type="curve" smooth="yes"/>
      <point x="734" y="792" type="line" smooth="yes"/>
      <point x="734" y="928"/>
      <point x="701" y="1009"/>
      <point x="608" y="1051" type="curve"/>
      <point x="608" y="1055" type="line"/>
      <point x="793" y="1055" type="line"/>
      <point x="769" y="1189" type="line"/>
      <point x="445" y="1182" type="line"/>
      <point x="445" y="1054" type="line"/>
      <point x="490" y="1048" type="line"/>
      <point x="547" y="1004"/>
      <point x="569" y="947"/>
      <point x="569" y="834" type="curve" smooth="yes"/>
      <point x="569" y="374" type="line" smooth="yes"/>
      <point x="569" y="215"/>
      <point x="518" y="140"/>
      <point x="410" y="140" type="curve" smooth="yes"/>
      <point x="301" y="140"/>
      <point x="251" y="215"/>
      <point x="251" y="374" type="curve" smooth="yes"/>
      <point x="251" y="840" type="line" smooth="yes"/>
      <point x="251" y="958"/>
      <point x="265" y="1071"/>
      <point x="323" y="1182" type="curve"/>
      <point x="154" y="1182" type="line"/>
      <point x="98" y="1075"/>
      <point x="85" y="963"/>
      <point x="85" y="840" type="curve" smooth="yes"/>
      <point x="85" y="375" type="line" smooth="yes"/>
      <point x="85" y="113"/>
      <point x="194" y="-18"/>
    </contour>
  </outline>
</glyph>
<glyph name="BaHalant.te" format="2">
  <advance width="1018"/>
  <anchor x="500" y="-53" name="bottom"/>
  <outline>
    <contour>
      <point x="296" y="-18" type="curve" smooth="yes"/>
      <point x="429" y="-18"/>
      <point x="487" y="54"/>
      <point x="499" y="156" type="curve"/>
      <point x="505" y="156" type="line"/>
      <point x="517" y="54"/>
      <point x="573" y="-18"/>
      <point x="707" y="-18" type="curve" smooth="yes"/>
      <point x="855" y="-18"/>
      <point x="933" y="81"/>
      <point x="933" y="291" type="curve" smooth="yes"/>
      <point x="933" y="653" type="line"/>
      <point x="767" y="653" type="line"/>
      <point x="767" y="294" type="line" smooth="yes"/>
      <point x="767" y="195"/>
      <point x="741" y="143"/>
      <point x="675" y="143" type="curve" smooth="yes"/>
      <point x="609" y="143"/>
      <point x="586" y="201"/>
      <point x="582" y="300" type="curve" smooth="yes"/>
      <point x="575" y="458" type="line"/>
      <point x="429" y="458" type="line"/>
      <point x="422" y="300" type="line" smooth="yes"/>
      <point x="418" y="201"/>
      <point x="395" y="143"/>
      <point x="328" y="143" type="curve" smooth="yes"/>
      <point x="261" y="143"/>
      <point x="236" y="195"/>
      <point x="236" y="277" type="curve" smooth="yes"/>
      <point x="236" y="318" type="line" smooth="yes"/>
      <point x="236" y="420"/>
      <point x="263" y="478"/>
      <point x="376" y="580" type="curve" smooth="yes"/>
      <point x="483" y="676"/>
      <point x="536" y="763"/>
      <point x="536" y="909" type="curve" smooth="yes"/>
      <point x="536" y="936" type="line" smooth="yes"/>
      <point x="536" y="1108"/>
      <point x="460" y="1196"/>
      <point x="304" y="1196" type="curve" smooth="yes"/>
      <point x="150" y="1196"/>
      <point x="75" y="1110"/>
      <point x="75" y="941" type="curve" smooth="yes"/>
      <point x="75" y="896" type="line" smooth="yes"/>
      <point x="75" y="825"/>
      <point x="86" y="765"/>
      <point x="107" y="713" type="curve"/>
      <point x="249" y="713" type="line"/>
      <point x="229" y="769"/>
      <point x="222" y="823"/>
      <point x="222" y="895" type="curve" smooth="yes"/>
      <point x="222" y="939" type="line" smooth="yes"/>
      <point x="222" y="1021"/>
      <point x="247" y="1060"/>
      <point x="304" y="1060" type="curve" smooth="yes"/>
      <point x="361" y="1060"/>
      <point x="386" y="1021"/>
      <point x="386" y="939" type="curve" smooth="yes"/>
      <point x="386" y="908" type="line" smooth="yes"/>
      <point x="386" y="801"/>
      <point x="358" y="755"/>
      <point x="256" y="663" type="curve" smooth="yes"/>
      <point x="122" y="542"/>
      <point x="70" y="461"/>
      <point x="70" y="304" type="curve" smooth="yes"/>
      <point x="70" y="259" type="line" smooth="yes"/>
      <point x="70" y="83"/>
      <point x="147" y="-18"/>
    </contour>
    <contour>
      <point x="653" y="1073" type="curve" smooth="yes"/>
      <point x="736" y="1019"/>
      <point x="767" y="963"/>
      <point x="767" y="826" type="curve" smooth="yes"/>
      <point x="767" y="531" type="line"/>
      <point x="933" y="531" type="line"/>
      <point x="933" y="833" type="line" smooth="yes"/>
      <point x="933" y="1027"/>
      <point x="881" y="1103"/>
      <point x="787" y="1155" type="curve" smooth="yes"/>
      <point x="723" y="1191"/>
      <point x="695" y="1214"/>
      <point x="695" y="1251" type="curve" smooth="yes"/>
      <point x="695" y="1292"/>
      <point x="726" y="1314"/>
      <point x="786" y="1314" type="curve" smooth="yes"/>
      <point x="967" y="1314" type="line"/>
      <point x="967" y="1448" type="line"/>
      <point x="775" y="1448" type="line" smooth="yes"/>
      <point x="707" y="1448"/>
      <point x="676" y="1471"/>
      <point x="676" y="1517" type="curve" smooth="yes"/>
      <point x="676" y="1563"/>
      <point x="707" y="1586"/>
      <point x="775" y="1586" type="curve" smooth="yes"/>
      <point x="1107" y="1586" type="line"/>
      <point x="1086" y="1723" type="line"/>
      <point x="768" y="1723" type="line" smooth="yes"/>
      <point x="601" y="1723"/>
      <point x="513" y="1658"/>
      <point x="513" y="1535" type="curve" smooth="yes"/>
      <point x="513" y="1448"/>
      <point x="565" y="1394"/>
      <point x="661" y="1381" type="curve"/>
      <point x="661" y="1375" type="line"/>
      <point x="573" y="1360"/>
      <point x="533" y="1310"/>
      <point x="533" y="1242" type="curve" smooth="yes"/>
      <point x="533" y="1168"/>
      <point x="577" y="1123"/>
    </contour>
  </outline>
</glyph>
<glyph name="BamatraAa.te" format="2">
  <advance width="1636"/>
  <anchor x="500" y="-53" name="bottom"/>
  <outline>
    <contour>
      <point x="296" y="-18" type="curve" smooth="yes"/>
      <point x="429" y="-18"/>
      <point x="487" y="54"/>
      <point x="499" y="156" type="curve"/>
      <point x="505" y="156" type="line"/>
      <point x="517" y="54"/>
      <point x="573" y="-18"/>
      <point x="707" y="-18" type="curve" smooth="yes"/>
      <point x="855" y="-18"/>
      <point x="933" y="81"/>
      <point x="933" y="291" type="curve" smooth="yes"/>
      <point x="933" y="653" type="line"/>
      <point x="767" y="653" type="line"/>
      <point x="767" y="294" type="line" smooth="yes"/>
      <point x="767" y="195"/>
      <point x="741" y="143"/>
      <point x="675" y="143" type="curve" smooth="yes"/>
      <point x="609" y="143"/>
      <point x="586" y="201"/>
      <point x="582" y="300" type="curve" smooth="yes"/>
      <point x="575" y="458" type="line"/>
      <point x="429" y="458" type="line"/>
      <point x="422" y="300" type="line" smooth="yes"/>
      <point x="418" y="201"/>
      <point x="395" y="143"/>
      <point x="328" y="143" type="curve" smooth="yes"/>
      <point x="261" y="143"/>
      <point x="236" y="195"/>
      <point x="236" y="277" type="curve"/>
      <point x="236" y="318" type="line"/>
      <point x="236" y="420"/>
      <point x="263" y="478"/>
      <point x="376" y="580" type="curve" smooth="yes"/>
      <point x="483" y="676"/>
      <point x="536" y="763"/>
      <point x="536" y="909" type="curve" smooth="yes"/>
      <point x="536" y="936" type="line" smooth="yes"/>
      <point x="536" y="1108"/>
      <point x="460" y="1196"/>
      <point x="304" y="1196" type="curve" smooth="yes"/>
      <point x="150" y="1196"/>
      <point x="75" y="1110"/>
      <point x="75" y="941" type="curve" smooth="yes"/>
      <point x="75" y="896" type="line" smooth="yes"/>
      <point x="75" y="825"/>
      <point x="86" y="765"/>
      <point x="107" y="713" type="curve"/>
      <point x="249" y="713" type="line"/>
      <point x="229" y="769"/>
      <point x="222" y="823"/>
      <point x="222" y="895" type="curve" smooth="yes"/>
      <point x="222" y="939" type="line" smooth="yes"/>
      <point x="222" y="1021"/>
      <point x="247" y="1060"/>
      <point x="304" y="1060" type="curve" smooth="yes"/>
      <point x="361" y="1060"/>
      <point x="386" y="1021"/>
      <point x="386" y="939" type="curve" smooth="yes"/>
      <point x="386" y="908" type="line" smooth="yes"/>
      <point x="386" y="801"/>
      <point x="357" y="754"/>
      <point x="256" y="663" type="curve" smooth="yes"/>
      <point x="122" y="542"/>
      <point x="70" y="461"/>
      <point x="70" y="304" type="curve" smooth="yes"/>
      <point x="70" y="259" type="line" smooth="yes"/>
      <point x="70" y="83"/>
      <point x="147" y="-18"/>
    </contour>
    <contour>
      <point x="767" y="531" type="line"/>
      <point x="933" y="531" type="line"/>
      <point x="933" y="789" type="line" smooth="yes"/>
      <point x="933" y="997"/>
      <point x="844" y="1095"/>
      <point x="656" y="1121" type="curve"/>
      <point x="644" y="1182" type="line"/>
      <point x="628" y="1033" type="line"/>
      <point x="631" y="1033" type="line"/>
      <point x="722" y="1033"/>
      <point x="767" y="967"/>
      <point x="767" y="826" type="curve" smooth="yes"/>
    </contour>
    <contour>
      <point x="1313" y="208" type="curve" smooth="yes"/>
      <point x="1472" y="208"/>
      <point x="1551" y="306"/>
      <point x="1551" y="490" type="curve" smooth="yes"/>
      <point x="1551" y="749" type="line" smooth="yes"/>
      <point x="1551" y="1031"/>
      <point x="1416" y="1182"/>
      <point x="1144" y="1182" type="curve" smooth="yes"/>
      <point x="644" y="1182" type="line"/>
      <point x="658" y="1057" type="line"/>
      <point x="931" y="1043" type="line"/>
      <point x="1137" y="1043" type="line" smooth="yes"/>
      <point x="1312" y="1043"/>
      <point x="1395" y="953"/>
      <point x="1395" y="782" type="curve" smooth="yes"/>
      <point x="1395" y="766" type="line"/>
      <point x="1379" y="766" type="line"/>
      <point x="1395" y="676" type="line"/>
      <point x="1395" y="471" type="line" smooth="yes"/>
      <point x="1395" y="387"/>
      <point x="1369" y="353"/>
      <point x="1313" y="353" type="curve" smooth="yes"/>
      <point x="1257" y="353"/>
      <point x="1231" y="387"/>
      <point x="1231" y="471" type="curve" smooth="yes"/>
      <point x="1231" y="618" type="line" smooth="yes"/>
      <point x="1231" y="698"/>
      <point x="1254" y="737"/>
      <point x="1312" y="737" type="curve" smooth="yes"/>
      <point x="1355" y="737"/>
      <point x="1385" y="711"/>
      <point x="1398" y="661" type="curve"/>
      <point x="1389" y="763" type="line"/>
      <point x="1378" y="828"/>
      <point x="1334" y="871"/>
      <point x="1254" y="871" type="curve" smooth="yes"/>
      <point x="1142" y="871"/>
      <point x="1076" y="792"/>
      <point x="1076" y="631" type="curve" smooth="yes"/>
      <point x="1076" y="473" type="line" smooth="yes"/>
      <point x="1076" y="300"/>
      <point x="1154" y="208"/>
    </contour>
  </outline>
</glyph>
